<svg version="1.1" xmlns="http://www.w3.org/2000/svg" xmlns:xlink="http://www.w3.org/1999/xlink" x="0px" y="0px"
	 width="80px" height="80px" viewBox="0 0 80 80" enable-background="new 0 0 80 80" xml:space="preserve">
<path fill="none" stroke="#1D1D1B" stroke-width="0.992" stroke-linecap="round" stroke-linejoin="round" stroke-miterlimit="10" d="
	M74.954,40.64"/>
<path fill="none" stroke="#1D1D1B" stroke-width="0.992" stroke-linecap="round" stroke-linejoin="round" stroke-miterlimit="10" d="
	M4.085,40.64"/>
<path fill="none" stroke="#1D1D1B" stroke-width="0.992" stroke-linecap="round" stroke-linejoin="round" stroke-miterlimit="10" d="
	M39.638,61.9c-11.742,0-21.26-9.52-21.26-21.259c0-11.743,9.518-21.262,21.26-21.262c11.742,0,21.26,9.519,21.26,21.262
	C60.898,52.38,51.38,61.9,39.638,61.9z"/>
<circle fill="none" stroke="#1D1D1B" stroke-width="0.992" stroke-linecap="round" stroke-linejoin="round" stroke-miterlimit="10" cx="39.638" cy="40.64" r="7.087"/>
<line fill="none" stroke="#1D1D1B" stroke-width="0.992" stroke-linecap="round" stroke-linejoin="round" stroke-miterlimit="10" x1="39.638" y1="33.553" x2="39.638" y2="5.206"/>
<line fill="none" stroke="#1D1D1B" stroke-width="0.992" stroke-linecap="round" stroke-linejoin="round" stroke-miterlimit="10" x1="39.638" y1="76.074" x2="39.638" y2="47.726"/>
<line fill="none" stroke="#1D1D1B" stroke-width="0.992" stroke-linecap="round" stroke-linejoin="round" stroke-miterlimit="10" x1="46.726" y1="40.64" x2="75.072" y2="40.64"/>
<line fill="none" stroke="#1D1D1B" stroke-width="0.992" stroke-linecap="round" stroke-linejoin="round" stroke-miterlimit="10" x1="4.204" y1="40.64" x2="32.552" y2="40.64"/>
<line fill="none" stroke="#1D1D1B" stroke-width="0.992" stroke-linecap="round" stroke-linejoin="round" stroke-miterlimit="10" x1="44.649" y1="35.629" x2="64.693" y2="15.585"/>
<line fill="none" stroke="#1D1D1B" stroke-width="0.992" stroke-linecap="round" stroke-linejoin="round" stroke-miterlimit="10" x1="14.582" y1="65.695" x2="34.627" y2="45.651"/>
<line fill="none" stroke="#1D1D1B" stroke-width="0.992" stroke-linecap="round" stroke-linejoin="round" stroke-miterlimit="10" x1="44.649" y1="45.652" x2="64.693" y2="65.695"/>
<line fill="none" stroke="#1D1D1B" stroke-width="0.992" stroke-linecap="round" stroke-linejoin="round" stroke-miterlimit="10" x1="14.582" y1="15.585" x2="34.627" y2="35.63"/>
</svg>
