<?xml version="1.0" standalone="no"?>
<!DOCTYPE svg PUBLIC "-//W3C//DTD SVG 1.1//EN" "http://www.w3.org/Graphics/SVG/1.1/DTD/svg11.dtd" >
<svg xmlns="http://www.w3.org/2000/svg" xmlns:xlink="http://www.w3.org/1999/xlink" version="1.1">
<metadata>
Created by FontForge 20150804 at Fri Nov 27 08:13:53 2015
 By cloudconvert
Copyright Typeface designs Copyright 2005 International Typeface            Corporation
</metadata>
<defs>
<font id="ITCAvantGardeGot-Boo" horiz-adv-x="536" >
  <font-face 
    font-family="ITC Avant Garde Gothic"
    font-weight="400"
    font-stretch="normal"
    units-per-em="1000"
    panose-1="2 2 5 0 0 0 0 0 0 0"
    ascent="800"
    descent="-200"
    x-height="547"
    cap-height="740"
    bbox="-113 -230 1146 979"
    underline-thickness="50"
    underline-position="-100"
    stemh="65"
    stemv="72"
    unicode-range="U+0020-FB02"
  />
<missing-glyph horiz-adv-x="277" 
 />
    <glyph glyph-name="fi" unicode="fi" horiz-adv-x="526" 
d="M95 0v484h-85v63h85c1 125 65 186 199 189h11v-66l-11 -1h-6c-86 -4 -127 -44 -123 -122h140v-63h-140v-484h-70zM384 0v547h70v-547h-70zM384 614v126h70v-126h-70z" />
    <glyph glyph-name="fl" unicode="fl" horiz-adv-x="526" 
d="M95 0v484h-85v63h85c1 125 65 186 199 189h11v-66l-11 -1h-6c-86 -4 -127 -44 -123 -122h140v-63h-140v-484h-70zM384 0v740h70v-740h-70z" />
    <glyph glyph-name="f_t" unicode="ft" horiz-adv-x="562" 
d="M553 484h-131v-484h-70v484h-178v-484h-70v484h-85v63h85c0 142 62 203 210 206v-65c-63 -2 -92 -12 -115 -40c-18 -21 -25 -48 -25 -97v-1v-1v-1v-1h178v193h70v-193h131v-63z" />
    <glyph glyph-name="f_f_t" unicode="fft" horiz-adv-x="810" 
d="M801 484h-131v-484h-70v484h-178v-484h-70v484h-178v-484h-70v484h-85v63h85c0 142 62 203 210 206v-65c-63 -2 -92 -12 -115 -40c-18 -21 -25 -48 -25 -97v-1v-1v-1v-1h178c0 142 62 203 210 206v-65c-63 -2 -92 -12 -115 -40c-18 -21 -25 -48 -25 -97v-1v-1v-1v-1h178
v193h70v-193h131v-63z" />
    <glyph glyph-name=".notdef" horiz-adv-x="277" 
 />
    <glyph glyph-name="space" unicode=" " horiz-adv-x="277" 
 />
    <glyph glyph-name="exclam" unicode="!" horiz-adv-x="295" 
d="M185 193h-74v547h74v-547zM185 0h-74v126h74v-126z" />
    <glyph glyph-name="quotedbl" unicode="&#x22;" horiz-adv-x="309" 
d="M273 740l-12 -296h-57l-12 296h81zM117 740l-12 -296h-57l-12 296h81z" />
    <glyph glyph-name="numbersign" unicode="#" horiz-adv-x="554" 
d="M521 467h-93l-27 -194h92v-67h-101l-29 -206h-69l29 206h-124l-29 -206h-69l29 206h-97v67h107l26 193h-107v68h117l29 206h69l-29 -206h124l29 206h69l-29 -206h83v-67zM359 467h-123l-27 -194h123z" />
    <glyph glyph-name="dollar" unicode="$" horiz-adv-x="554" 
d="M478 544h-74c-2 42 -11 65 -33 87s-54 34 -91 34c-70 0 -115 -44 -115 -114c0 -43 16 -73 49 -93c19 -12 31 -16 81 -30c131 -36 190 -99 190 -203c0 -52 -17 -99 -50 -135c-32 -36 -65 -52 -120 -61v-99h-74v99c-55 9 -89 27 -122 63c-32 35 -49 78 -49 122v14h74
c2 -53 14 -82 44 -108c23 -20 55 -30 93 -30c79 0 130 51 130 132c0 76 -37 114 -140 141c-59 16 -87 27 -115 47c-43 30 -65 76 -65 136v4c0 92 53 155 150 177v84h74v-81c98 -14 159 -83 163 -186z" />
    <glyph glyph-name="percent" unicode="%" horiz-adv-x="775" 
d="M201 753c98 0 180 -81 180 -179c0 -100 -80 -181 -180 -181c-99 0 -180 81 -180 180s81 180 180 180zM630 740l-424 -740h-68l424 740h68zM572 345c99 0 181 -80 181 -178c0 -100 -81 -180 -181 -180s-181 80 -181 179s81 179 181 179zM202 695c-67 0 -121 -54 -121 -123
s54 -123 121 -123s121 54 121 122c0 70 -53 124 -121 124zM572 289c-67 0 -121 -54 -121 -123s54 -123 121 -123s121 54 121 122c0 70 -53 124 -121 124z" />
    <glyph glyph-name="ampersand" unicode="&#x26;" horiz-adv-x="757" 
d="M736 39l-53 -51l-169 165c-64 -117 -128 -165 -224 -165c-129 0 -234 101 -234 226c0 97 53 164 171 220c-62 61 -83 100 -83 154c0 91 79 165 177 165c97 0 178 -79 178 -172c0 -74 -51 -134 -144 -169l140 -138l108 208h83l-137 -261zM302 464c91 35 123 66 123 122
c0 55 -45 97 -103 97c-57 0 -104 -42 -104 -93c0 -39 23 -73 84 -126zM458 206l-178 175c-97 -37 -150 -97 -150 -171c0 -82 71 -152 154 -152c72 0 116 38 174 148z" />
    <glyph glyph-name="quoteright" unicode="&#x2019;" horiz-adv-x="351" 
d="M256 740l-88 -193h-74l88 193h74z" />
    <glyph glyph-name="parenleft" unicode="(" horiz-adv-x="369" 
d="M355 -133v-72c-173 60 -308 270 -308 481s135 421 308 481v-75c-72 -47 -110 -84 -152 -147c-53 -80 -82 -171 -82 -260c0 -99 35 -200 99 -285c39 -52 70 -80 135 -123z" />
    <glyph glyph-name="parenright" unicode=")" horiz-adv-x="369" 
d="M14 682v75c174 -60 308 -270 308 -481s-135 -421 -308 -481v72c73 48 111 86 153 148c52 79 81 171 81 260c0 99 -36 200 -100 286c-39 51 -70 79 -134 121z" />
    <glyph glyph-name="asterisk" unicode="*" horiz-adv-x="425" 
d="M367 606l-110 -34l68 -92l-47 -34l-67 94l-66 -93l-47 34l69 92l-109 34l18 56l109 -38v115h57l-2 -116l109 37z" />
    <glyph glyph-name="plus" unicode="+" horiz-adv-x="606" 
d="M555 219h-218v-219h-68v219h-218v68h218v219h68v-219h218v-68z" />
    <glyph glyph-name="comma" unicode="," horiz-adv-x="277" 
d="M176 126l-88 -193h-74l88 193h74z" />
    <glyph glyph-name="hyphen" unicode="-" horiz-adv-x="332" 
d="M302 248h-272v67h272v-67z" />
    <glyph glyph-name="period" unicode="." horiz-adv-x="277" 
d="M176 0h-74v126h74v-126z" />
    <glyph glyph-name="slash" unicode="/" horiz-adv-x="437" 
d="M403 740l-283 -840h-76l280 840h79z" />
    <glyph glyph-name="zero" unicode="0" horiz-adv-x="554" 
d="M29 270v216c0 54 9 99 28 136c41 81 125 131 220 131s179 -50 220 -131c19 -37 28 -82 28 -136v-216c0 -67 -13 -126 -37 -168c-41 -72 -120 -115 -211 -115s-170 43 -211 115c-24 42 -37 101 -37 168zM451 281v188c0 50 -11 101 -28 134c-25 48 -87 83 -146 83
c-56 0 -114 -32 -142 -76c-19 -31 -32 -87 -32 -141v-188c0 -60 8 -109 24 -140c27 -54 83 -87 150 -87c70 0 129 36 154 95c13 29 20 77 20 132z" />
    <glyph glyph-name="one" unicode="1" horiz-adv-x="554" 
d="M336 0h-74v673h-127v67h201v-740z" />
    <glyph glyph-name="two" unicode="2" horiz-adv-x="554" 
d="M46 501v2c0 115 50 195 144 232c31 12 62 18 94 18c101 0 183 -58 217 -154c9 -24 13 -48 13 -71c0 -80 -32 -134 -136 -234l-238 -227h370v-67h-470v67l260 250c68 66 68 66 86 86c37 45 54 85 54 127c0 85 -73 156 -161 156c-57 0 -104 -26 -132 -73
c-19 -33 -25 -59 -27 -112h-74z" />
    <glyph glyph-name="three" unicode="3" horiz-adv-x="554" 
d="M157 555h-74c5 69 22 111 60 149c33 32 77 49 127 49c107 0 187 -81 187 -190c0 -57 -20 -93 -76 -139c83 -47 125 -114 125 -197c0 -135 -102 -240 -232 -240c-46 0 -93 14 -134 39c-66 42 -99 106 -106 206h74c4 -45 9 -67 22 -92c29 -54 82 -86 144 -86
c92 0 158 70 158 168c0 58 -30 111 -81 141c-31 19 -55 24 -114 26h-17v65h13c8 -1 9 -1 15 -1c81 0 135 47 135 117c0 67 -48 116 -114 116s-108 -49 -112 -131z" />
    <glyph glyph-name="four" unicode="4" horiz-adv-x="554" 
d="M528 135h-67v-135h-74v135h-373v67l359 538h88v-538h67v-67zM387 202v436h-2l-286 -436h288z" />
    <glyph glyph-name="five" unicode="5" horiz-adv-x="554" 
d="M194 673l-37 -204c47 25 83 35 126 35c138 0 247 -114 247 -259c0 -143 -112 -258 -251 -258c-44 0 -92 14 -132 38c-68 41 -105 105 -121 208h74c8 -58 23 -92 55 -125c32 -35 75 -54 123 -54c99 0 178 85 178 192s-78 192 -176 192c-58 0 -108 -27 -154 -84l-58 21
l67 365h333v-67h-274z" />
    <glyph glyph-name="six" unicode="6" horiz-adv-x="554" 
d="M210 489l2 -1c25 11 46 16 71 16c139 0 247 -113 247 -257c0 -148 -109 -260 -254 -260s-252 111 -252 261c0 69 19 115 89 220l184 272h84zM277 437c-101 0 -179 -84 -179 -193c0 -107 79 -190 179 -190c101 0 179 83 179 190c0 109 -77 193 -179 193z" />
    <glyph glyph-name="seven" unicode="7" horiz-adv-x="554" 
d="M491 673l-303 -673h-78l305 673h-352v67h428v-67z" />
    <glyph glyph-name="eight" unicode="8" horiz-adv-x="554" 
d="M385 413c84 -44 128 -112 128 -198c0 -125 -106 -228 -235 -228c-130 0 -237 103 -237 228c0 88 47 161 127 198c-59 41 -87 89 -87 150c0 106 86 190 196 190c109 0 196 -85 196 -192c0 -62 -31 -114 -88 -148zM278 686c-68 0 -123 -54 -123 -121
c0 -66 56 -121 123 -121c66 0 121 54 121 119c0 68 -54 123 -121 123zM277 375c-89 0 -162 -72 -162 -159c0 -92 71 -162 163 -162c89 0 161 72 161 160c0 89 -72 161 -162 161z" />
    <glyph glyph-name="nine" unicode="9" horiz-adv-x="554" 
d="M344 251l-2 1c-22 -11 -43 -16 -71 -16c-139 0 -247 112 -247 257c0 147 110 259 254 259c145 0 252 -111 252 -261c0 -69 -19 -115 -89 -219l-184 -272h-84zM277 685c-102 0 -179 -82 -179 -191c0 -108 78 -191 179 -191c100 0 179 84 179 191c0 108 -78 191 -179 191z
" />
    <glyph glyph-name="colon" unicode=":" horiz-adv-x="277" 
d="M176 421h-74v126h74v-126zM176 0h-74v126h74v-126z" />
    <glyph glyph-name="semicolon" unicode=";" horiz-adv-x="277" 
d="M176 421h-74v126h74v-126zM176 126l-88 -193h-74l88 193h74z" />
    <glyph glyph-name="less" unicode="&#x3c;" horiz-adv-x="606" 
d="M554 -8l-508 230v62l508 230v-68l-425 -193l425 -193v-68z" />
    <glyph glyph-name="equal" unicode="=" horiz-adv-x="606" 
d="M555 320h-504v68h504v-68zM555 118h-504v68h504v-68z" />
    <glyph glyph-name="greater" unicode="&#x3e;" horiz-adv-x="606" 
d="M560 222l-508 -230v68l425 193l-425 193v68l508 -230v-62z" />
    <glyph glyph-name="question" unicode="?" horiz-adv-x="591" 
d="M64 508v19c0 123 106 225 236 225c127 0 226 -96 226 -220c0 -64 -21 -102 -93 -172c-76 -76 -87 -96 -96 -167h-74v4c0 74 27 125 107 200c63 59 82 92 82 139c0 78 -73 146 -157 146c-60 0 -117 -35 -143 -88c-11 -23 -14 -41 -14 -86h-74zM337 0h-74v126h74v-126z" />
    <glyph glyph-name="at" unicode="@" horiz-adv-x="867" 
d="M701 93l15 -51c-85 -38 -163 -55 -253 -55c-239 0 -398 150 -398 376s165 390 394 390c205 0 344 -134 344 -329c0 -144 -83 -268 -180 -268c-48 0 -77 28 -81 80h-2c-36 -55 -78 -80 -136 -80c-93 0 -158 74 -158 181c0 57 20 115 55 157c37 45 84 67 141 67
c64 0 102 -27 123 -88h2l14 74h60l-42 -236c-1 -7 -1 -8 -4 -19c-3 -18 -5 -29 -5 -38c0 -26 14 -42 35 -42c64 0 118 97 118 211c0 164 -116 274 -290 274c-190 0 -328 -138 -328 -330c0 -198 133 -324 341 -324c83 0 156 15 235 50zM445 506c-78 0 -139 -74 -139 -168
c0 -77 41 -126 106 -126c52 0 92 30 115 88c11 27 18 63 18 91c0 69 -40 115 -100 115z" />
    <glyph glyph-name="A" unicode="A" horiz-adv-x="740" 
d="M729 0h-81l-107 249h-344l-108 -249h-77l316 740h83zM512 316l-142 340l-145 -340h287z" />
    <glyph glyph-name="B" unicode="B" horiz-adv-x="574" 
d="M74 740h186c149 0 242 -76 242 -197c0 -62 -21 -101 -81 -149c81 -37 123 -99 123 -182c0 -73 -32 -136 -85 -171c-46 -30 -94 -41 -181 -41h-204v740zM148 421h93c69 0 97 5 127 21c37 20 60 60 60 105c0 30 -10 57 -31 80c-30 33 -72 46 -150 46h-99v-252zM148 67h104
c75 0 107 4 140 19c48 21 78 69 78 125c0 55 -34 104 -87 126c-33 14 -62 17 -144 17h-91v-287z" />
    <glyph glyph-name="C" unicode="C" horiz-adv-x="813" 
d="M688 194h83c-39 -65 -69 -99 -120 -136c-66 -46 -142 -71 -222 -71c-214 0 -386 171 -386 383c0 214 170 382 385 382c119 0 226 -51 303 -144c17 -20 27 -36 37 -58h-83c-64 89 -152 135 -256 135c-168 0 -312 -146 -312 -316c0 -169 145 -315 313 -315
c100 0 183 45 258 140z" />
    <glyph glyph-name="D" unicode="D" horiz-adv-x="744" 
d="M74 740h216c119 0 219 -34 288 -97c77 -70 121 -171 121 -274c0 -123 -66 -244 -168 -308c-61 -38 -150 -61 -241 -61h-216v740zM148 67h123c114 0 179 16 238 60c72 53 116 145 116 244s-47 190 -126 245c-60 42 -126 57 -244 57h-107v-606z" />
    <glyph glyph-name="E" unicode="E" 
d="M475 0h-405v740h405v-67h-331v-266h320v-67h-320v-273h331v-67z" />
    <glyph glyph-name="F" unicode="F" horiz-adv-x="485" 
d="M444 673h-300v-268h289v-67h-289v-338h-74v740h374v-67z" />
    <glyph glyph-name="G" unicode="G" horiz-adv-x="872" 
d="M326 340h502c-11 -83 -24 -122 -60 -176c-72 -110 -197 -177 -331 -177c-216 0 -397 174 -397 383c0 211 178 383 396 383c149 0 298 -90 350 -210h-86c-29 45 -52 69 -94 95c-51 31 -111 48 -170 48c-177 0 -322 -143 -322 -317s145 -315 324 -315c70 0 141 25 198 69
c54 41 81 81 103 150h-413v67z" />
    <glyph glyph-name="H" unicode="H" horiz-adv-x="683" 
d="M607 0h-74v347h-383v-347h-74v740h74v-326h383v326h74v-740z" />
    <glyph glyph-name="I" unicode="I" horiz-adv-x="226" 
d="M150 0h-74v740h74v-740z" />
    <glyph glyph-name="J" unicode="J" horiz-adv-x="482" 
d="M402 740v-505c0 -70 -3 -100 -15 -132c-27 -71 -98 -116 -181 -116c-54 0 -104 19 -140 53c-37 35 -54 73 -60 136h73c9 -77 57 -122 130 -122c85 0 119 51 119 178v508h74z" />
    <glyph glyph-name="K" unicode="K" horiz-adv-x="591" 
d="M591 0h-93l-247 321l-96 -118v-203h-74v740h74v-425h2l339 425h95l-293 -361z" />
    <glyph glyph-name="L" unicode="L" horiz-adv-x="462" 
d="M462 0h-380v740h74v-673h306v-67z" />
    <glyph glyph-name="M" unicode="M" horiz-adv-x="919" 
d="M843 0h-74v659h-2l-277 -659h-63l-275 659h-2v-659h-74v740h114l269 -630l270 630h114v-740z" />
    <glyph glyph-name="N" unicode="N" horiz-adv-x="740" 
d="M664 0h-74l-439 651h-2v-651h-74v740h100l413 -614h2v614h74v-740z" />
    <glyph glyph-name="O" unicode="O" horiz-adv-x="869" 
d="M434 753c214 0 392 -172 392 -380c0 -213 -175 -386 -392 -386c-213 0 -391 173 -391 380c0 213 175 386 391 386zM434 686c-174 0 -317 -144 -317 -319c0 -171 144 -313 317 -313s318 142 318 313c0 176 -143 319 -318 319z" />
    <glyph glyph-name="P" unicode="P" horiz-adv-x="592" 
d="M75 740h206c91 0 145 -12 191 -43c58 -39 92 -105 92 -178s-34 -139 -92 -178c-46 -31 -100 -43 -191 -43h-132v-298h-74v740zM149 365h128c73 0 93 3 127 19c55 26 86 74 86 135s-31 109 -86 135c-33 16 -55 19 -127 19h-128v-308z" />
    <glyph glyph-name="Q" unicode="Q" horiz-adv-x="871" 
d="M825 54v-67c-72 0 -111 15 -165 64c-70 -44 -140 -64 -221 -64c-222 0 -399 170 -399 381c0 217 174 385 399 385s398 -168 398 -386c0 -106 -38 -191 -122 -273c35 -30 66 -41 110 -40zM661 142c70 72 102 142 102 225c0 177 -144 319 -324 319
c-182 0 -325 -142 -325 -323c0 -30 4 -53 13 -84c57 18 101 25 157 25c141 0 230 -38 377 -162zM603 102c-9 7 -15 12 -22 17c-51 41 -70 54 -95 67c-63 33 -139 51 -216 51c-47 0 -74 -5 -113 -21c52 -98 164 -162 283 -162c64 0 113 15 163 48z" />
    <glyph glyph-name="R" unicode="R" horiz-adv-x="607" 
d="M70 740h188c79 0 131 -7 172 -24c86 -35 142 -119 142 -214c0 -60 -21 -113 -60 -154c-41 -43 -86 -64 -160 -72l209 -276h-93l-251 335c96 0 106 0 136 6c87 15 145 80 145 161c0 60 -31 115 -81 143c-36 20 -76 28 -144 28h-129v-673h-74v740z" />
    <glyph glyph-name="S" unicode="S" horiz-adv-x="498" 
d="M455 552h-74c-2 42 -13 69 -39 95c-25 25 -58 39 -93 39c-74 0 -133 -56 -133 -128c0 -39 18 -74 47 -91s59 -29 117 -45c129 -38 193 -109 193 -217c0 -123 -98 -218 -225 -218c-63 0 -122 22 -162 62c-42 41 -59 84 -64 158h74c5 -54 17 -85 46 -113
c27 -26 64 -40 106 -40c86 0 151 64 151 148c0 78 -44 120 -165 157c-68 21 -98 33 -125 53c-46 33 -67 78 -67 141c0 114 89 200 208 200c56 0 109 -21 147 -59s55 -78 58 -142z" />
    <glyph glyph-name="T" unicode="T" horiz-adv-x="426" 
d="M419 673h-169v-673h-74v673h-170v67h413v-67z" />
    <glyph glyph-name="U" unicode="U" horiz-adv-x="655" 
d="M579 740v-461c0 -61 -10 -114 -28 -154c-40 -87 -123 -138 -224 -138s-184 51 -224 138c-18 40 -28 93 -28 154v461h74v-461c0 -52 8 -97 21 -127c30 -62 86 -98 157 -98c68 0 122 33 153 91c16 32 25 77 25 134v461h74z" />
    <glyph glyph-name="V" unicode="V" horiz-adv-x="702" 
d="M693 740l-307 -740h-73l-305 740h82l261 -648l262 648h80z" />
    <glyph glyph-name="W" unicode="W" horiz-adv-x="960" 
d="M950 740l-212 -740h-94l-163 607h-2l-162 -607h-95l-211 740h76l181 -645h2l176 645h69l177 -644h2l181 644h75z" />
    <glyph glyph-name="X" unicode="X" horiz-adv-x="609" 
d="M602 0h-88l-208 316l-211 -316h-87l251 378l-237 362h87l197 -296l195 296h86l-238 -362z" />
    <glyph glyph-name="Y" unicode="Y" horiz-adv-x="592" 
d="M592 740l-260 -493v-247h-74v247l-257 493h82l211 -415l217 415h81z" />
    <glyph glyph-name="Z" unicode="Z" horiz-adv-x="480" 
d="M470 0h-458v67l364 606h-353v67h436v-67l-363 -606h374v-67z" />
    <glyph glyph-name="bracketleft" unicode="[" horiz-adv-x="351" 
d="M337 -104v-75c-67 21 -101 42 -137 83c-44 50 -67 117 -67 193v378c0 113 48 199 142 253c21 12 40 19 62 25v-75c-92 -43 -130 -102 -130 -203v-365c0 -114 32 -167 130 -214z" />
    <glyph glyph-name="backslash" unicode="\" horiz-adv-x="605" 
d="M477 -100h-76l-283 840h79z" />
    <glyph glyph-name="bracketright" unicode="]" horiz-adv-x="351" 
d="M14 678v75c24 -6 45 -15 67 -29c91 -54 137 -138 137 -249v-378c0 -85 -29 -157 -82 -209c-34 -32 -63 -48 -122 -67v75c98 47 130 100 130 214v365c0 101 -38 160 -130 203z" />
    <glyph glyph-name="asciicircum" unicode="^" horiz-adv-x="606" 
d="M553 307h-70l-181 360l-178 -360h-71l218 433h64z" />
    <glyph glyph-name="underscore" unicode="_" horiz-adv-x="500" 
d="M500 -125h-500v50h500v-50z" />
    <glyph glyph-name="quoteleft" unicode="&#x2018;" horiz-adv-x="351" 
d="M257 547h-74l-88 193h74z" />
    <glyph glyph-name="a" unicode="a" horiz-adv-x="683" 
d="M621 0h-70v96h-2c-53 -73 -123 -109 -214 -109c-165 0 -293 126 -293 288c0 160 129 286 294 286c93 0 162 -36 213 -110h2v96h70v-547zM335 498c-128 0 -223 -97 -223 -226c0 -127 95 -222 223 -222c122 0 220 98 220 222c0 127 -97 226 -220 226z" />
    <glyph glyph-name="b" unicode="b" horiz-adv-x="682" 
d="M138 451h2c56 74 125 110 214 110c164 0 293 -126 293 -286c0 -162 -128 -288 -292 -288c-90 0 -161 36 -215 109h-2v-96h-70v740h70v-289zM354 498c-123 0 -220 -99 -220 -225c0 -125 97 -223 220 -223c127 0 223 95 223 221c0 131 -94 227 -223 227z" />
    <glyph glyph-name="c" unicode="c" horiz-adv-x="647" 
d="M530 161h77c-66 -120 -149 -174 -270 -174c-166 0 -296 125 -296 286c0 159 131 288 295 288c73 0 144 -26 197 -74c34 -30 51 -54 74 -105h-77c-44 77 -110 116 -194 116c-126 0 -225 -98 -225 -223c0 -127 99 -225 227 -225c85 0 149 37 192 111z" />
    <glyph glyph-name="d" unicode="d" horiz-adv-x="685" 
d="M618 0h-70v96h-2c-53 -72 -125 -109 -215 -109c-164 0 -292 126 -292 288c0 160 129 286 293 286c89 0 160 -36 214 -108h2v287h70v-740zM332 498c-128 0 -223 -97 -223 -226c0 -127 95 -222 223 -222c122 0 220 98 220 222c0 127 -97 226 -220 226z" />
    <glyph glyph-name="e" unicode="e" horiz-adv-x="650" 
d="M518 179h74c-24 -59 -46 -91 -87 -125c-51 -43 -116 -67 -182 -67c-157 0 -285 128 -285 286s128 288 284 288s287 -132 287 -290v-13c-1 -5 -1 -5 -1 -7v-3h-498c7 -61 25 -99 66 -138c41 -38 94 -60 147 -60s105 19 143 54c25 21 37 39 52 75zM110 311h427
c-14 64 -35 102 -76 137c-38 32 -87 50 -138 50s-100 -18 -138 -51c-41 -35 -62 -73 -75 -136z" />
    <glyph glyph-name="f" unicode="f" horiz-adv-x="314" 
d="M314 484h-140v-484h-70v484h-85v63h85c0 142 63 203 210 206v-65c-103 -3 -140 -39 -140 -137v-4h140v-63z" />
    <glyph glyph-name="g" unicode="g" horiz-adv-x="673" 
d="M606 547v-461c0 -90 -11 -140 -41 -187c-45 -70 -132 -114 -229 -114c-81 0 -155 29 -207 81c-34 33 -50 61 -70 120h74c41 -93 108 -138 205 -138c121 0 198 80 198 204v48h-2c-44 -74 -117 -113 -212 -113c-158 0 -285 126 -285 284c0 161 128 290 286 290
c90 0 159 -37 211 -112h2v98h70zM323 498c-120 0 -216 -100 -216 -225c0 -124 96 -223 216 -223c118 0 217 101 217 222c0 125 -97 226 -217 226z" />
    <glyph glyph-name="h" unicode="h" horiz-adv-x="610" 
d="M543 0h-70v301c0 64 -19 118 -52 150c-30 29 -75 47 -119 47c-103 0 -170 -76 -170 -192v-306h-70v740h70v-263h2c40 56 96 84 171 84c145 0 238 -101 238 -260v-301z" />
    <glyph glyph-name="i" unicode="i" horiz-adv-x="200" 
d="M135 614h-70v126h70v-126zM135 0h-70v547h70v-547z" />
    <glyph glyph-name="j" unicode="j" horiz-adv-x="203" 
d="M137 614h-70v126h70v-126zM137 547v-521c0 -90 -15 -134 -60 -174c-35 -32 -65 -42 -121 -44v69c83 7 111 47 111 161v509h70z" />
    <glyph glyph-name="k" unicode="k" horiz-adv-x="502" 
d="M498 0h-90l-180 216l-88 -112v-104h-70v740h70v-527h2l255 334h90l-216 -276z" />
    <glyph glyph-name="l" unicode="l" horiz-adv-x="200" 
d="M135 0h-70v740h70v-740z" />
    <glyph glyph-name="m" unicode="m" horiz-adv-x="938" 
d="M872 0h-70v317c0 115 -55 181 -149 181s-149 -66 -149 -181v-317h-70v317c0 115 -55 181 -149 181s-149 -66 -149 -181v-317h-70v547h70v-63c36 52 84 77 150 77c80 0 140 -35 183 -105c49 73 105 105 185 105c131 0 218 -94 218 -236v-325z" />
    <glyph glyph-name="n" unicode="n" horiz-adv-x="610" 
d="M546 0h-70v301c0 64 -19 118 -52 150c-30 29 -75 47 -119 47c-103 0 -170 -76 -170 -192v-306h-70v547h70v-70h2c40 56 96 84 171 84c145 0 238 -101 238 -260v-301z" />
    <glyph glyph-name="o" unicode="o" horiz-adv-x="655" 
d="M327 561c155 0 287 -131 287 -285c0 -159 -129 -289 -287 -289c-155 0 -285 129 -285 284c0 159 128 290 285 290zM328 498c-119 0 -216 -101 -216 -226c0 -123 97 -222 216 -222c121 0 216 99 216 224c0 124 -97 224 -216 224z" />
    <glyph glyph-name="p" unicode="p" horiz-adv-x="682" 
d="M134 451h2c57 75 125 110 214 110c164 0 293 -126 293 -286c0 -162 -128 -288 -292 -288c-90 0 -161 36 -215 109h-2v-288h-70v739h70v-96zM350 498c-123 0 -220 -99 -220 -225c0 -125 97 -223 220 -223c127 0 223 95 223 221c0 131 -94 227 -223 227z" />
    <glyph glyph-name="q" unicode="q" horiz-adv-x="682" 
d="M616 -192h-70v288h-2c-52 -73 -122 -109 -214 -109c-165 0 -293 126 -293 288c0 160 129 286 293 286c92 0 162 -36 214 -110h2v96h70v-739zM330 498c-128 0 -223 -97 -223 -226c0 -127 95 -222 223 -222c122 0 220 98 220 222c0 127 -97 226 -220 226z" />
    <glyph glyph-name="r" unicode="r" horiz-adv-x="301" 
d="M291 561v-74c-61 -8 -94 -24 -123 -60c-22 -28 -33 -64 -33 -107v-320h-70v547h70v-79h2c27 61 70 87 154 93z" />
    <glyph glyph-name="s" unicode="s" horiz-adv-x="388" 
d="M345 412h-70c-6 55 -36 86 -82 86c-47 0 -83 -35 -83 -81c0 -44 26 -67 104 -95c111 -38 150 -83 150 -168c0 -102 -67 -167 -170 -167c-100 0 -170 70 -170 169v6h70c3 -75 36 -112 100 -112c61 0 100 38 100 96c0 55 -29 83 -116 114c-101 36 -138 77 -138 150
c0 87 66 151 155 151c42 0 79 -15 107 -43s40 -58 43 -106z" />
    <glyph glyph-name="t" unicode="t" horiz-adv-x="339" 
d="M330 484h-131v-484h-70v484h-115v63h115v193h70v-193h131v-63z" />
    <glyph glyph-name="u" unicode="u" horiz-adv-x="608" 
d="M541 0h-66v85h-2c-35 -65 -94 -98 -177 -98c-76 0 -145 30 -186 82c-33 41 -48 98 -48 176v302h70v-301c0 -131 55 -196 166 -196c48 0 84 13 116 44c41 39 57 85 57 164v289h70v-547z" />
    <glyph glyph-name="v" unicode="v" horiz-adv-x="554" 
d="M546 547l-231 -547h-77l-231 547h75l193 -460l196 460h75z" />
    <glyph glyph-name="w" unicode="w" horiz-adv-x="831" 
d="M820 547l-209 -547h-79l-116 364h-2l-114 -364h-79l-208 547h73l172 -458h2l125 392h61l126 -392h2l174 458h72z" />
    <glyph glyph-name="x" unicode="x" horiz-adv-x="480" 
d="M468 0h-83l-145 219l-145 -219h-83l187 278l-187 269h84l144 -211l143 211h85l-187 -269z" />
    <glyph glyph-name="y" unicode="y" 
d="M523 547l-317 -739h-73l95 210l-213 529h74l174 -436l186 436h74z" />
    <glyph glyph-name="z" unicode="z" horiz-adv-x="425" 
d="M415 0h-405v61l303 423h-293v63h377v-63l-300 -421h318v-63z" />
    <glyph glyph-name="braceleft" unicode="{" horiz-adv-x="351" 
d="M331 -189h-66c-63 0 -106 53 -106 131v182c0 36 -13 71 -33 93c-16 17 -30 23 -56 26v64c25 3 38 9 54 25c21 23 35 59 35 95v182c0 78 43 131 106 131h66v-60h-50c-32 0 -48 -29 -48 -86v-183c0 -66 -33 -116 -87 -134v-3c52 -10 87 -63 87 -134v-183
c0 -57 16 -86 48 -86h50v-60z" />
    <glyph glyph-name="bar" unicode="|" horiz-adv-x="672" 
d="M373 -222h-74v1000h74v-1000z" />
    <glyph glyph-name="braceright" unicode="}" horiz-adv-x="351" 
d="M281 307v-64c-26 -3 -40 -9 -56 -26c-20 -22 -33 -57 -33 -93v-182c0 -78 -43 -131 -106 -131h-66v60h50c32 0 48 29 48 86v183c0 71 35 124 87 134v3c-54 18 -87 68 -87 134v183c0 57 -16 86 -48 86h-50v60h66c63 0 106 -53 106 -131v-182c0 -36 14 -72 35 -95
c16 -16 29 -22 54 -25z" />
    <glyph glyph-name="asciitilde" unicode="~" horiz-adv-x="606" 
d="M498 319l36 -50c-47 -66 -77 -86 -125 -86c-30 0 -56 9 -108 36c-53 28 -78 36 -109 36c-34 0 -59 -22 -84 -76l-36 50c32 60 70 86 124 86c34 0 66 -10 133 -43c49 -23 66 -29 83 -29c28 0 47 17 86 76z" />
    <glyph glyph-name="exclamdown" unicode="&#xa1;" horiz-adv-x="295" 
d="M184 421h-74v126h74v-126zM184 -192h-74v547h74v-547z" />
    <glyph glyph-name="cent" unicode="&#xa2;" horiz-adv-x="554" 
d="M510 463h-81c-34 58 -78 84 -142 84c-91 0 -165 -74 -165 -164s74 -164 165 -164c59 0 101 22 134 72h83c-32 -75 -100 -125 -184 -136v-93h-74v94c-66 13 -105 35 -143 77c-35 42 -55 94 -55 150s20 108 55 150c38 42 77 64 143 77v97h74v-96c87 -11 159 -67 190 -148z
" />
    <glyph glyph-name="sterling" unicode="&#xa3;" horiz-adv-x="554" 
d="M469 268h74c7 -22 9 -37 9 -56c0 -28 -6 -58 -17 -84c-35 -84 -116 -128 -233 -128h-273v63h148c24 38 35 76 35 115c0 51 -16 82 -72 139c-14 14 -16 17 -30 32h-106v63h59c-16 39 -22 65 -22 99c0 138 101 242 235 242c60 0 116 -21 160 -60c44 -40 65 -82 77 -152h-72
c-20 94 -81 149 -164 149c-96 0 -162 -74 -162 -182c0 -39 7 -61 29 -96h285v-63h-225v-2c56 -52 82 -105 82 -167c0 -35 -5 -55 -30 -117h43c113 0 179 56 179 152c0 15 0 16 -9 53z" />
    <glyph glyph-name="fraction" unicode="&#x2044;" horiz-adv-x="166" 
d="M280 740l-333 -740h-60l333 740h60z" />
    <glyph glyph-name="yen" unicode="&#xa5;" horiz-adv-x="554" 
d="M550 740l-181 -303h152v-63h-190l-17 -26v-58h207v-64h-207v-226h-74v227h-207v63h207v58l-17 26h-190v63h152l-181 303h80l194 -325l192 325h80z" />
    <glyph glyph-name="florin" unicode="&#x192;" horiz-adv-x="554" 
d="M518 816l-11 -67c-4 1 -7 1 -14 1c-45 0 -77 -19 -98 -59c-12 -23 -21 -52 -31 -107h112l-12 -67h-112l-81 -431l-2 -10l-2 -10c-17 -94 -31 -127 -68 -163s-92 -56 -154 -56c-22 0 -38 2 -57 7l13 64c18 -4 33 -6 50 -6c48 0 83 15 106 46c19 25 31 61 45 135l81 424
h-114l13 67h112c16 92 34 136 69 173c37 39 86 61 134 61c5 0 8 0 12 -1z" />
    <glyph glyph-name="section" unicode="&#xa7;" horiz-adv-x="615" 
d="M482 606h-74c-3 52 -37 80 -96 80c-63 0 -104 -38 -104 -97c0 -38 17 -63 57 -84c18 -9 73 -37 129 -64c56 -28 75 -40 95 -60c27 -26 40 -59 40 -97c0 -52 -30 -102 -81 -138c37 -32 52 -67 52 -115c0 -98 -82 -172 -190 -172c-53 0 -103 19 -139 54
c-39 39 -56 81 -62 151h74c9 -91 52 -138 128 -138c66 0 115 44 115 103c0 44 -18 68 -73 99c-9 5 -22 12 -133 69c-59 30 -68 35 -85 49c-34 28 -50 61 -50 102c0 54 24 93 89 143c-27 30 -40 63 -40 101c0 93 77 161 180 161c57 0 106 -19 136 -54c22 -25 30 -47 32 -93z
M211 275l188 -94c35 23 56 59 56 98c0 36 -22 67 -62 87l-175 87c-38 -24 -59 -60 -59 -101c0 -34 17 -60 52 -77z" />
    <glyph glyph-name="currency" unicode="&#xa4;" horiz-adv-x="576" 
d="M548 124l-41 -41l-78 78c-47 -34 -90 -49 -141 -49s-96 16 -141 49l-79 -78l-41 41l80 79c-34 45 -50 88 -50 139c0 53 16 98 50 140l-81 80l41 41l81 -81c45 34 89 50 140 50c50 0 95 -16 139 -49l80 80l41 -41l-79 -80c34 -45 50 -89 50 -140c0 -50 -16 -94 -51 -139z
M288 501c-88 0 -160 -72 -160 -160c0 -85 73 -157 160 -157c86 0 159 72 159 157c0 88 -72 160 -159 160z" />
    <glyph glyph-name="quotesingle" unicode="'" horiz-adv-x="198" 
d="M140 740l-12 -296h-57l-12 296h81z" />
    <glyph glyph-name="quotedblleft" unicode="&#x201c;" horiz-adv-x="502" 
d="M406 547h-74l-87 193h73zM259 547h-74l-88 193h74z" />
    <glyph glyph-name="guillemotleft" unicode="&#xab;" horiz-adv-x="425" 
d="M386 114l-59 -33l-113 201l113 199l59 -31l-95 -168zM212 114l-59 -33l-113 201l113 199l59 -31l-94 -168z" />
    <glyph glyph-name="guilsinglleft" unicode="&#x2039;" horiz-adv-x="251" 
d="M212 114l-59 -33l-113 201l113 199l59 -31l-94 -168z" />
    <glyph glyph-name="guilsinglright" unicode="&#x203a;" horiz-adv-x="251" 
d="M211 282l-114 -201l-58 33l94 168l-94 168l58 31z" />
    <glyph glyph-name="endash" unicode="&#x2013;" horiz-adv-x="500" 
d="M465 248h-430v67h430v-67z" />
    <glyph glyph-name="dagger" unicode="&#x2020;" horiz-adv-x="553" 
d="M493 472h-180v-605h-74v605h-180v67h180v201h74v-201h180v-67z" />
    <glyph glyph-name="daggerdbl" unicode="&#x2021;" horiz-adv-x="553" 
d="M493 68h-180v-201h-74v201h-180v67h180v337h-180v67h180v201h74v-201h180v-67h-180v-337h180v-67z" />
    <glyph glyph-name="periodcentered" unicode="&#xb7;" horiz-adv-x="277" 
d="M176 190h-74v126h74v-126z" />
    <glyph glyph-name="paragraph" unicode="&#xb6;" horiz-adv-x="564" 
d="M551 684h-64v-794h-62v794h-120v-794h-62v458h-17c-119 0 -204 80 -204 193c0 70 34 134 88 167c34 21 90 32 155 32h286v-56z" />
    <glyph glyph-name="bullet" unicode="&#x2022;" horiz-adv-x="606" 
d="M305 530c84 0 153 -69 153 -153c0 -86 -68 -155 -153 -155s-155 69 -155 154s70 154 155 154z" />
    <glyph glyph-name="quotesinglbase" unicode="&#x201a;" horiz-adv-x="354" 
d="M251 126l-88 -194h-74l88 194h74z" />
    <glyph glyph-name="quotedblbase" unicode="&#x201e;" horiz-adv-x="502" 
d="M399 126l-88 -194h-74l88 194h74zM251 126l-88 -194h-74l88 194h74z" />
    <glyph glyph-name="quotedblright" unicode="&#x201d;" horiz-adv-x="484" 
d="M405 740l-88 -193h-74l88 193h74zM257 740l-87 -193h-74l88 193h73z" />
    <glyph glyph-name="guillemotright" unicode="&#xbb;" horiz-adv-x="425" 
d="M385 282l-114 -201l-58 33l94 168l-94 168l58 31zM211 282l-114 -201l-58 33l94 168l-94 168l58 31z" />
    <glyph glyph-name="ellipsis" unicode="&#x2026;" horiz-adv-x="1000" 
d="M870 0h-74v126h74v-126zM537 0h-74v126h74v-126zM204 0h-74v126h74v-126z" />
    <glyph glyph-name="perthousand" unicode="&#x2030;" horiz-adv-x="1174" 
d="M966 347c98 0 180 -81 180 -179c0 -100 -80 -181 -180 -181c-99 0 -180 81 -180 180s81 180 180 180zM205 753c98 0 180 -81 180 -179c0 -100 -80 -181 -180 -181c-99 0 -180 81 -180 180s81 180 180 180zM634 740l-424 -740h-68l424 740h68zM576 345
c99 0 181 -80 181 -178c0 -100 -81 -180 -181 -180s-181 80 -181 179s81 179 181 179zM967 289c-67 0 -121 -54 -121 -123s54 -123 121 -123s121 54 121 122c0 70 -53 124 -121 124zM206 695c-67 0 -121 -54 -121 -123s54 -123 121 -123s121 54 121 122
c0 70 -53 124 -121 124zM576 289c-67 0 -121 -54 -121 -123s54 -123 121 -123s121 54 121 122c0 70 -53 124 -121 124z" />
    <glyph glyph-name="questiondown" unicode="&#xbf;" horiz-adv-x="591" 
d="M328 421h-74v126h74v-126zM527 39v-19c0 -123 -106 -225 -236 -225c-127 0 -226 96 -226 220c0 64 20 102 93 172c76 76 87 96 96 168h74v-4c0 -74 -27 -125 -107 -200c-63 -60 -82 -92 -82 -139c0 -79 73 -147 157 -147c61 0 117 35 143 89c11 23 14 41 14 85h74z" />
    <glyph glyph-name="grave" unicode="`" horiz-adv-x="378" 
d="M300 657l-33 -58l-198 107l32 60z" />
    <glyph glyph-name="acute" unicode="&#xb4;" horiz-adv-x="375" 
d="M309 706l-198 -107l-33 58l199 109z" />
    <glyph glyph-name="circumflex" unicode="&#x2c6;" horiz-adv-x="502" 
d="M428 609h-89l-86 73l-88 -73h-91l145 125h66z" />
    <glyph glyph-name="tilde" unicode="&#x2dc;" horiz-adv-x="439" 
d="M356 709l36 -49c-37 -26 -69 -39 -99 -39c-23 0 -44 6 -81 23c-32 14 -46 18 -64 18c-22 0 -44 -10 -66 -30l-35 50c32 29 65 42 103 42c24 0 43 -5 80 -22c32 -15 46 -19 63 -19c16 0 31 6 55 21c4 3 4 3 8 5z" />
    <glyph glyph-name="macron" unicode="&#xaf;" horiz-adv-x="485" 
d="M411 629h-338v67h338v-67z" />
    <glyph glyph-name="breve" unicode="&#x2d8;" horiz-adv-x="453" 
d="M336 714h65c-30 -71 -84 -103 -175 -103s-144 32 -174 103h65c25 -31 60 -46 109 -46s85 15 110 46z" />
    <glyph glyph-name="dotaccent" unicode="&#x2d9;" horiz-adv-x="222" 
d="M148 619h-74v126h74v-126z" />
    <glyph glyph-name="dieresis" unicode="&#xa8;" horiz-adv-x="369" 
d="M295 619h-74v126h74v-126zM147 619h-74v126h74v-126z" />
    <glyph glyph-name="ring" unicode="&#x2da;" horiz-adv-x="332" 
d="M165 807c58 0 104 -46 104 -103c0 -58 -46 -104 -104 -104c-56 0 -103 47 -103 103c0 57 47 104 103 104zM165 755c-28 0 -51 -24 -51 -52s23 -51 51 -51c29 0 52 23 52 51c0 29 -23 52 -52 52z" />
    <glyph glyph-name="cedilla" unicode="&#xb8;" horiz-adv-x="324" 
d="M177 0l-28 -56c11 3 20 4 32 4c42 0 73 -36 73 -86c0 -49 -38 -84 -91 -84c-45 0 -74 27 -84 77l42 2c6 -26 23 -42 46 -42c28 0 46 21 46 52c0 30 -17 47 -48 47c-17 0 -27 -5 -40 -19l-36 21l46 87z" />
    <glyph glyph-name="hungarumlaut" unicode="&#x2dd;" horiz-adv-x="552" 
d="M486 730l-164 -135l-38 46l162 135zM311 730l-164 -135l-38 46l161 135z" />
    <glyph glyph-name="ogonek" unicode="&#x2db;" horiz-adv-x="302" 
d="M228 -138v-44c-20 -7 -33 -9 -50 -9c-62 0 -105 37 -105 90c0 40 19 67 72 101h52c-57 -44 -75 -67 -75 -98c0 -29 25 -50 59 -50c14 0 30 3 47 10z" />
    <glyph glyph-name="caron" unicode="&#x2c7;" horiz-adv-x="502" 
d="M423 734l-143 -125h-67l-145 125h92l86 -73l88 73h89z" />
    <glyph glyph-name="emdash" unicode="&#x2014;" horiz-adv-x="1000" 
d="M965 248h-930v67h930v-67z" />
    <glyph glyph-name="AE" unicode="&#xc6;" horiz-adv-x="992" 
d="M907 0h-391v250h-273l-174 -250h-89l515 740h412v-67h-317v-266h306v-67h-306v-273h317v-67zM516 317v328h-2l-224 -328h226z" />
    <glyph glyph-name="ordfeminine" unicode="&#xaa;" horiz-adv-x="434" 
d="M389 415h-60v52h-2c-26 -41 -65 -60 -119 -60c-98 0 -178 78 -178 174c0 95 80 172 178 172c54 0 92 -19 119 -60h2v52h60v-330zM210 697c-67 0 -120 -52 -120 -118c0 -64 54 -116 121 -116c68 0 121 51 121 117s-53 117 -122 117z" />
    <glyph glyph-name="Lslash" unicode="&#x141;" horiz-adv-x="517" 
d="M517 0h-380v313l-78 -56v77l78 56v350h74v-296l153 111v-77l-153 -111v-300h306v-67z" />
    <glyph glyph-name="Oslash" unicode="&#xd8;" horiz-adv-x="868" 
d="M785 779l-92 -123c90 -84 133 -176 133 -285c0 -212 -176 -384 -393 -384c-72 0 -132 17 -200 56l-94 -126l-55 40l93 126c-91 84 -134 178 -134 287c0 211 177 383 393 383c72 0 132 -17 202 -57l92 123zM651 600l-377 -502c56 -30 105 -44 161 -44
c173 0 317 143 317 315c0 88 -31 160 -101 231zM219 139l377 502c-56 32 -103 45 -161 45c-174 0 -318 -143 -318 -317c0 -89 33 -164 102 -230z" />
    <glyph glyph-name="OE" unicode="&#x152;" horiz-adv-x="1194" 
d="M1142 0h-391v151h-2c-32 -52 -59 -79 -109 -109c-60 -36 -131 -55 -203 -55c-221 0 -392 167 -392 383c0 213 171 383 386 383c79 0 164 -25 228 -67c41 -27 61 -47 90 -93h2v147h391v-67h-317v-267h306v-67h-306v-272h317v-67zM436 686c-177 0 -317 -138 -317 -313
c0 -178 138 -319 312 -319c178 0 321 141 321 314c0 178 -139 318 -316 318z" />
    <glyph glyph-name="ordmasculine" unicode="&#xba;" horiz-adv-x="404" 
d="M202 753c94 0 172 -78 172 -171c0 -97 -76 -175 -172 -175c-94 0 -172 77 -172 171c0 96 77 175 172 175zM203 697c-64 0 -113 -52 -113 -118s49 -116 113 -116s111 50 111 117c0 66 -49 117 -111 117z" />
    <glyph glyph-name="ae" unicode="&#xe6;" horiz-adv-x="1157" 
d="M615 446h2c22 37 41 55 76 76c41 25 91 39 139 39c153 0 282 -133 282 -291v-13c-1 -5 -1 -5 -1 -7v-3h-495c9 -64 29 -104 70 -141c40 -36 90 -56 143 -56c52 0 104 20 143 54c25 22 36 39 51 74h70c-21 -58 -42 -89 -83 -124c-51 -43 -117 -67 -181 -67
c-88 0 -164 39 -214 112h-2v-99h-70v99h-2c-55 -78 -121 -112 -216 -112c-122 0 -225 67 -270 176c-15 36 -23 74 -23 109s8 73 23 109c46 112 149 180 270 180c99 0 168 -37 216 -115h2v101h70v-101zM618 310h425c-13 64 -34 102 -75 138c-38 32 -86 50 -137 50
s-100 -18 -138 -51c-41 -35 -62 -74 -75 -137zM328 498c-124 0 -224 -102 -224 -227c0 -123 99 -221 223 -221s221 96 221 221c0 129 -95 227 -220 227z" />
    <glyph glyph-name="dotlessi" unicode="&#x131;" horiz-adv-x="200" 
d="M135 0h-70v547h70v-547z" />
    <glyph glyph-name="lslash" unicode="&#x142;" horiz-adv-x="300" 
d="M259 441l-76 -55v-386h-70v335l-70 -52v71l70 51v335h70v-284l76 55v-70z" />
    <glyph glyph-name="oslash" unicode="&#xf8;" horiz-adv-x="653" 
d="M597 573l-72 -94c59 -62 88 -129 88 -205c0 -157 -130 -287 -287 -287c-53 0 -99 13 -145 42l-71 -93l-54 38l72 95c-59 61 -87 126 -87 202c0 159 129 290 285 290c52 0 96 -13 144 -41l72 94zM485 426l-264 -345c35 -21 68 -31 107 -31c121 0 215 100 215 227
c0 59 -18 106 -58 149zM169 123l262 345c-36 21 -67 30 -105 30c-119 0 -215 -101 -215 -227c0 -57 18 -104 58 -148z" />
    <glyph glyph-name="oe" unicode="&#x153;" horiz-adv-x="1137" 
d="M1014 179h74c-22 -58 -44 -90 -85 -124c-52 -44 -117 -68 -183 -68c-106 0 -194 53 -252 151c-57 -99 -144 -151 -249 -151c-155 0 -285 129 -285 284c0 159 128 290 285 290c106 0 193 -53 251 -152c57 99 144 152 250 152c155 0 285 -133 285 -290v-13
c-1 -5 -1 -5 -1 -7v-3h-497c7 -61 26 -100 66 -138c41 -38 94 -60 147 -60c52 0 105 20 144 55c24 22 36 39 50 74zM609 311h425c-13 64 -34 102 -75 137c-38 32 -86 50 -137 50s-100 -18 -138 -51c-41 -36 -62 -73 -75 -136zM320 498c-119 0 -216 -101 -216 -226
c0 -122 97 -222 216 -222s217 100 217 220c0 127 -97 228 -217 228z" />
    <glyph glyph-name="germandbls" unicode="&#xdf;" horiz-adv-x="554" 
d="M61 0v481c0 89 7 130 29 169c34 62 106 103 180 103c118 0 203 -88 203 -210c0 -73 -26 -117 -88 -153c95 -36 140 -97 140 -190c0 -124 -87 -213 -208 -213c-87 0 -150 42 -184 122h-2v-109h-70zM131 203h51c7 -94 59 -153 135 -153c78 0 138 63 138 143
c0 45 -16 82 -46 108c-34 30 -76 41 -151 41h-34v67c121 3 179 49 179 142c0 80 -56 139 -134 139c-48 0 -90 -24 -113 -66c-19 -33 -25 -70 -25 -143v-278z" />
    <glyph glyph-name="onesuperior" unicode="&#xb9;" horiz-adv-x="214" 
d="M149 296h-60v390h-75v54h135v-444z" />
    <glyph glyph-name="logicalnot" unicode="&#xac;" horiz-adv-x="606" 
d="M555 109h-68v211h-436v68h504v-279z" />
    <glyph glyph-name="mu" unicode="&#xb5;" horiz-adv-x="608" 
d="M543 0h-66v85h-2c-35 -66 -94 -98 -179 -98c-75 0 -123 20 -162 69v-248h-70v739h70v-301c0 -130 56 -196 166 -196c49 0 84 13 116 44c41 40 57 85 57 164v289h70v-547z" />
    <glyph glyph-name="trademark" unicode="&#x2122;" horiz-adv-x="892" 
d="M816 296h-55v372h-2l-163 -372h-46l-162 371h-2v-371h-55v444h78l164 -365l164 365h79v-444zM274 693h-105v-397h-55v397h-105v47h265v-47z" />
    <glyph glyph-name="Eth" unicode="&#xd0;" horiz-adv-x="810" 
d="M134 740h212c199 0 339 -90 392 -251c14 -40 21 -82 21 -120c0 -45 -10 -95 -28 -141c-59 -148 -192 -228 -381 -228h-216v347h-74v67h74v326zM208 67h123c114 0 179 16 238 60c72 53 116 145 116 244s-47 190 -126 245c-60 42 -126 57 -244 57h-107v-259h210v-67h-210
v-280z" />
    <glyph glyph-name="onehalf" unicode="&#xbd;" horiz-adv-x="684" 
d="M149 296h-60v390h-75v54h135v-444zM465 740l-333 -740h-60l333 740h60zM358 290v5c0 94 59 156 148 156c83 0 147 -61 147 -139c0 -49 -20 -83 -82 -140l-129 -118h210v-54h-298v49l158 147c39 36 39 36 49 47c22 25 32 47 32 70c0 46 -40 84 -88 84
c-57 0 -85 -35 -87 -107h-60z" />
    <glyph glyph-name="plusminus" unicode="&#xb1;" horiz-adv-x="606" 
d="M555 272h-218v-178h-68v178h-218v68h218v178h68v-178h218v-68zM555 -24h-504v68h504v-68z" />
    <glyph glyph-name="Thorn" unicode="&#xde;" horiz-adv-x="592" 
d="M134 591h132c91 0 145 -12 191 -43c58 -39 92 -105 92 -178s-34 -139 -92 -178c-46 -31 -100 -43 -191 -43h-132v-149h-74v740h74v-149zM134 216h128c73 0 93 3 127 19c55 26 86 74 86 135s-31 109 -86 135c-33 16 -55 19 -127 19h-128v-308z" />
    <glyph glyph-name="onequarter" unicode="&#xbc;" horiz-adv-x="635" 
d="M149 296h-60v390h-75v54h135v-444zM465 740l-333 -740h-60l333 740h60zM603 78h-41v-78h-59v78h-225v49l219 317h65v-312h41v-54zM503 132v222h-2l-149 -222h151z" />
    <glyph glyph-name="divide" unicode="&#xf7;" horiz-adv-x="606" 
d="M340 393h-74v126h74v-126zM555 219h-504v68h504v-68zM340 -13h-74v126h74v-126z" />
    <glyph glyph-name="brokenbar" unicode="&#xa6;" horiz-adv-x="672" 
d="M373 353h-74v350h74v-350zM373 -147h-74v350h74v-350z" />
    <glyph glyph-name="degree" unicode="&#xb0;" horiz-adv-x="400" 
d="M200 709c80 0 144 -64 144 -143c0 -81 -63 -145 -144 -145c-80 0 -144 64 -144 144s64 144 144 144zM200 659c-53 0 -94 -41 -94 -94s41 -94 94 -94s94 41 94 93c0 54 -41 95 -94 95z" />
    <glyph glyph-name="thorn" unicode="&#xfe;" horiz-adv-x="682" 
d="M134 451h2c55 75 124 110 214 110c164 0 293 -126 293 -286c0 -162 -128 -288 -292 -288c-90 0 -161 36 -215 109h-2v-288h-70v932h70v-289zM350 498c-123 0 -220 -99 -220 -225c0 -125 97 -223 220 -223c127 0 223 95 223 221c0 131 -94 227 -223 227z" />
    <glyph glyph-name="threequarters" unicode="&#xbe;" horiz-adv-x="784" 
d="M114 618h-60c5 82 49 129 121 129c70 0 120 -49 120 -117c0 -34 -10 -54 -41 -80c48 -32 70 -67 70 -115c0 -83 -65 -146 -149 -146c-42 0 -80 14 -106 40c-29 29 -42 61 -45 116h60c3 -65 36 -102 92 -102c51 0 88 37 88 89c0 40 -29 74 -70 84c-13 3 -28 4 -57 4v54h24
c45 0 74 23 74 59s-25 60 -61 60c-37 0 -58 -27 -60 -75zM614 740l-333 -740h-60l333 740h60zM752 78h-41v-78h-59v78h-225v49l219 317h65v-312h41v-54zM652 132v222h-2l-149 -222h151z" />
    <glyph glyph-name="twosuperior" unicode="&#xb2;" horiz-adv-x="352" 
d="M26 586v5c0 94 59 156 148 156c83 0 147 -61 147 -139c0 -49 -20 -83 -82 -140l-129 -118h210v-54h-298v49l158 147c39 36 39 36 49 47c22 25 32 47 32 70c0 46 -40 84 -88 84c-57 0 -85 -35 -87 -107h-60z" />
    <glyph glyph-name="registered" unicode="&#xae;" horiz-adv-x="747" 
d="M374 752c209 0 381 -171 381 -379c0 -214 -170 -385 -381 -385c-212 0 -383 171 -383 382s171 382 383 382zM373 701c-182 0 -327 -147 -327 -331c0 -183 146 -331 327 -331c180 0 327 148 327 329c0 185 -145 333 -327 333zM554 148h-55c-9 15 -12 32 -13 70
c-2 95 -22 115 -112 115h-109v-185h-55v437h188c96 0 150 -43 150 -120c0 -55 -26 -89 -81 -105v-2c56 -16 73 -45 73 -124c1 -46 4 -69 14 -86zM265 383h116c73 0 112 28 112 79c0 49 -34 72 -108 72h-120v-151z" />
    <glyph glyph-name="minus" unicode="&#x2212;" horiz-adv-x="606" 
d="M555 219h-504v68h504v-68z" />
    <glyph glyph-name="eth" unicode="&#xf0;" horiz-adv-x="655" 
d="M525 716l-125 -49c78 -59 120 -102 156 -164c38 -64 58 -138 58 -213c0 -173 -123 -302 -286 -302c-159 0 -286 127 -286 287c0 157 125 283 282 283c56 0 96 -13 144 -46l2 2c-33 44 -80 85 -146 124l-155 -61l-50 39l145 55c-45 23 -81 38 -117 49l78 33
c35 -10 71 -26 119 -51l133 51zM325 495c-29 0 -58 -6 -87 -19c-80 -35 -126 -108 -126 -202c0 -125 94 -223 215 -223s217 100 217 226c0 124 -94 218 -219 218z" />
    <glyph glyph-name="multiply" unicode="&#xd7;" horiz-adv-x="606" 
d="M533 72l-48 -48l-181 182l-182 -182l-48 48l182 182l-181 180l48 48l181 -180l180 180l48 -48l-180 -180z" />
    <glyph glyph-name="threesuperior" unicode="&#xb3;" horiz-adv-x="348" 
d="M114 618h-60c5 82 49 129 121 129c70 0 120 -49 120 -117c0 -34 -10 -54 -41 -80c48 -32 70 -67 70 -115c0 -83 -65 -146 -149 -146c-42 0 -80 14 -106 40c-29 29 -42 61 -45 116h60c3 -65 36 -102 92 -102c51 0 88 37 88 89c0 40 -29 74 -70 84c-13 3 -28 4 -57 4v54h24
c45 0 74 23 74 59s-25 60 -61 60c-37 0 -58 -27 -60 -75z" />
    <glyph glyph-name="copyright" unicode="&#xa9;" horiz-adv-x="747" 
d="M374 752c209 0 381 -171 381 -379c0 -214 -170 -385 -381 -385c-212 0 -383 171 -383 382s171 382 383 382zM373 701c-182 0 -327 -147 -327 -331c0 -183 146 -331 327 -331c180 0 327 148 327 329c0 185 -145 333 -327 333zM516 295h55c-8 -47 -22 -73 -53 -101
c-37 -33 -87 -51 -141 -51c-125 0 -213 94 -213 228s88 228 213 228c54 0 104 -18 141 -51c31 -28 45 -54 53 -101h-55c-18 71 -59 101 -136 101c-99 0 -161 -68 -161 -177s62 -177 161 -177c77 0 118 30 136 101z" />
    <glyph glyph-name="Aacute" unicode="&#xc1;" horiz-adv-x="740" 
d="M729 0h-81l-107 249h-344l-108 -249h-77l316 740h83zM512 316l-142 340l-145 -340h287zM492 889l-198 -107l-33 58l199 109z" />
    <glyph glyph-name="Acircumflex" unicode="&#xc2;" horiz-adv-x="740" 
d="M729 0h-81l-107 249h-344l-108 -249h-77l316 740h83zM512 316l-142 340l-145 -340h287zM547 802h-89l-86 73l-88 -73h-91l145 125h66z" />
    <glyph glyph-name="Adieresis" unicode="&#xc4;" horiz-adv-x="740" 
d="M729 0h-81l-107 249h-344l-108 -249h-77l316 740h83zM512 316l-142 340l-145 -340h287zM481 802h-74v126h74v-126zM333 802h-74v126h74v-126z" />
    <glyph glyph-name="Agrave" unicode="&#xc0;" horiz-adv-x="740" 
d="M729 0h-81l-107 249h-344l-108 -249h-77l316 740h83zM512 316l-142 340l-145 -340h287zM481 840l-33 -58l-198 107l32 60z" />
    <glyph glyph-name="Aring" unicode="&#xc5;" horiz-adv-x="740" 
d="M729 0h-81l-107 249h-344l-108 -249h-77l316 740h83zM512 316l-142 340l-145 -340h287zM369 955c58 0 104 -46 104 -103c0 -58 -46 -104 -104 -104c-56 0 -103 47 -103 103c0 57 47 104 103 104zM369 903c-28 0 -51 -24 -51 -52s23 -51 51 -51c29 0 52 23 52 51
c0 29 -23 52 -52 52z" />
    <glyph glyph-name="Atilde" unicode="&#xc3;" horiz-adv-x="740" 
d="M729 0h-81l-107 249h-344l-108 -249h-77l316 740h83zM512 316l-142 340l-145 -340h287zM507 892l36 -49c-37 -26 -69 -39 -99 -39c-23 0 -44 6 -81 23c-32 14 -46 18 -64 18c-22 0 -44 -10 -66 -30l-35 50c32 29 65 42 103 42c24 0 43 -5 80 -22c32 -15 46 -19 63 -19
c16 0 31 6 55 21c4 3 4 3 8 5z" />
    <glyph glyph-name="Ccedilla" unicode="&#xc7;" horiz-adv-x="813" 
d="M414 -12l-21 -44c11 3 20 4 32 4c42 0 73 -36 73 -86c0 -49 -38 -84 -91 -84c-45 0 -74 27 -84 77l42 2c6 -26 23 -42 46 -42c28 0 46 21 46 52c0 30 -17 47 -48 47c-17 0 -27 -5 -40 -19l-36 21l40 76c-108 21 -174 56 -236 127c-61 69 -94 157 -94 250
c0 215 170 383 385 383c119 0 226 -51 303 -144c17 -20 27 -36 37 -58h-83c-64 89 -152 135 -256 135c-168 0 -312 -146 -312 -316c0 -169 145 -315 313 -315c100 0 183 45 258 140h83c-38 -65 -69 -99 -120 -136c-63 -44 -143 -71 -213 -71c-7 0 -7 0 -16 1h-8z" />
    <glyph glyph-name="Eacute" unicode="&#xc9;" 
d="M475 0h-405v740h405v-67h-331v-266h320v-67h-320v-273h331v-67zM390 889l-198 -107l-33 58l199 109z" />
    <glyph glyph-name="Ecircumflex" unicode="&#xca;" 
d="M475 0h-405v740h405v-67h-331v-266h320v-67h-320v-273h331v-67zM445 802h-89l-86 73l-88 -73h-91l145 125h66z" />
    <glyph glyph-name="Edieresis" unicode="&#xcb;" 
d="M475 0h-405v740h405v-67h-331v-266h320v-67h-320v-273h331v-67zM379 802h-74v126h74v-126zM231 802h-74v126h74v-126z" />
    <glyph glyph-name="Egrave" unicode="&#xc8;" 
d="M475 0h-405v740h405v-67h-331v-266h320v-67h-320v-273h331v-67zM379 840l-33 -58l-198 107l32 60z" />
    <glyph glyph-name="Iacute" unicode="&#xcd;" horiz-adv-x="226" 
d="M150 0h-74v740h74v-740zM274 889l-198 -107l-33 58l199 109z" />
    <glyph glyph-name="Icircumflex" unicode="&#xce;" horiz-adv-x="226" 
d="M150 0h-74v740h74v-740zM290 802h-89l-86 73l-88 -73h-91l145 125h66z" />
    <glyph glyph-name="Idieresis" unicode="&#xcf;" horiz-adv-x="226" 
d="M150 0h-74v740h74v-740zM224 802h-74v126h74v-126zM76 802h-74v126h74v-126z" />
    <glyph glyph-name="Igrave" unicode="&#xcc;" horiz-adv-x="226" 
d="M150 0h-74v740h74v-740zM184 840l-33 -58l-198 107l32 60z" />
    <glyph glyph-name="Ntilde" unicode="&#xd1;" horiz-adv-x="740" 
d="M664 0h-74l-439 651h-2v-651h-74v740h100l413 -614h2v614h74v-740zM507 892l36 -49c-37 -26 -69 -39 -99 -39c-23 0 -44 6 -81 23c-32 14 -46 18 -64 18c-22 0 -44 -10 -66 -30l-35 50c32 29 65 42 103 42c24 0 43 -5 80 -22c32 -15 46 -19 63 -19c16 0 31 6 55 21
c4 3 4 3 8 5z" />
    <glyph glyph-name="Oacute" unicode="&#xd3;" horiz-adv-x="869" 
d="M434 753c214 0 392 -172 392 -380c0 -213 -175 -386 -392 -386c-213 0 -391 173 -391 380c0 213 175 386 391 386zM434 686c-174 0 -317 -144 -317 -319c0 -171 144 -313 317 -313s318 142 318 313c0 176 -143 319 -318 319zM596 889l-198 -107l-33 58l199 109z" />
    <glyph glyph-name="Ocircumflex" unicode="&#xd4;" horiz-adv-x="869" 
d="M434 753c214 0 392 -172 392 -380c0 -213 -175 -386 -392 -386c-213 0 -391 173 -391 380c0 213 175 386 391 386zM434 686c-174 0 -317 -144 -317 -319c0 -171 144 -313 317 -313s318 142 318 313c0 176 -143 319 -318 319zM612 802h-89l-86 73l-88 -73h-91l145 125h66z
" />
    <glyph glyph-name="Odieresis" unicode="&#xd6;" horiz-adv-x="869" 
d="M434 753c214 0 392 -172 392 -380c0 -213 -175 -386 -392 -386c-213 0 -391 173 -391 380c0 213 175 386 391 386zM434 686c-174 0 -317 -144 -317 -319c0 -171 144 -313 317 -313s318 142 318 313c0 176 -143 319 -318 319zM545 802h-74v126h74v-126zM397 802h-74v126
h74v-126z" />
    <glyph glyph-name="Ograve" unicode="&#xd2;" horiz-adv-x="869" 
d="M434 753c214 0 392 -172 392 -380c0 -213 -175 -386 -392 -386c-213 0 -391 173 -391 380c0 213 175 386 391 386zM434 686c-174 0 -317 -144 -317 -319c0 -171 144 -313 317 -313s318 142 318 313c0 176 -143 319 -318 319zM546 840l-33 -58l-198 107l32 60z" />
    <glyph glyph-name="Otilde" unicode="&#xd5;" horiz-adv-x="869" 
d="M434 753c214 0 392 -172 392 -380c0 -213 -175 -386 -392 -386c-213 0 -391 173 -391 380c0 213 175 386 391 386zM434 686c-174 0 -317 -144 -317 -319c0 -171 144 -313 317 -313s318 142 318 313c0 176 -143 319 -318 319zM571 892l36 -49c-37 -26 -69 -39 -99 -39
c-23 0 -44 6 -81 23c-32 14 -46 18 -64 18c-22 0 -44 -10 -66 -30l-35 50c32 29 65 42 103 42c24 0 43 -5 80 -22c32 -15 46 -19 63 -19c16 0 31 6 55 21c4 3 4 3 8 5z" />
    <glyph glyph-name="Scaron" unicode="&#x160;" horiz-adv-x="498" 
d="M455 552h-74c-2 42 -13 69 -39 95c-25 25 -58 39 -93 39c-74 0 -133 -56 -133 -128c0 -39 18 -74 47 -91s59 -29 117 -45c129 -38 193 -109 193 -217c0 -123 -98 -218 -225 -218c-63 0 -122 22 -162 62c-42 41 -59 84 -64 158h74c5 -54 17 -85 46 -113
c27 -26 64 -40 106 -40c86 0 151 64 151 148c0 78 -44 120 -165 157c-68 21 -98 33 -125 53c-46 33 -67 78 -67 141c0 114 89 200 208 200c56 0 109 -21 147 -59s55 -78 58 -142zM421 927l-143 -125h-67l-145 125h92l86 -73l88 73h89z" />
    <glyph glyph-name="Uacute" unicode="&#xda;" horiz-adv-x="655" 
d="M579 740v-461c0 -61 -10 -114 -28 -154c-40 -87 -123 -138 -224 -138s-184 51 -224 138c-18 40 -28 93 -28 154v461h74v-461c0 -52 8 -97 21 -127c30 -62 86 -98 157 -98c68 0 122 33 153 91c16 32 25 77 25 134v461h74zM469 889l-198 -107l-33 58l199 109z" />
    <glyph glyph-name="Ucircumflex" unicode="&#xdb;" horiz-adv-x="655" 
d="M579 740v-461c0 -61 -10 -114 -28 -154c-40 -87 -123 -138 -224 -138s-184 51 -224 138c-18 40 -28 93 -28 154v461h74v-461c0 -52 8 -97 21 -127c30 -62 86 -98 157 -98c68 0 122 33 153 91c16 32 25 77 25 134v461h74zM505 802h-89l-86 73l-88 -73h-91l145 125h66z" />
    <glyph glyph-name="Udieresis" unicode="&#xdc;" horiz-adv-x="655" 
d="M579 740v-461c0 -61 -10 -114 -28 -154c-40 -87 -123 -138 -224 -138s-184 51 -224 138c-18 40 -28 93 -28 154v461h74v-461c0 -52 8 -97 21 -127c30 -62 86 -98 157 -98c68 0 122 33 153 91c16 32 25 77 25 134v461h74zM438 802h-74v126h74v-126zM290 802h-74v126h74
v-126z" />
    <glyph glyph-name="Ugrave" unicode="&#xd9;" horiz-adv-x="655" 
d="M579 740v-461c0 -61 -10 -114 -28 -154c-40 -87 -123 -138 -224 -138s-184 51 -224 138c-18 40 -28 93 -28 154v461h74v-461c0 -52 8 -97 21 -127c30 -62 86 -98 157 -98c68 0 122 33 153 91c16 32 25 77 25 134v461h74zM419 840l-33 -58l-198 107l32 60z" />
    <glyph glyph-name="Yacute" unicode="&#xdd;" horiz-adv-x="592" 
d="M592 740l-260 -493v-247h-74v247l-257 493h82l211 -415l217 415h81zM438 889l-198 -107l-33 58l199 109z" />
    <glyph glyph-name="Ydieresis" unicode="&#x178;" horiz-adv-x="592" 
d="M592 740l-260 -493v-247h-74v247l-257 493h82l211 -415l217 415h81zM407 802h-74v126h74v-126zM259 802h-74v126h74v-126z" />
    <glyph glyph-name="Zcaron" unicode="&#x17d;" horiz-adv-x="480" 
d="M470 0h-458v67l364 606h-353v67h436v-67l-363 -606h374v-67zM412 927l-143 -125h-67l-145 125h92l86 -73l88 73h89z" />
    <glyph glyph-name="aacute" unicode="&#xe1;" horiz-adv-x="683" 
d="M621 0h-70v96h-2c-53 -73 -123 -109 -214 -109c-165 0 -293 126 -293 288c0 160 129 286 294 286c93 0 162 -36 213 -110h2v96h70v-547zM335 498c-128 0 -223 -97 -223 -226c0 -127 95 -222 223 -222c122 0 220 98 220 222c0 127 -97 226 -220 226zM463 726l-198 -107
l-33 58l199 109z" />
    <glyph glyph-name="acircumflex" unicode="&#xe2;" horiz-adv-x="683" 
d="M621 0h-70v96h-2c-53 -73 -123 -109 -214 -109c-165 0 -293 126 -293 288c0 160 129 286 294 286c93 0 162 -36 213 -110h2v96h70v-547zM335 498c-128 0 -223 -97 -223 -226c0 -127 95 -222 223 -222c122 0 220 98 220 222c0 127 -97 226 -220 226zM519 639h-89l-86 73
l-88 -73h-91l145 125h66z" />
    <glyph glyph-name="adieresis" unicode="&#xe4;" horiz-adv-x="683" 
d="M621 0h-70v96h-2c-53 -73 -123 -109 -214 -109c-165 0 -293 126 -293 288c0 160 129 286 294 286c93 0 162 -36 213 -110h2v96h70v-547zM335 498c-128 0 -223 -97 -223 -226c0 -127 95 -222 223 -222c122 0 220 98 220 222c0 127 -97 226 -220 226zM452 639h-74v126h74
v-126zM304 639h-74v126h74v-126z" />
    <glyph glyph-name="agrave" unicode="&#xe0;" horiz-adv-x="683" 
d="M621 0h-70v96h-2c-53 -73 -123 -109 -214 -109c-165 0 -293 126 -293 288c0 160 129 286 294 286c93 0 162 -36 213 -110h2v96h70v-547zM335 498c-128 0 -223 -97 -223 -226c0 -127 95 -222 223 -222c122 0 220 98 220 222c0 127 -97 226 -220 226zM453 677l-33 -58
l-198 107l32 60z" />
    <glyph glyph-name="aring" unicode="&#xe5;" horiz-adv-x="683" 
d="M621 0h-70v96h-2c-53 -73 -123 -109 -214 -109c-165 0 -293 126 -293 288c0 160 129 286 294 286c93 0 162 -36 213 -110h2v96h70v-547zM335 498c-128 0 -223 -97 -223 -226c0 -127 95 -222 223 -222c122 0 220 98 220 222c0 127 -97 226 -220 226zM341 807
c58 0 104 -46 104 -103c0 -58 -46 -104 -104 -104c-56 0 -103 47 -103 103c0 57 47 104 103 104zM341 755c-28 0 -51 -24 -51 -52s23 -51 51 -51c29 0 52 23 52 51c0 29 -23 52 -52 52z" />
    <glyph glyph-name="atilde" unicode="&#xe3;" horiz-adv-x="683" 
d="M621 0h-70v96h-2c-53 -73 -123 -109 -214 -109c-165 0 -293 126 -293 288c0 160 129 286 294 286c93 0 162 -36 213 -110h2v96h70v-547zM335 498c-128 0 -223 -97 -223 -226c0 -127 95 -222 223 -222c122 0 220 98 220 222c0 127 -97 226 -220 226zM478 739l36 -49
c-37 -26 -69 -39 -99 -39c-23 0 -44 6 -81 23c-32 14 -46 18 -64 18c-22 0 -44 -10 -66 -30l-35 50c32 29 65 42 103 42c24 0 43 -5 80 -22c32 -15 46 -19 63 -19c16 0 31 6 55 21c4 3 4 3 8 5z" />
    <glyph glyph-name="ccedilla" unicode="&#xe7;" horiz-adv-x="647" 
d="M530 161h77c-60 -115 -146 -171 -266 -173l-22 -44c8 3 16 4 29 4c45 0 76 -34 76 -85c0 -50 -38 -85 -91 -85c-45 0 -74 27 -84 77l42 2c6 -26 23 -42 46 -42c28 0 46 21 46 52c0 30 -17 47 -48 47c-17 0 -30 -6 -40 -19l-36 21l39 74c-84 13 -136 39 -184 93
c-47 52 -73 120 -73 190c0 159 132 288 295 288c74 0 144 -26 197 -74c34 -29 51 -54 74 -105h-77c-44 77 -110 116 -194 116c-126 0 -225 -98 -225 -223c0 -127 99 -225 227 -225c85 0 149 37 192 111z" />
    <glyph glyph-name="eacute" unicode="&#xe9;" horiz-adv-x="650" 
d="M518 179h74c-24 -59 -46 -91 -87 -125c-51 -43 -116 -67 -182 -67c-157 0 -285 128 -285 286s128 288 284 288s287 -132 287 -290v-13c-1 -5 -1 -5 -1 -7v-3h-498c7 -61 25 -99 66 -138c41 -38 94 -60 147 -60s105 19 143 54c25 21 37 39 52 75zM110 311h427
c-14 64 -35 102 -76 137c-38 32 -87 50 -138 50s-100 -18 -138 -51c-41 -35 -62 -73 -75 -136zM447 726l-198 -107l-33 58l199 109z" />
    <glyph glyph-name="ecircumflex" unicode="&#xea;" horiz-adv-x="650" 
d="M518 179h74c-24 -59 -46 -91 -87 -125c-51 -43 -116 -67 -182 -67c-157 0 -285 128 -285 286s128 288 284 288s287 -132 287 -290v-13c-1 -5 -1 -5 -1 -7v-3h-498c7 -61 25 -99 66 -138c41 -38 94 -60 147 -60s105 19 143 54c25 21 37 39 52 75zM110 311h427
c-14 64 -35 102 -76 137c-38 32 -87 50 -138 50s-100 -18 -138 -51c-41 -35 -62 -73 -75 -136zM502 639h-89l-86 73l-88 -73h-91l145 125h66z" />
    <glyph glyph-name="edieresis" unicode="&#xeb;" horiz-adv-x="650" 
d="M518 179h74c-24 -59 -46 -91 -87 -125c-51 -43 -116 -67 -182 -67c-157 0 -285 128 -285 286s128 288 284 288s287 -132 287 -290v-13c-1 -5 -1 -5 -1 -7v-3h-498c7 -61 25 -99 66 -138c41 -38 94 -60 147 -60s105 19 143 54c25 21 37 39 52 75zM110 311h427
c-14 64 -35 102 -76 137c-38 32 -87 50 -138 50s-100 -18 -138 -51c-41 -35 -62 -73 -75 -136zM436 639h-74v126h74v-126zM288 639h-74v126h74v-126z" />
    <glyph glyph-name="egrave" unicode="&#xe8;" horiz-adv-x="650" 
d="M518 179h74c-24 -59 -46 -91 -87 -125c-51 -43 -116 -67 -182 -67c-157 0 -285 128 -285 286s128 288 284 288s287 -132 287 -290v-13c-1 -5 -1 -5 -1 -7v-3h-498c7 -61 25 -99 66 -138c41 -38 94 -60 147 -60s105 19 143 54c25 21 37 39 52 75zM110 311h427
c-14 64 -35 102 -76 137c-38 32 -87 50 -138 50s-100 -18 -138 -51c-41 -35 -62 -73 -75 -136zM436 677l-33 -58l-198 107l32 60z" />
    <glyph glyph-name="iacute" unicode="&#xed;" horiz-adv-x="200" 
d="M135 0h-70v547h70v-547zM261 726l-198 -107l-33 58l199 109z" />
    <glyph glyph-name="icircumflex" unicode="&#xee;" horiz-adv-x="200" 
d="M135 0h-70v547h70v-547zM277 639h-89l-86 73l-88 -73h-91l145 125h66z" />
    <glyph glyph-name="idieresis" unicode="&#xef;" horiz-adv-x="200" 
d="M135 0h-70v547h70v-547zM211 639h-74v126h74v-126zM63 639h-74v126h74v-126z" />
    <glyph glyph-name="igrave" unicode="&#xec;" horiz-adv-x="200" 
d="M135 0h-70v547h70v-547zM171 677l-33 -58l-198 107l32 60z" />
    <glyph glyph-name="ntilde" unicode="&#xf1;" horiz-adv-x="610" 
d="M546 0h-70v301c0 64 -19 118 -52 150c-30 29 -75 47 -119 47c-103 0 -170 -76 -170 -192v-306h-70v547h70v-70h2c40 56 96 84 171 84c145 0 238 -101 238 -260v-301zM442 739l36 -49c-37 -26 -69 -39 -99 -39c-23 0 -44 6 -81 23c-32 14 -46 18 -64 18
c-22 0 -44 -10 -66 -30l-35 50c32 29 65 42 103 42c24 0 43 -5 80 -22c32 -15 46 -19 63 -19c16 0 31 6 55 21c4 3 4 3 8 5z" />
    <glyph glyph-name="oacute" unicode="&#xf3;" horiz-adv-x="655" 
d="M327 561c155 0 287 -131 287 -285c0 -159 -129 -289 -287 -289c-155 0 -285 129 -285 284c0 159 128 290 285 290zM328 498c-119 0 -216 -101 -216 -226c0 -123 97 -222 216 -222c121 0 216 99 216 224c0 124 -97 224 -216 224zM479 726l-198 -107l-33 58l199 109z" />
    <glyph glyph-name="ocircumflex" unicode="&#xf4;" horiz-adv-x="655" 
d="M327 561c155 0 287 -131 287 -285c0 -159 -129 -289 -287 -289c-155 0 -285 129 -285 284c0 159 128 290 285 290zM328 498c-119 0 -216 -101 -216 -226c0 -123 97 -222 216 -222c121 0 216 99 216 224c0 124 -97 224 -216 224zM505 639h-89l-86 73l-88 -73h-91l145 125
h66z" />
    <glyph glyph-name="odieresis" unicode="&#xf6;" horiz-adv-x="655" 
d="M327 561c155 0 287 -131 287 -285c0 -159 -129 -289 -287 -289c-155 0 -285 129 -285 284c0 159 128 290 285 290zM328 498c-119 0 -216 -101 -216 -226c0 -123 97 -222 216 -222c121 0 216 99 216 224c0 124 -97 224 -216 224zM438 639h-74v126h74v-126zM290 639h-74
v126h74v-126z" />
    <glyph glyph-name="ograve" unicode="&#xf2;" horiz-adv-x="655" 
d="M327 561c155 0 287 -131 287 -285c0 -159 -129 -289 -287 -289c-155 0 -285 129 -285 284c0 159 128 290 285 290zM328 498c-119 0 -216 -101 -216 -226c0 -123 97 -222 216 -222c121 0 216 99 216 224c0 124 -97 224 -216 224zM439 677l-33 -58l-198 107l32 60z" />
    <glyph glyph-name="otilde" unicode="&#xf5;" horiz-adv-x="655" 
d="M327 561c155 0 287 -131 287 -285c0 -159 -129 -289 -287 -289c-155 0 -285 129 -285 284c0 159 128 290 285 290zM328 498c-119 0 -216 -101 -216 -226c0 -123 97 -222 216 -222c121 0 216 99 216 224c0 124 -97 224 -216 224zM464 739l36 -49c-37 -26 -69 -39 -99 -39
c-23 0 -44 6 -81 23c-32 14 -46 18 -64 18c-22 0 -44 -10 -66 -30l-35 50c32 29 65 42 103 42c24 0 43 -5 80 -22c32 -15 46 -19 63 -19c16 0 31 6 55 21c4 3 4 3 8 5z" />
    <glyph glyph-name="scaron" unicode="&#x161;" horiz-adv-x="388" 
d="M345 412h-70c-6 55 -36 86 -82 86c-47 0 -83 -35 -83 -81c0 -44 26 -67 104 -95c111 -38 150 -83 150 -168c0 -102 -67 -167 -170 -167c-100 0 -170 70 -170 169v6h70c3 -75 36 -112 100 -112c61 0 100 38 100 96c0 55 -29 83 -116 114c-101 36 -138 77 -138 150
c0 87 66 151 155 151c42 0 79 -15 107 -43s40 -58 43 -106zM366 764l-143 -125h-67l-145 125h92l86 -73l88 73h89z" />
    <glyph glyph-name="uacute" unicode="&#xfa;" horiz-adv-x="608" 
d="M541 0h-66v85h-2c-35 -65 -94 -98 -177 -98c-76 0 -145 30 -186 82c-33 41 -48 98 -48 176v302h70v-301c0 -131 55 -196 166 -196c48 0 84 13 116 44c41 39 57 85 57 164v289h70v-547zM446 726l-198 -107l-33 58l199 109z" />
    <glyph glyph-name="ucircumflex" unicode="&#xfb;" horiz-adv-x="608" 
d="M541 0h-66v85h-2c-35 -65 -94 -98 -177 -98c-76 0 -145 30 -186 82c-33 41 -48 98 -48 176v302h70v-301c0 -131 55 -196 166 -196c48 0 84 13 116 44c41 39 57 85 57 164v289h70v-547zM481 639h-89l-86 73l-88 -73h-91l145 125h66z" />
    <glyph glyph-name="udieresis" unicode="&#xfc;" horiz-adv-x="608" 
d="M541 0h-66v85h-2c-35 -65 -94 -98 -177 -98c-76 0 -145 30 -186 82c-33 41 -48 98 -48 176v302h70v-301c0 -131 55 -196 166 -196c48 0 84 13 116 44c41 39 57 85 57 164v289h70v-547zM415 639h-74v126h74v-126zM267 639h-74v126h74v-126z" />
    <glyph glyph-name="ugrave" unicode="&#xf9;" horiz-adv-x="608" 
d="M541 0h-66v85h-2c-35 -65 -94 -98 -177 -98c-76 0 -145 30 -186 82c-33 41 -48 98 -48 176v302h70v-301c0 -131 55 -196 166 -196c48 0 84 13 116 44c41 39 57 85 57 164v289h70v-547zM395 677l-33 -58l-198 107l32 60z" />
    <glyph glyph-name="yacute" unicode="&#xfd;" 
d="M523 547l-317 -739h-73l95 210l-213 529h74l174 -436l186 436h74zM410 726l-198 -107l-33 58l199 109z" />
    <glyph glyph-name="ydieresis" unicode="&#xff;" 
d="M523 547l-317 -739h-73l95 210l-213 529h74l174 -436l186 436h74zM379 639h-74v126h74v-126zM231 639h-74v126h74v-126z" />
    <glyph glyph-name="zcaron" unicode="&#x17e;" horiz-adv-x="425" 
d="M415 0h-405v61l303 423h-293v63h377v-63l-300 -421h318v-63zM385 764l-143 -125h-67l-145 125h92l86 -73l88 73h89z" />
    <glyph glyph-name="figuredash" unicode="&#x2012;" horiz-adv-x="500" 
d="M465 248h-430v67h430v-67z" />
    <glyph glyph-name="oneeighth" unicode="&#x215b;" horiz-adv-x="666" 
d="M149 296h-60v390h-75v54h135v-444zM465 740l-333 -740h-60l333 740h60zM570 247c47 -26 72 -66 72 -115c0 -77 -65 -139 -148 -139c-82 0 -148 62 -148 140c0 49 25 88 72 114c-30 25 -45 54 -45 89c0 64 53 115 121 115s121 -51 121 -115c0 -35 -15 -64 -45 -89z
M494 218c-51 0 -88 -36 -88 -87c0 -49 37 -84 88 -84c50 0 88 35 88 83c0 52 -36 88 -88 88zM494 398c-38 0 -65 -27 -65 -63c0 -38 27 -65 65 -65s65 27 65 64s-27 64 -65 64z" />
    <glyph glyph-name="threeeighths" unicode="&#x215c;" horiz-adv-x="815" 
d="M114 618h-60c5 82 49 129 121 129c70 0 120 -49 120 -117c0 -34 -10 -54 -41 -80c48 -32 70 -67 70 -115c0 -83 -65 -146 -149 -146c-42 0 -80 14 -106 40c-29 29 -42 61 -45 116h60c3 -65 36 -102 92 -102c51 0 88 37 88 89c0 40 -29 74 -70 84c-13 3 -28 4 -57 4v54h24
c45 0 74 23 74 59s-25 60 -61 60c-37 0 -58 -27 -60 -75zM614 740l-333 -740h-60l333 740h60zM719 247c47 -26 72 -66 72 -115c0 -77 -65 -139 -148 -139c-82 0 -148 62 -148 140c0 49 25 88 72 114c-30 25 -45 54 -45 89c0 64 53 115 121 115s121 -51 121 -115
c0 -35 -15 -64 -45 -89zM643 218c-51 0 -88 -36 -88 -87c0 -49 37 -84 88 -84c50 0 88 35 88 83c0 52 -36 88 -88 88zM643 398c-38 0 -65 -27 -65 -63c0 -38 27 -65 65 -65s65 27 65 64s-27 64 -65 64z" />
    <glyph glyph-name="fiveeighths" unicode="&#x215d;" horiz-adv-x="827" 
d="M136 686l-19 -106c21 14 47 21 76 21c84 0 147 -65 147 -153c0 -91 -66 -159 -155 -159c-39 0 -76 14 -105 39c-30 28 -45 57 -53 107h60c11 -58 47 -92 99 -92c55 0 95 42 95 101c0 60 -41 104 -96 104c-35 0 -63 -14 -88 -43c-16 4 -20 5 -46 12l40 223h214v-54h-169z
M626 740l-333 -740h-60l333 740h60zM731 247c47 -26 72 -66 72 -115c0 -77 -65 -139 -148 -139c-82 0 -148 62 -148 140c0 49 25 88 72 114c-30 25 -45 54 -45 89c0 64 53 115 121 115s121 -51 121 -115c0 -35 -15 -64 -45 -89zM655 218c-51 0 -88 -36 -88 -87
c0 -49 37 -84 88 -84c50 0 88 35 88 83c0 52 -36 88 -88 88zM655 398c-38 0 -65 -27 -65 -63c0 -38 27 -65 65 -65s65 27 65 64s-27 64 -65 64z" />
    <glyph glyph-name="seveneighths" unicode="&#x215e;" horiz-adv-x="689" 
d="M275 688l-177 -392h-63l179 390h-209v54h270v-52zM488 740l-333 -740h-60l333 740h60zM593 247c47 -26 72 -66 72 -115c0 -77 -65 -139 -148 -139c-82 0 -148 62 -148 140c0 49 25 88 72 114c-30 25 -45 54 -45 89c0 64 53 115 121 115s121 -51 121 -115
c0 -35 -15 -64 -45 -89zM517 218c-51 0 -88 -36 -88 -87c0 -49 37 -84 88 -84c50 0 88 35 88 83c0 52 -36 88 -88 88zM517 398c-38 0 -65 -27 -65 -63c0 -38 27 -65 65 -65s65 27 65 64s-27 64 -65 64z" />
    <glyph glyph-name="onethird" unicode="&#x2153;" horiz-adv-x="658" 
d="M149 296h-60v390h-75v54h135v-444zM465 740l-333 -740h-60l333 740h60zM424 321h-60c5 82 49 129 121 129c70 0 120 -49 120 -117c0 -34 -10 -54 -41 -80c48 -32 70 -67 70 -115c0 -83 -65 -146 -149 -146c-42 0 -80 14 -106 40c-29 29 -42 61 -45 116h60
c3 -65 36 -102 92 -102c51 0 88 37 88 89c0 40 -29 74 -70 84c-13 3 -28 4 -57 4v54h24c45 0 74 23 74 59s-25 60 -61 60c-37 0 -58 -27 -60 -75z" />
    <glyph glyph-name="twothirds" unicode="&#x2154;" horiz-adv-x="806" 
d="M36 586v5c0 94 59 156 148 156c83 0 147 -61 147 -139c0 -49 -20 -83 -82 -140l-129 -118h210v-54h-298v49l158 147c39 36 39 36 49 47c22 25 32 47 32 70c0 46 -40 84 -88 84c-57 0 -85 -35 -87 -107h-60zM612 740l-333 -740h-60l333 740h60zM572 320h-60
c5 82 49 129 121 129c70 0 120 -49 120 -117c0 -34 -10 -54 -41 -80c48 -32 70 -67 70 -115c0 -83 -65 -146 -149 -146c-42 0 -80 14 -106 40c-29 29 -42 61 -45 116h60c3 -65 36 -102 92 -102c51 0 88 37 88 89c0 40 -29 74 -70 84c-13 3 -28 4 -57 4v54h24
c45 0 74 23 74 59s-25 60 -61 60c-37 0 -58 -27 -60 -75z" />
    <glyph glyph-name="zerosuperior" unicode="&#x2070;" horiz-adv-x="368" 
d="M28 441v156c0 85 68 150 156 150s156 -65 156 -150v-156c0 -90 -63 -152 -156 -152s-156 62 -156 152zM280 436v165c0 55 -38 92 -96 92s-96 -37 -96 -92v-165c0 -56 38 -93 95 -93c58 0 97 38 97 93z" />
    <glyph glyph-name="foursuperior" unicode="&#x2074;" horiz-adv-x="385" 
d="M353 374h-41v-78h-59v78h-225v49l219 317h65v-312h41v-54zM253 428v222h-2l-149 -222h151z" />
    <glyph glyph-name="fivesuperior" unicode="&#x2075;" horiz-adv-x="364" 
d="M136 686l-19 -106c21 14 47 21 76 21c84 0 147 -65 147 -153c0 -91 -66 -159 -155 -159c-39 0 -76 14 -105 39c-30 28 -45 57 -53 107h60c11 -58 47 -92 99 -92c55 0 95 42 95 101c0 60 -41 104 -96 104c-35 0 -63 -14 -88 -43c-16 4 -20 5 -46 12l40 223h214v-54h-169z
" />
    <glyph glyph-name="sixsuperior" unicode="&#x2076;" horiz-adv-x="369" 
d="M151 588v-1c12 8 30 12 49 12c80 0 145 -68 145 -152c0 -89 -69 -158 -158 -158s-159 68 -159 153c0 39 12 73 37 110l129 188h70zM186 547c-58 0 -98 -42 -98 -102s41 -102 98 -102c56 0 99 43 99 100c0 60 -42 104 -99 104z" />
    <glyph glyph-name="sevensuperior" unicode="&#x2077;" horiz-adv-x="298" 
d="M275 688l-177 -392h-63l179 390h-209v54h270v-52z" />
    <glyph glyph-name="eightsuperior" unicode="&#x2078;" horiz-adv-x="344" 
d="M248 543c47 -26 72 -66 72 -115c0 -77 -65 -139 -148 -139c-82 0 -148 62 -148 140c0 49 25 88 72 114c-30 25 -45 54 -45 89c0 64 53 115 121 115s121 -51 121 -115c0 -35 -15 -64 -45 -89zM172 514c-51 0 -88 -36 -88 -87c0 -49 37 -84 88 -84c50 0 88 35 88 83
c0 52 -36 88 -88 88zM172 694c-38 0 -65 -27 -65 -63c0 -38 27 -65 65 -65s65 27 65 64s-27 64 -65 64z" />
    <glyph glyph-name="ninesuperior" unicode="&#x2079;" horiz-adv-x="369" 
d="M218 448v1c-12 -8 -30 -12 -49 -12c-80 0 -145 68 -145 152c0 89 69 158 158 158s159 -68 159 -153c0 -39 -12 -73 -37 -110l-129 -188h-70zM183 693c-56 0 -99 -43 -99 -100c0 -60 42 -104 99 -104s98 42 98 102s-41 102 -98 102z" />
    <glyph glyph-name="zeroinferior" unicode="&#x2080;" horiz-adv-x="368" 
d="M28 145v156c0 85 68 150 156 150s156 -65 156 -150v-156c0 -90 -63 -152 -156 -152s-156 62 -156 152zM280 140v165c0 55 -38 92 -96 92s-96 -37 -96 -92v-165c0 -56 38 -93 95 -93c58 0 97 38 97 93z" />
    <glyph glyph-name="oneinferior" unicode="&#x2081;" horiz-adv-x="214" 
d="M149 0h-60v390h-75v54h135v-444z" />
    <glyph glyph-name="twoinferior" unicode="&#x2082;" horiz-adv-x="352" 
d="M26 290v5c0 94 59 156 148 156c83 0 147 -61 147 -139c0 -49 -20 -83 -82 -140l-129 -118h210v-54h-298v49l158 147c39 36 39 36 49 47c22 25 32 47 32 70c0 46 -40 84 -88 84c-57 0 -85 -35 -87 -107h-60z" />
    <glyph glyph-name="threeinferior" unicode="&#x2083;" horiz-adv-x="348" 
d="M114 322h-60c5 82 49 129 121 129c70 0 120 -49 120 -117c0 -34 -10 -54 -41 -80c48 -32 70 -67 70 -115c0 -83 -65 -146 -149 -146c-42 0 -80 14 -106 40c-29 29 -42 61 -45 116h60c3 -65 36 -102 92 -102c51 0 88 37 88 89c0 40 -29 74 -70 84c-13 3 -28 4 -57 4v54h24
c45 0 74 23 74 59s-25 60 -61 60c-37 0 -58 -27 -60 -75z" />
    <glyph glyph-name="fourinferior" unicode="&#x2084;" horiz-adv-x="385" 
d="M353 78h-41v-78h-59v78h-225v49l219 317h65v-312h41v-54zM253 132v222h-2l-149 -222h151z" />
    <glyph glyph-name="fiveinferior" unicode="&#x2085;" horiz-adv-x="364" 
d="M136 390l-19 -106c21 14 47 21 76 21c84 0 147 -65 147 -153c0 -91 -66 -159 -155 -159c-39 0 -76 14 -105 39c-30 28 -45 57 -53 107h60c11 -58 47 -92 99 -92c55 0 95 42 95 101c0 60 -41 104 -96 104c-35 0 -63 -14 -88 -43c-16 4 -20 5 -46 12l40 223h214v-54h-169z
" />
    <glyph glyph-name="sixinferior" unicode="&#x2086;" horiz-adv-x="369" 
d="M151 292v-1c12 8 30 12 49 12c80 0 145 -68 145 -152c0 -89 -69 -158 -158 -158s-159 68 -159 153c0 39 12 73 37 110l129 188h70zM186 251c-58 0 -98 -42 -98 -102s41 -102 98 -102c56 0 99 43 99 100c0 60 -42 104 -99 104z" />
    <glyph glyph-name="seveninferior" unicode="&#x2087;" horiz-adv-x="298" 
d="M275 392l-177 -392h-63l179 390h-209v54h270v-52z" />
    <glyph glyph-name="eightinferior" unicode="&#x2088;" horiz-adv-x="344" 
d="M248 247c47 -26 72 -66 72 -115c0 -77 -65 -139 -148 -139c-82 0 -148 62 -148 140c0 49 25 88 72 114c-30 25 -45 54 -45 89c0 64 53 115 121 115s121 -51 121 -115c0 -35 -15 -64 -45 -89zM172 218c-51 0 -88 -36 -88 -87c0 -49 37 -84 88 -84c50 0 88 35 88 83
c0 52 -36 88 -88 88zM172 398c-38 0 -65 -27 -65 -63c0 -38 27 -65 65 -65s65 27 65 64s-27 64 -65 64z" />
    <glyph glyph-name="nineinferior" unicode="&#x2089;" horiz-adv-x="369" 
d="M218 152v1c-12 -8 -30 -12 -49 -12c-80 0 -145 68 -145 152c0 89 69 158 158 158s159 -68 159 -153c0 -39 -12 -73 -37 -110l-129 -188h-70zM183 397c-56 0 -99 -43 -99 -100c0 -60 42 -104 99 -104s98 42 98 102s-41 102 -98 102z" />
    <glyph glyph-name="IJ" unicode="&#x132;" horiz-adv-x="708" 
d="M150 0h-74v740h74v-740zM628 740v-505c0 -70 -3 -100 -15 -132c-27 -71 -98 -116 -181 -116c-54 0 -104 19 -140 53c-37 35 -54 73 -60 136h73c9 -77 57 -122 130 -122c85 0 119 51 119 178v508h74z" />
    <glyph glyph-name="Abreve" unicode="&#x102;" horiz-adv-x="740" 
d="M729 0h-81l-107 249h-344l-108 -249h-77l316 740h83zM512 316l-142 340l-145 -340h287zM480 906h65c-30 -71 -84 -103 -175 -103s-144 32 -174 103h65c25 -31 60 -46 109 -46s85 15 110 46z" />
    <glyph glyph-name="Aogonek" unicode="&#x104;" horiz-adv-x="740" 
d="M737 -138v-44c-20 -7 -33 -9 -50 -9c-62 0 -105 37 -105 90c0 40 19 67 72 101h-6l-107 249h-344l-108 -249h-77l316 740h83l318 -740h-23c-57 -44 -75 -67 -75 -98c0 -29 25 -50 59 -50c14 0 30 3 47 10zM512 316l-142 340l-145 -340h287z" />
    <glyph glyph-name="Cacute" unicode="&#x106;" horiz-adv-x="813" 
d="M688 194h83c-39 -65 -69 -99 -120 -136c-66 -46 -142 -71 -222 -71c-214 0 -386 171 -386 383c0 214 170 382 385 382c119 0 226 -51 303 -144c17 -20 27 -36 37 -58h-83c-64 89 -152 135 -256 135c-168 0 -312 -146 -312 -316c0 -169 145 -315 313 -315
c100 0 183 45 258 140zM568 888l-198 -107l-33 58l199 109z" />
    <glyph glyph-name="Ccaron" unicode="&#x10c;" horiz-adv-x="813" 
d="M688 194h83c-39 -65 -69 -99 -120 -136c-66 -46 -142 -71 -222 -71c-214 0 -386 171 -386 383c0 214 170 382 385 382c119 0 226 -51 303 -144c17 -20 27 -36 37 -58h-83c-64 89 -152 135 -256 135c-168 0 -312 -146 -312 -316c0 -169 145 -315 313 -315
c100 0 183 45 258 140zM608 926l-143 -125h-67l-145 125h92l86 -73l88 73h89z" />
    <glyph glyph-name="Cdotaccent" unicode="&#x10a;" horiz-adv-x="813" 
d="M688 194h83c-39 -65 -69 -99 -120 -136c-66 -46 -142 -71 -222 -71c-214 0 -386 171 -386 383c0 214 170 382 385 382c119 0 226 -51 303 -144c17 -20 27 -36 37 -58h-83c-64 89 -152 135 -256 135c-168 0 -312 -146 -312 -316c0 -169 145 -315 313 -315
c100 0 183 45 258 140zM463 801h-74v126h74v-126z" />
    <glyph glyph-name="Dcaron" unicode="&#x10e;" horiz-adv-x="744" 
d="M74 740h216c119 0 219 -34 288 -97c77 -70 121 -171 121 -274c0 -123 -66 -244 -168 -308c-61 -38 -150 -61 -241 -61h-216v740zM148 67h123c114 0 179 16 238 60c72 53 116 145 116 244s-47 190 -126 245c-60 42 -126 57 -244 57h-107v-606zM484 926l-143 -125h-67
l-145 125h92l86 -73l88 73h89z" />
    <glyph glyph-name="Dcroat" unicode="&#x110;" horiz-adv-x="810" 
d="M134 740h212c199 0 339 -90 392 -251c14 -40 21 -82 21 -120c0 -45 -10 -95 -28 -141c-59 -148 -192 -228 -381 -228h-216v347h-74v67h74v326zM208 67h123c114 0 179 16 238 60c72 53 116 145 116 244s-47 190 -126 245c-60 42 -126 57 -244 57h-107v-259h210v-67h-210
v-280z" />
    <glyph glyph-name="Ecaron" unicode="&#x11a;" 
d="M475 0h-405v740h405v-67h-331v-266h320v-67h-320v-273h331v-67zM460 926l-143 -125h-67l-145 125h92l86 -73l88 73h89z" />
    <glyph glyph-name="Edotaccent" unicode="&#x116;" 
d="M475 0h-405v740h405v-67h-331v-266h320v-67h-320v-273h331v-67zM315 801h-74v126h74v-126z" />
    <glyph glyph-name="Eogonek" unicode="&#x118;" 
d="M473 -138v-44c-20 -7 -33 -9 -50 -9c-62 0 -105 37 -105 90c0 40 19 67 72 101h-320v740h405v-67h-331v-266h320v-67h-320v-273h331v-67h-33c-57 -44 -75 -67 -75 -98c0 -29 25 -50 59 -50c14 0 30 3 47 10z" />
    <glyph glyph-name="Gbreve" unicode="&#x11e;" horiz-adv-x="872" 
d="M326 340h502c-11 -83 -24 -122 -60 -176c-72 -110 -197 -177 -331 -177c-216 0 -397 174 -397 383c0 211 178 383 396 383c149 0 298 -90 350 -210h-86c-29 45 -52 69 -94 95c-51 31 -111 48 -170 48c-177 0 -322 -143 -322 -317s145 -315 324 -315c70 0 141 25 198 69
c54 41 81 81 103 150h-413v67zM546 906h65c-30 -71 -84 -103 -175 -103s-144 32 -174 103h65c25 -31 60 -46 109 -46s85 15 110 46z" />
    <glyph glyph-name="Gdotaccent" unicode="&#x120;" horiz-adv-x="872" 
d="M326 340h502c-11 -83 -24 -122 -60 -176c-72 -110 -197 -177 -331 -177c-216 0 -397 174 -397 383c0 211 178 383 396 383c149 0 298 -90 350 -210h-86c-29 45 -52 69 -94 95c-51 31 -111 48 -170 48c-177 0 -322 -143 -322 -317s145 -315 324 -315c70 0 141 25 198 69
c54 41 81 81 103 150h-413v67zM473 801h-74v126h74v-126z" />
    <glyph glyph-name="Idotaccent" unicode="&#x130;" horiz-adv-x="226" 
d="M150 0h-74v740h74v-740zM150 801h-74v126h74v-126z" />
    <glyph glyph-name="Lacute" unicode="&#x139;" horiz-adv-x="462" 
d="M462 0h-380v740h74v-673h306v-67zM263 888l-198 -107l-33 58l199 109z" />
    <glyph glyph-name="Lcaron" unicode="&#x13d;" horiz-adv-x="462" 
d="M462 0h-380v740h74v-673h306v-67zM418 740l-77 -169h-74l77 169h74z" />
    <glyph glyph-name="Nacute" unicode="&#x143;" horiz-adv-x="740" 
d="M664 0h-74l-439 651h-2v-651h-74v740h100l413 -614h2v614h74v-740zM522 888l-198 -107l-33 58l199 109z" />
    <glyph glyph-name="Ncaron" unicode="&#x147;" horiz-adv-x="740" 
d="M664 0h-74l-439 651h-2v-651h-74v740h100l413 -614h2v614h74v-740zM552 926l-143 -125h-67l-145 125h92l86 -73l88 73h89z" />
    <glyph glyph-name="Ohungarumlaut" unicode="&#x150;" horiz-adv-x="869" 
d="M434 753c214 0 392 -172 392 -380c0 -213 -175 -386 -392 -386c-213 0 -391 173 -391 380c0 213 175 386 391 386zM434 686c-174 0 -317 -144 -317 -319c0 -171 144 -313 317 -313s318 142 318 313c0 176 -143 319 -318 319zM664 912l-164 -135l-38 46l162 135zM489 912
l-164 -135l-38 46l161 135z" />
    <glyph glyph-name="Racute" unicode="&#x154;" horiz-adv-x="607" 
d="M70 740h188c79 0 131 -7 172 -24c86 -35 142 -119 142 -214c0 -60 -21 -113 -60 -154c-41 -43 -86 -64 -160 -72l209 -276h-93l-251 335c96 0 106 0 136 6c87 15 145 80 145 161c0 60 -31 115 -81 143c-36 20 -76 28 -144 28h-129v-673h-74v740zM435 888l-198 -107
l-33 58l199 109z" />
    <glyph glyph-name="Rcaron" unicode="&#x158;" horiz-adv-x="607" 
d="M70 740h188c79 0 131 -7 172 -24c86 -35 142 -119 142 -214c0 -60 -21 -113 -60 -154c-41 -43 -86 -64 -160 -72l209 -276h-93l-251 335c96 0 106 0 136 6c87 15 145 80 145 161c0 60 -31 115 -81 143c-36 20 -76 28 -144 28h-129v-673h-74v740zM455 926l-143 -125h-67
l-145 125h92l86 -73l88 73h89z" />
    <glyph glyph-name="Sacute" unicode="&#x15a;" horiz-adv-x="498" 
d="M455 552h-74c-2 42 -13 69 -39 95c-25 25 -58 39 -93 39c-74 0 -133 -56 -133 -128c0 -39 18 -74 47 -91s59 -29 117 -45c129 -38 193 -109 193 -217c0 -123 -98 -218 -225 -218c-63 0 -122 22 -162 62c-42 41 -59 84 -64 158h74c5 -54 17 -85 46 -113
c27 -26 64 -40 106 -40c86 0 151 64 151 148c0 78 -44 120 -165 157c-68 21 -98 33 -125 53c-46 33 -67 78 -67 141c0 114 89 200 208 200c56 0 109 -21 147 -59s55 -78 58 -142zM401 888l-198 -107l-33 58l199 109z" />
    <glyph glyph-name="Scedilla" unicode="&#x15e;" horiz-adv-x="498" 
d="M247 -13l-21 -43c11 3 20 4 32 4c42 0 73 -36 73 -86c0 -49 -38 -84 -91 -84c-45 0 -74 27 -84 77l42 2c6 -26 23 -42 46 -42c28 0 46 21 46 52c0 30 -17 47 -48 47c-17 0 -27 -5 -40 -19l-36 21l39 75c-111 18 -181 101 -183 216h74c5 -54 17 -85 46 -113
c27 -26 64 -40 106 -40c86 0 151 64 151 148c0 78 -44 120 -165 157c-68 21 -98 33 -125 53c-46 33 -67 78 -67 141c0 114 89 200 208 200c56 0 109 -21 147 -59s55 -78 58 -142h-74c-2 42 -13 69 -39 95c-25 25 -58 39 -93 39c-74 0 -133 -56 -133 -128
c0 -39 18 -74 47 -91s59 -29 117 -45c129 -38 193 -109 193 -217c0 -122 -98 -218 -223 -218h-3z" />
    <glyph glyph-name="Tcaron" unicode="&#x164;" horiz-adv-x="426" 
d="M419 673h-169v-673h-74v673h-170v67h413v-67zM385 926l-143 -125h-67l-145 125h92l86 -73l88 73h89z" />
    <glyph glyph-name="Uring" unicode="&#x16e;" horiz-adv-x="655" 
d="M579 740v-461c0 -61 -10 -114 -28 -154c-40 -87 -123 -138 -224 -138s-184 51 -224 138c-18 40 -28 93 -28 154v461h74v-461c0 -52 8 -97 21 -127c30 -62 86 -98 157 -98c68 0 122 33 153 91c16 32 25 77 25 134v461h74zM326 979c58 0 104 -46 104 -103
c0 -58 -46 -104 -104 -104c-56 0 -103 47 -103 103c0 57 47 104 103 104zM326 927c-28 0 -51 -24 -51 -52s23 -51 51 -51c29 0 52 23 52 51c0 29 -23 52 -52 52z" />
    <glyph glyph-name="Uhungarumlaut" unicode="&#x170;" horiz-adv-x="655" 
d="M579 740v-461c0 -61 -10 -114 -28 -154c-40 -87 -123 -138 -224 -138s-184 51 -224 138c-18 40 -28 93 -28 154v461h74v-461c0 -52 8 -97 21 -127c30 -62 86 -98 157 -98c68 0 122 33 153 91c16 32 25 77 25 134v461h74zM567 912l-164 -135l-38 46l162 135zM392 912
l-164 -135l-38 46l161 135z" />
    <glyph glyph-name="Zacute" unicode="&#x179;" horiz-adv-x="480" 
d="M470 0h-458v67l364 606h-353v67h436v-67l-363 -606h374v-67zM382 888l-198 -107l-33 58l199 109z" />
    <glyph glyph-name="Zdotaccent" unicode="&#x17b;" horiz-adv-x="480" 
d="M470 0h-458v67l364 606h-353v67h436v-67l-363 -606h374v-67zM277 801h-74v126h74v-126z" />
    <glyph glyph-name="Amacron" unicode="&#x100;" horiz-adv-x="740" 
d="M729 0h-81l-107 249h-344l-108 -249h-77l316 740h83zM512 316l-142 340l-145 -340h287zM539 821h-338v67h338v-67z" />
    <glyph glyph-name="Tcommaaccent" unicode="&#x162;" horiz-adv-x="426" 
d="M419 673h-169v-673h-74v673h-170v67h413v-67zM263 -53l-77 -169h-74l77 169h74z" />
    <glyph glyph-name="Ccircumflex" unicode="&#x108;" horiz-adv-x="813" 
d="M688 194h83c-39 -65 -69 -99 -120 -136c-66 -46 -142 -71 -222 -71c-214 0 -386 171 -386 383c0 214 170 382 385 382c119 0 226 -51 303 -144c17 -20 27 -36 37 -58h-83c-64 89 -152 135 -256 135c-168 0 -312 -146 -312 -316c0 -169 145 -315 313 -315
c100 0 183 45 258 140zM603 801h-89l-86 73l-88 -73h-91l145 125h66z" />
    <glyph glyph-name="Wcircumflex" unicode="&#x174;" horiz-adv-x="960" 
d="M950 740l-212 -740h-94l-163 607h-2l-162 -607h-95l-211 740h76l181 -645h2l176 645h69l177 -644h2l181 644h75zM657 801h-89l-86 73l-88 -73h-91l145 125h66z" />
    <glyph glyph-name="Wdieresis" unicode="&#x1e84;" horiz-adv-x="960" 
d="M950 740l-212 -740h-94l-163 607h-2l-162 -607h-95l-211 740h76l181 -645h2l176 645h69l177 -644h2l181 644h75zM591 801h-74v126h74v-126zM443 801h-74v126h74v-126z" />
    <glyph glyph-name="Ycircumflex" unicode="&#x176;" horiz-adv-x="592" 
d="M592 740l-260 -493v-247h-74v247l-257 493h82l211 -415l217 415h81zM473 801h-89l-86 73l-88 -73h-91l145 125h66z" />
    <glyph glyph-name="Hbar" unicode="&#x126;" horiz-adv-x="683" 
d="M607 0h-74v347h-383v-347h-74v527h-76v67h76v146h74v-146h383v146h74v-146h76v-67h-76v-527zM150 414h383v113h-383v-113z" />
    <glyph glyph-name="Emacron" unicode="&#x112;" 
d="M475 0h-405v740h405v-67h-331v-266h320v-67h-320v-273h331v-67zM437 821h-338v67h338v-67z" />
    <glyph glyph-name="Gcircumflex" unicode="&#x11c;" horiz-adv-x="872" 
d="M326 340h502c-11 -83 -24 -122 -60 -176c-72 -110 -197 -177 -331 -177c-216 0 -397 174 -397 383c0 211 178 383 396 383c149 0 298 -90 350 -210h-86c-29 45 -52 69 -94 95c-51 31 -111 48 -170 48c-177 0 -322 -143 -322 -317s145 -315 324 -315c70 0 141 25 198 69
c54 41 81 81 103 150h-413v67zM609 801h-89l-86 73l-88 -73h-91l145 125h66z" />
    <glyph glyph-name="Hcircumflex" unicode="&#x124;" horiz-adv-x="683" 
d="M607 0h-74v347h-383v-347h-74v740h74v-326h383v326h74v-740zM518 801h-89l-86 73l-88 -73h-91l145 125h66z" />
    <glyph glyph-name="Imacron" unicode="&#x12a;" horiz-adv-x="226" 
d="M150 0h-74v740h74v-740zM282 821h-338v67h338v-67z" />
    <glyph glyph-name="Iogonek" unicode="&#x12e;" horiz-adv-x="226" 
d="M177 -138v-44c-20 -7 -33 -9 -50 -9c-62 0 -105 37 -105 90c0 40 19 67 72 101h-18v740h74v-740h-4c-57 -44 -75 -67 -75 -98c0 -29 25 -50 59 -50c14 0 30 3 47 10z" />
    <glyph glyph-name="Jcircumflex" unicode="&#x134;" horiz-adv-x="482" 
d="M402 740v-505c0 -70 -3 -100 -15 -132c-27 -71 -98 -116 -181 -116c-54 0 -104 19 -140 53c-37 35 -54 73 -60 136h73c9 -77 57 -122 130 -122c85 0 119 51 119 178v508h74zM488 802h-89l-86 73l-88 -73h-91l145 125h66z" />
    <glyph glyph-name="Kcommaaccent" unicode="&#x136;" horiz-adv-x="591" 
d="M591 0h-93l-247 321l-96 -118v-203h-74v740h74v-425h2l339 425h95l-293 -361zM355 -53l-77 -169h-74l77 169h74z" />
    <glyph glyph-name="Lcommaaccent" unicode="&#x13b;" horiz-adv-x="462" 
d="M462 0h-380v740h74v-673h306v-67zM301 -53l-77 -169h-74l77 169h74z" />
    <glyph glyph-name="Ncommaaccent" unicode="&#x145;" horiz-adv-x="740" 
d="M664 0h-74l-439 651h-2v-651h-74v740h100l413 -614h2v614h74v-740zM420 -53l-77 -169h-74l77 169h74z" />
    <glyph glyph-name="Omacron" unicode="&#x14c;" horiz-adv-x="869" 
d="M434 753c214 0 392 -172 392 -380c0 -213 -175 -386 -392 -386c-213 0 -391 173 -391 380c0 213 175 386 391 386zM434 686c-174 0 -317 -144 -317 -319c0 -171 144 -313 317 -313s318 142 318 313c0 176 -143 319 -318 319zM603 821h-338v67h338v-67z" />
    <glyph glyph-name="Rcommaaccent" unicode="&#x156;" horiz-adv-x="607" 
d="M70 740h188c79 0 131 -7 172 -24c86 -35 142 -119 142 -214c0 -60 -21 -113 -60 -154c-41 -43 -86 -64 -160 -72l209 -276h-93l-251 335c96 0 106 0 136 6c87 15 145 80 145 161c0 60 -31 115 -81 143c-36 20 -76 28 -144 28h-129v-673h-74v740zM343 -53l-77 -169h-74
l77 169h74z" />
    <glyph glyph-name="Scircumflex" unicode="&#x15c;" horiz-adv-x="498" 
d="M455 552h-74c-2 42 -13 69 -39 95c-25 25 -58 39 -93 39c-74 0 -133 -56 -133 -128c0 -39 18 -74 47 -91s59 -29 117 -45c129 -38 193 -109 193 -217c0 -123 -98 -218 -225 -218c-63 0 -122 22 -162 62c-42 41 -59 84 -64 158h74c5 -54 17 -85 46 -113
c27 -26 64 -40 106 -40c86 0 151 64 151 148c0 78 -44 120 -165 157c-68 21 -98 33 -125 53c-46 33 -67 78 -67 141c0 114 89 200 208 200c56 0 109 -21 147 -59s55 -78 58 -142zM426 801h-89l-86 73l-88 -73h-91l145 125h66z" />
    <glyph glyph-name="Gcommaaccent" unicode="&#x122;" horiz-adv-x="872" 
d="M326 340h502c-11 -83 -24 -122 -60 -176c-72 -110 -197 -177 -331 -177c-216 0 -397 174 -397 383c0 211 178 383 396 383c149 0 298 -90 350 -210h-86c-29 45 -52 69 -94 95c-51 31 -111 48 -170 48c-177 0 -322 -143 -322 -317s145 -315 324 -315c70 0 141 25 198 69
c54 41 81 81 103 150h-413v67zM486 -53l-77 -169h-74l77 169h74z" />
    <glyph glyph-name="Umacron" unicode="&#x16a;" horiz-adv-x="655" 
d="M579 740v-461c0 -61 -10 -114 -28 -154c-40 -87 -123 -138 -224 -138s-184 51 -224 138c-18 40 -28 93 -28 154v461h74v-461c0 -52 8 -97 21 -127c30 -62 86 -98 157 -98c68 0 122 33 153 91c16 32 25 77 25 134v461h74zM496 821h-338v67h338v-67z" />
    <glyph glyph-name="Uogonek" unicode="&#x172;" horiz-adv-x="655" 
d="M425 -138v-44c-20 -7 -33 -9 -50 -9c-63 0 -105 37 -105 91c0 34 15 59 52 87c-99 5 -165 43 -208 117c-26 45 -39 103 -39 175v461h74v-461c0 -52 8 -97 21 -127c30 -62 86 -98 157 -98c68 0 122 33 153 91c16 32 25 77 25 134v461h74v-461c0 -160 -66 -257 -195 -286
c-48 -39 -65 -62 -65 -91s25 -50 59 -50c14 0 30 3 47 10z" />
    <glyph glyph-name="Ebreve" unicode="&#x114;" 
d="M475 0h-405v740h405v-67h-331v-266h320v-67h-320v-273h331v-67zM378 906h65c-30 -71 -84 -103 -175 -103s-144 32 -174 103h65c25 -31 60 -46 109 -46s85 15 110 46z" />
    <glyph glyph-name="Ibreve" unicode="&#x12c;" horiz-adv-x="226" 
d="M150 0h-74v740h74v-740zM223 906h65c-30 -71 -84 -103 -175 -103s-144 32 -174 103h65c25 -31 60 -46 109 -46s85 15 110 46z" />
    <glyph glyph-name="dotlessj" unicode="&#xf6be;" horiz-adv-x="203" 
d="M137 547v-521c0 -90 -15 -134 -60 -174c-35 -32 -65 -42 -121 -44v69c83 7 111 47 111 161v509h70z" />
    <glyph glyph-name="ij" unicode="&#x133;" horiz-adv-x="403" 
d="M135 614h-70v126h70v-126zM135 0h-70v547h70v-547zM337 614h-70v126h70v-126zM337 547v-521c0 -90 -15 -134 -60 -174c-35 -32 -65 -42 -121 -44v69c83 7 111 47 111 161v509h70z" />
    <glyph glyph-name="abreve" unicode="&#x103;" horiz-adv-x="683" 
d="M621 0h-70v96h-2c-53 -73 -123 -109 -214 -109c-165 0 -293 126 -293 288c0 160 129 286 294 286c93 0 162 -36 213 -110h2v96h70v-547zM335 498c-128 0 -223 -97 -223 -226c0 -127 95 -222 223 -222c122 0 220 98 220 222c0 127 -97 226 -220 226zM451 714h65
c-30 -71 -84 -103 -175 -103s-144 32 -174 103h65c25 -31 60 -46 109 -46s85 15 110 46z" />
    <glyph glyph-name="aogonek" unicode="&#x105;" horiz-adv-x="683" 
d="M648 -138v-44c-20 -7 -33 -9 -50 -9c-62 0 -105 37 -105 90c0 40 19 67 72 101h-14v96h-2c-53 -73 -123 -109 -214 -109c-165 0 -293 126 -293 288c0 160 129 286 294 286c93 0 162 -36 213 -110h2v96h70v-547h-4c-57 -44 -75 -67 -75 -98c0 -29 25 -50 59 -50
c14 0 30 3 47 10zM335 498c-128 0 -223 -97 -223 -226c0 -127 95 -222 223 -222c122 0 220 98 220 222c0 127 -97 226 -220 226z" />
    <glyph glyph-name="cacute" unicode="&#x107;" horiz-adv-x="647" 
d="M530 161h77c-66 -120 -149 -174 -270 -174c-166 0 -296 125 -296 286c0 159 131 288 295 288c73 0 144 -26 197 -74c34 -30 51 -54 74 -105h-77c-44 77 -110 116 -194 116c-126 0 -225 -98 -225 -223c0 -127 99 -225 227 -225c85 0 149 37 192 111zM475 706l-198 -107
l-33 58l199 109z" />
    <glyph glyph-name="ccaron" unicode="&#x10d;" horiz-adv-x="647" 
d="M530 161h77c-66 -120 -149 -174 -270 -174c-166 0 -296 125 -296 286c0 159 131 288 295 288c73 0 144 -26 197 -74c34 -30 51 -54 74 -105h-77c-44 77 -110 116 -194 116c-126 0 -225 -98 -225 -223c0 -127 99 -225 227 -225c85 0 149 37 192 111zM515 734l-143 -125
h-67l-145 125h92l86 -73l88 73h89z" />
    <glyph glyph-name="cdotaccent" unicode="&#x10b;" horiz-adv-x="647" 
d="M530 161h77c-66 -120 -149 -174 -270 -174c-166 0 -296 125 -296 286c0 159 131 288 295 288c73 0 144 -26 197 -74c34 -30 51 -54 74 -105h-77c-44 77 -110 116 -194 116c-126 0 -225 -98 -225 -223c0 -127 99 -225 227 -225c85 0 149 37 192 111zM370 619h-74v126h74
v-126z" />
    <glyph glyph-name="dcaron" unicode="&#x10f;" horiz-adv-x="775" 
d="M618 0h-70v96h-2c-53 -72 -125 -109 -215 -109c-164 0 -292 126 -292 288c0 160 129 286 293 286c89 0 160 -36 214 -108h2v287h70v-740zM332 498c-128 0 -223 -97 -223 -226c0 -127 95 -222 223 -222c122 0 220 98 220 222c0 127 -97 226 -220 226zM800 740l-77 -169
h-74l77 169h74z" />
    <glyph glyph-name="dcroat" unicode="&#x111;" horiz-adv-x="685" 
d="M332 498c-128 0 -223 -97 -223 -226c0 -127 95 -222 223 -222c122 0 220 98 220 222c0 127 -97 226 -220 226zM618 604v-604h-70v96h-2c-53 -72 -125 -109 -215 -109c-164 0 -292 126 -292 288c0 160 129 286 293 286c89 0 160 -36 214 -108h2v151h-206v63h206v73h70v-73
h62v-63h-62z" />
    <glyph glyph-name="ecaron" unicode="&#x11b;" horiz-adv-x="650" 
d="M518 179h74c-24 -59 -46 -91 -87 -125c-51 -43 -116 -67 -182 -67c-157 0 -285 128 -285 286s128 288 284 288s287 -132 287 -290v-13c-1 -5 -1 -5 -1 -7v-3h-498c7 -61 25 -99 66 -138c41 -38 94 -60 147 -60s105 19 143 54c25 21 37 39 52 75zM110 311h427
c-14 64 -35 102 -76 137c-38 32 -87 50 -138 50s-100 -18 -138 -51c-41 -35 -62 -73 -75 -136zM497 734l-143 -125h-67l-145 125h92l86 -73l88 73h89z" />
    <glyph glyph-name="edotaccent" unicode="&#x117;" horiz-adv-x="650" 
d="M518 179h74c-24 -59 -46 -91 -87 -125c-51 -43 -116 -67 -182 -67c-157 0 -285 128 -285 286s128 288 284 288s287 -132 287 -290v-13c-1 -5 -1 -5 -1 -7v-3h-498c7 -61 25 -99 66 -138c41 -38 94 -60 147 -60s105 19 143 54c25 21 37 39 52 75zM110 311h427
c-14 64 -35 102 -76 137c-38 32 -87 50 -138 50s-100 -18 -138 -51c-41 -35 -62 -73 -75 -136zM362 619h-74v126h74v-126z" />
    <glyph glyph-name="eogonek" unicode="&#x119;" horiz-adv-x="650" 
d="M433 -138v-44c-20 -7 -33 -9 -50 -9c-63 0 -105 37 -105 91c0 34 15 59 52 87h-7c-157 0 -285 128 -285 286s128 288 284 288s287 -132 287 -290v-13c-1 -5 -1 -5 -1 -7v-3h-498c7 -61 25 -99 66 -138c41 -38 94 -60 147 -60s105 19 143 54c25 21 37 39 52 75h74
c-32 -90 -104 -156 -194 -181c-52 -40 -71 -65 -71 -96c0 -29 25 -50 59 -50c14 0 30 3 47 10zM110 311h427c-14 64 -35 102 -76 137c-38 32 -87 50 -138 50s-100 -18 -138 -51c-41 -35 -62 -73 -75 -136z" />
    <glyph glyph-name="gbreve" unicode="&#x11f;" horiz-adv-x="673" 
d="M606 547v-461c0 -90 -11 -140 -41 -187c-45 -70 -132 -114 -229 -114c-81 0 -155 29 -207 81c-34 33 -50 61 -70 120h74c41 -93 108 -138 205 -138c121 0 198 80 198 204v48h-2c-44 -74 -117 -113 -212 -113c-158 0 -285 126 -285 284c0 161 128 290 286 290
c90 0 159 -37 211 -112h2v98h70zM323 498c-120 0 -216 -100 -216 -225c0 -124 96 -223 216 -223c118 0 217 101 217 222c0 125 -97 226 -217 226zM436 714h65c-30 -71 -84 -103 -175 -103s-144 32 -174 103h65c25 -31 60 -46 109 -46s85 15 110 46z" />
    <glyph glyph-name="gdotaccent" unicode="&#x121;" horiz-adv-x="673" 
d="M606 547v-461c0 -90 -11 -140 -41 -187c-45 -70 -132 -114 -229 -114c-81 0 -155 29 -207 81c-34 33 -50 61 -70 120h74c41 -93 108 -138 205 -138c121 0 198 80 198 204v48h-2c-44 -74 -117 -113 -212 -113c-158 0 -285 126 -285 284c0 161 128 290 286 290
c90 0 159 -37 211 -112h2v98h70zM323 498c-120 0 -216 -100 -216 -225c0 -124 96 -223 216 -223c118 0 217 101 217 222c0 125 -97 226 -217 226zM363 619h-74v126h74v-126z" />
    <glyph glyph-name="lacute" unicode="&#x13a;" horiz-adv-x="200" 
d="M135 0h-70v740h70v-740zM232 888l-198 -107l-33 58l199 109z" />
    <glyph glyph-name="lcaron" unicode="&#x13e;" horiz-adv-x="299" 
d="M135 0h-70v740h70v-740zM324 740l-77 -169h-74l77 169h74z" />
    <glyph glyph-name="nacute" unicode="&#x144;" horiz-adv-x="610" 
d="M546 0h-70v301c0 64 -19 118 -52 150c-30 29 -75 47 -119 47c-103 0 -170 -76 -170 -192v-306h-70v547h70v-70h2c40 56 96 84 171 84c145 0 238 -101 238 -260v-301zM447 706l-198 -107l-33 58l199 109z" />
    <glyph glyph-name="ncaron" unicode="&#x148;" horiz-adv-x="610" 
d="M546 0h-70v301c0 64 -19 118 -52 150c-30 29 -75 47 -119 47c-103 0 -170 -76 -170 -192v-306h-70v547h70v-70h2c40 56 96 84 171 84c145 0 238 -101 238 -260v-301zM477 734l-143 -125h-67l-145 125h92l86 -73l88 73h89z" />
    <glyph glyph-name="ohungarumlaut" unicode="&#x151;" horiz-adv-x="655" 
d="M327 561c155 0 287 -131 287 -285c0 -159 -129 -289 -287 -289c-155 0 -285 129 -285 284c0 159 128 290 285 290zM328 498c-119 0 -216 -101 -216 -226c0 -123 97 -222 216 -222c121 0 216 99 216 224c0 124 -97 224 -216 224zM557 730l-164 -135l-38 46l162 135z
M382 730l-164 -135l-38 46l161 135z" />
    <glyph glyph-name="racute" unicode="&#x155;" horiz-adv-x="301" 
d="M291 561v-74c-61 -8 -94 -24 -123 -60c-22 -28 -33 -64 -33 -107v-320h-70v547h70v-79h2c27 61 70 87 154 93zM322 706l-198 -107l-33 58l199 109z" />
    <glyph glyph-name="sacute" unicode="&#x15b;" horiz-adv-x="388" 
d="M345 412h-70c-6 55 -36 86 -82 86c-47 0 -83 -35 -83 -81c0 -44 26 -67 104 -95c111 -38 150 -83 150 -168c0 -102 -67 -167 -170 -167c-100 0 -170 70 -170 169v6h70c3 -75 36 -112 100 -112c61 0 100 38 100 96c0 55 -29 83 -116 114c-101 36 -138 77 -138 150
c0 87 66 151 155 151c42 0 79 -15 107 -43s40 -58 43 -106zM336 706l-198 -107l-33 58l199 109z" />
    <glyph glyph-name="scircumflex" unicode="&#x15d;" horiz-adv-x="388" 
d="M345 412h-70c-6 55 -36 86 -82 86c-47 0 -83 -35 -83 -81c0 -44 26 -67 104 -95c111 -38 150 -83 150 -168c0 -102 -67 -167 -170 -167c-100 0 -170 70 -170 169v6h70c3 -75 36 -112 100 -112c61 0 100 38 100 96c0 55 -29 83 -116 114c-101 36 -138 77 -138 150
c0 87 66 151 155 151c42 0 79 -15 107 -43s40 -58 43 -106zM371 609h-89l-86 73l-88 -73h-91l145 125h66z" />
    <glyph glyph-name="scommaaccent" unicode="&#x219;" horiz-adv-x="388" 
d="M345 412h-70c-6 55 -36 86 -82 86c-47 0 -83 -35 -83 -81c0 -44 26 -67 104 -95c111 -38 150 -83 150 -168c0 -102 -67 -167 -170 -167c-100 0 -170 70 -170 169v6h70c3 -75 36 -112 100 -112c61 0 100 38 100 96c0 55 -29 83 -116 114c-101 36 -138 77 -138 150
c0 87 66 151 155 151c42 0 79 -15 107 -43s40 -58 43 -106zM254 -53l-77 -169h-74l77 169h74z" />
    <glyph glyph-name="tcaron" unicode="&#x165;" horiz-adv-x="365" 
d="M330 484h-131v-484h-70v484h-115v63h115v193h70v-193h131v-63zM390 785l-77 -169h-74l77 169h74z" />
    <glyph glyph-name="uring" unicode="&#x16f;" horiz-adv-x="608" 
d="M541 0h-66v85h-2c-35 -65 -94 -98 -177 -98c-76 0 -145 30 -186 82c-33 41 -48 98 -48 176v302h70v-301c0 -131 55 -196 166 -196c48 0 84 13 116 44c41 39 57 85 57 164v289h70v-547zM303 807c58 0 104 -46 104 -103c0 -58 -46 -104 -104 -104c-56 0 -103 47 -103 103
c0 57 47 104 103 104zM303 755c-28 0 -51 -24 -51 -52s23 -51 51 -51c29 0 52 23 52 51c0 29 -23 52 -52 52z" />
    <glyph glyph-name="uhungarumlaut" unicode="&#x171;" horiz-adv-x="608" 
d="M541 0h-66v85h-2c-35 -65 -94 -98 -177 -98c-76 0 -145 30 -186 82c-33 41 -48 98 -48 176v302h70v-301c0 -131 55 -196 166 -196c48 0 84 13 116 44c41 39 57 85 57 164v289h70v-547zM544 730l-164 -135l-38 46l162 135zM369 730l-164 -135l-38 46l161 135z" />
    <glyph glyph-name="zacute" unicode="&#x17a;" horiz-adv-x="425" 
d="M415 0h-405v61l303 423h-293v63h377v-63l-300 -421h318v-63zM354 706l-198 -107l-33 58l199 109z" />
    <glyph glyph-name="zdotaccent" unicode="&#x17c;" horiz-adv-x="425" 
d="M415 0h-405v61l303 423h-293v63h377v-63l-300 -421h318v-63zM249 619h-74v126h74v-126z" />
    <glyph glyph-name="hbar" unicode="&#x127;" horiz-adv-x="610" 
d="M543 0h-70v301c0 64 -19 118 -52 150c-30 29 -75 47 -119 47c-103 0 -170 -76 -170 -192v-306h-70v604h-62v63h62v73h70v-73h206v-63h-206v-127h2c40 56 96 84 171 84c145 0 238 -101 238 -260v-301z" />
    <glyph glyph-name="tcommaaccent" unicode="&#x163;" horiz-adv-x="339" 
d="M330 484h-131v-484h-70v484h-115v63h115v193h70v-193h131v-63zM219 -53l-77 -169h-74l77 169h74z" />
    <glyph glyph-name="wcircumflex" unicode="&#x175;" horiz-adv-x="831" 
d="M820 547l-209 -547h-79l-116 364h-2l-114 -364h-79l-208 547h73l172 -458h2l125 392h61l126 -392h2l174 458h72zM592 609h-89l-86 73l-88 -73h-91l145 125h66z" />
    <glyph glyph-name="amacron" unicode="&#x101;" horiz-adv-x="683" 
d="M621 0h-70v96h-2c-53 -73 -123 -109 -214 -109c-165 0 -293 126 -293 288c0 160 129 286 294 286c93 0 162 -36 213 -110h2v96h70v-547zM335 498c-128 0 -223 -97 -223 -226c0 -127 95 -222 223 -222c122 0 220 98 220 222c0 127 -97 226 -220 226zM510 629h-338v67h338
v-67z" />
    <glyph glyph-name="ycircumflex" unicode="&#x177;" 
d="M523 547l-317 -739h-73l95 210l-213 529h74l174 -436l186 436h74zM445 609h-89l-86 73l-88 -73h-91l145 125h66z" />
    <glyph glyph-name="ccircumflex" unicode="&#x109;" horiz-adv-x="647" 
d="M530 161h77c-66 -120 -149 -174 -270 -174c-166 0 -296 125 -296 286c0 159 131 288 295 288c73 0 144 -26 197 -74c34 -30 51 -54 74 -105h-77c-44 77 -110 116 -194 116c-126 0 -225 -98 -225 -223c0 -127 99 -225 227 -225c85 0 149 37 192 111zM510 609h-89l-86 73
l-88 -73h-91l145 125h66z" />
    <glyph glyph-name="emacron" unicode="&#x113;" horiz-adv-x="650" 
d="M518 179h74c-24 -59 -46 -91 -87 -125c-51 -43 -116 -67 -182 -67c-157 0 -285 128 -285 286s128 288 284 288s287 -132 287 -290v-13c-1 -5 -1 -5 -1 -7v-3h-498c7 -61 25 -99 66 -138c41 -38 94 -60 147 -60s105 19 143 54c25 21 37 39 52 75zM110 311h427
c-14 64 -35 102 -76 137c-38 32 -87 50 -138 50s-100 -18 -138 -51c-41 -35 -62 -73 -75 -136zM494 629h-338v67h338v-67z" />
    <glyph glyph-name="gcircumflex" unicode="&#x11d;" horiz-adv-x="673" 
d="M606 547v-461c0 -90 -11 -140 -41 -187c-45 -70 -132 -114 -229 -114c-81 0 -155 29 -207 81c-34 33 -50 61 -70 120h74c41 -93 108 -138 205 -138c121 0 198 80 198 204v48h-2c-44 -74 -117 -113 -212 -113c-158 0 -285 126 -285 284c0 161 128 290 286 290
c90 0 159 -37 211 -112h2v98h70zM323 498c-120 0 -216 -100 -216 -225c0 -124 96 -223 216 -223c118 0 217 101 217 222c0 125 -97 226 -217 226zM500 609h-89l-86 73l-88 -73h-91l145 125h66z" />
    <glyph glyph-name="ibreve" unicode="&#x12d;" horiz-adv-x="200" 
d="M135 0h-70v547h70v-547zM210 714h65c-30 -71 -84 -103 -175 -103s-144 32 -174 103h65c25 -31 60 -46 109 -46s85 15 110 46z" />
    <glyph glyph-name="imacron" unicode="&#x12b;" horiz-adv-x="200" 
d="M135 0h-70v547h70v-547zM269 629h-338v67h338v-67z" />
    <glyph glyph-name="jcircumflex" unicode="&#x135;" horiz-adv-x="203" 
d="M137 547v-521c0 -90 -15 -134 -60 -174c-35 -32 -65 -42 -121 -44v69c83 7 111 47 111 161v509h70zM283 609h-89l-86 73l-88 -73h-91l145 125h66z" />
    <glyph glyph-name="kcommaaccent" unicode="&#x137;" horiz-adv-x="502" 
d="M498 0h-90l-180 216l-88 -112v-104h-70v740h70v-527h2l255 334h90l-216 -276zM311 -53l-77 -169h-74l77 169h74z" />
    <glyph glyph-name="lcommaaccent" unicode="&#x13c;" horiz-adv-x="200" 
d="M135 0h-70v740h70v-740zM150 -53l-77 -169h-74l77 169h74z" />
    <glyph glyph-name="ncommaaccent" unicode="&#x146;" horiz-adv-x="610" 
d="M546 0h-70v301c0 64 -19 118 -52 150c-30 29 -75 47 -119 47c-103 0 -170 -76 -170 -192v-306h-70v547h70v-70h2c40 56 96 84 171 84c145 0 238 -101 238 -260v-301zM355 -53l-77 -169h-74l77 169h74z" />
    <glyph glyph-name="omacron" unicode="&#x14d;" horiz-adv-x="655" 
d="M327 561c155 0 287 -131 287 -285c0 -159 -129 -289 -287 -289c-155 0 -285 129 -285 284c0 159 128 290 285 290zM328 498c-119 0 -216 -101 -216 -226c0 -123 97 -222 216 -222c121 0 216 99 216 224c0 124 -97 224 -216 224zM496 629h-338v67h338v-67z" />
    <glyph glyph-name="rcommaaccent" unicode="&#x157;" horiz-adv-x="301" 
d="M291 561v-74c-61 -8 -94 -24 -123 -60c-22 -28 -33 -64 -33 -107v-320h-70v547h70v-79h2c27 61 70 87 154 93zM160 -53l-77 -169h-74l77 169h74z" />
    <glyph glyph-name="ubreve" unicode="&#x16d;" horiz-adv-x="608" 
d="M541 0h-66v85h-2c-35 -65 -94 -98 -177 -98c-76 0 -145 30 -186 82c-33 41 -48 98 -48 176v302h70v-301c0 -131 55 -196 166 -196c48 0 84 13 116 44c41 39 57 85 57 164v289h70v-547zM414 714h65c-30 -71 -84 -103 -175 -103s-144 32 -174 103h65c25 -31 60 -46 109 -46
s85 15 110 46z" />
    <glyph glyph-name="umacron" unicode="&#x16b;" horiz-adv-x="608" 
d="M541 0h-66v85h-2c-35 -65 -94 -98 -177 -98c-76 0 -145 30 -186 82c-33 41 -48 98 -48 176v302h70v-301c0 -131 55 -196 166 -196c48 0 84 13 116 44c41 39 57 85 57 164v289h70v-547zM473 629h-338v67h338v-67z" />
    <glyph glyph-name="uogonek" unicode="&#x173;" horiz-adv-x="608" 
d="M566 -138v-44c-20 -7 -33 -9 -50 -9c-62 0 -105 37 -105 90c0 40 19 67 72 101h-8v85h-2c-35 -65 -94 -98 -177 -98c-76 0 -145 30 -186 82c-33 41 -48 98 -48 176v302h70v-301c0 -131 55 -196 166 -196c48 0 84 13 116 44c41 39 57 85 57 164v289h70v-547h-6
c-57 -44 -75 -67 -75 -98c0 -29 25 -50 59 -50c14 0 30 3 47 10z" />
    <glyph glyph-name="rcaron" unicode="&#x159;" horiz-adv-x="301" 
d="M291 561v-74c-61 -8 -94 -24 -123 -60c-22 -28 -33 -64 -33 -107v-320h-70v547h70v-79h2c27 61 70 87 154 93zM352 734l-143 -125h-67l-145 125h92l86 -73l88 73h89z" />
    <glyph glyph-name="scedilla" unicode="&#x15f;" horiz-adv-x="388" 
d="M202 -13l-21 -43c11 3 20 4 32 4c42 0 73 -36 73 -86c0 -49 -38 -84 -91 -84c-45 0 -74 27 -84 77l42 2c6 -26 23 -42 46 -42c28 0 46 21 46 52c0 30 -17 47 -48 47c-17 0 -27 -5 -40 -19l-36 21l39 74c-46 10 -72 24 -97 53c-25 30 -39 70 -39 113v6h70
c3 -75 36 -112 100 -112c61 0 100 38 100 96c0 55 -29 83 -116 114c-101 36 -138 77 -138 150c0 87 66 151 155 151c42 0 79 -15 107 -43s40 -58 43 -106h-70c-6 55 -36 86 -82 86c-47 0 -83 -35 -83 -81c0 -44 26 -67 104 -95c109 -38 150 -84 150 -170
c0 -47 -15 -88 -43 -117c-29 -30 -62 -43 -119 -48z" />
    <glyph glyph-name="gcommaaccent" unicode="&#x123;" horiz-adv-x="673" 
d="M606 547v-461c0 -90 -11 -140 -41 -187c-45 -70 -132 -114 -229 -114c-81 0 -155 29 -207 81c-34 33 -50 61 -70 120h74c41 -93 108 -138 205 -138c121 0 198 80 198 204v48h-2c-44 -74 -117 -113 -212 -113c-158 0 -285 126 -285 284c0 161 128 290 286 290
c90 0 159 -37 211 -112h2v98h70zM323 498c-120 0 -216 -100 -216 -225c0 -124 96 -223 216 -223c118 0 217 101 217 222c0 125 -97 226 -217 226zM419 765l-77 -169h-74l77 169h74z" />
    <glyph glyph-name="Euro" unicode="&#x20ac;" horiz-adv-x="554" 
d="M474 169h70c-21 -124 -88 -182 -210 -182c-87 0 -145 30 -187 97c-30 47 -43 98 -50 188h-89l25 63h61v36v34h-86l25 63h65c9 85 25 139 54 186c40 64 105 99 185 99c115 0 188 -66 203 -183h-70c-14 77 -60 116 -136 116c-60 0 -105 -29 -132 -84
c-16 -33 -25 -70 -31 -134h312l-25 -63h-290v-34v-36h262l-25 -63h-234c11 -152 60 -218 164 -218c79 0 123 36 139 115z" />
    <glyph glyph-name="franc" unicode="&#x20a3;" horiz-adv-x="555" 
d="M55 0v740h315v-67h-241v-268h230v-67h-230v-338h-74zM385 0v330h57v-36c23 30 51 42 101 44v-51c-32 -3 -46 -7 -65 -22c-25 -20 -34 -38 -34 -74v-191h-59z" />
    <glyph glyph-name="one.fitted" horiz-adv-x="344" 
d="M229 0h-74v673h-127v67h201v-740z" />
    <glyph glyph-name="two.fitted" horiz-adv-x="559" 
d="M42 501v2c0 115 50 195 144 232c31 12 62 18 94 18c101 0 183 -58 217 -154c9 -24 13 -48 13 -71c0 -80 -32 -134 -136 -234l-238 -227h370v-67h-470v67l260 250c68 66 68 66 86 86c37 45 54 85 54 127c0 85 -73 156 -161 156c-57 0 -104 -26 -132 -73
c-19 -33 -25 -59 -27 -112h-74z" />
    <glyph glyph-name="three.fitted" horiz-adv-x="554" 
d="M157 555h-74c5 69 22 111 60 149c33 32 77 49 127 49c107 0 187 -81 187 -190c0 -57 -20 -93 -76 -139c83 -47 125 -114 125 -197c0 -135 -102 -240 -232 -240c-46 0 -93 14 -134 39c-66 42 -99 106 -106 206h74c4 -45 9 -67 22 -92c29 -54 82 -86 144 -86
c92 0 158 70 158 168c0 58 -30 111 -81 141c-31 19 -55 24 -114 26h-17v65h13c8 -1 9 -1 15 -1c81 0 135 47 135 117c0 67 -48 116 -114 116s-108 -49 -112 -131z" />
    <glyph glyph-name="four.fitted" horiz-adv-x="568" 
d="M528 135h-67v-135h-74v135h-373v67l359 538h88v-538h67v-67zM387 202v436h-2l-286 -436h288z" />
    <glyph glyph-name="five.fitted" horiz-adv-x="578" 
d="M194 673l-37 -204c47 25 83 35 126 35c138 0 247 -114 247 -259c0 -143 -112 -258 -251 -258c-44 0 -92 14 -132 38c-68 41 -105 105 -121 208h74c8 -58 23 -92 55 -125c32 -35 75 -54 123 -54c99 0 178 85 178 192s-78 192 -176 192c-58 0 -108 -27 -154 -84l-58 21
l67 365h333v-67h-274z" />
    <glyph glyph-name="six.fitted" horiz-adv-x="576" 
d="M218 489l2 -1c25 11 46 16 71 16c139 0 247 -113 247 -257c0 -148 -109 -260 -254 -260s-252 111 -252 261c0 69 19 115 89 220l184 272h84zM285 437c-101 0 -179 -84 -179 -193c0 -107 79 -190 179 -190c101 0 179 83 179 190c0 109 -77 193 -179 193z" />
    <glyph glyph-name="seven.fitted" horiz-adv-x="467" 
d="M443 673l-303 -673h-78l305 673h-352v67h428v-67z" />
    <glyph glyph-name="eight.fitted" horiz-adv-x="564" 
d="M390 413c84 -44 128 -112 128 -198c0 -125 -106 -228 -235 -228c-130 0 -237 103 -237 228c0 88 47 161 127 198c-59 41 -87 89 -87 150c0 106 86 190 196 190c109 0 196 -85 196 -192c0 -62 -31 -114 -88 -148zM283 686c-68 0 -123 -54 -123 -121
c0 -66 56 -121 123 -121c66 0 121 54 121 119c0 68 -54 123 -121 123zM282 375c-89 0 -162 -72 -162 -159c0 -92 71 -162 163 -162c89 0 161 72 161 160c0 89 -72 161 -162 161z" />
    <glyph glyph-name="nine.fitted" horiz-adv-x="576" 
d="M358 251l-2 1c-22 -11 -43 -16 -71 -16c-139 0 -247 112 -247 257c0 147 110 259 254 259c145 0 252 -111 252 -261c0 -69 -19 -115 -89 -219l-184 -272h-84zM291 685c-102 0 -179 -82 -179 -191c0 -108 78 -191 179 -191c100 0 179 84 179 191c0 108 -78 191 -179 191z
" />
    <glyph glyph-name="zero.fitted" horiz-adv-x="576" 
d="M40 270v216c0 54 9 99 28 136c41 81 125 131 220 131s179 -50 220 -131c19 -37 28 -82 28 -136v-216c0 -67 -13 -126 -37 -168c-41 -72 -120 -115 -211 -115s-170 43 -211 115c-24 42 -37 101 -37 168zM462 281v188c0 50 -11 101 -28 134c-25 48 -87 83 -146 83
c-56 0 -114 -32 -142 -76c-19 -31 -32 -87 -32 -141v-188c0 -60 8 -109 24 -140c27 -54 83 -87 150 -87c70 0 129 36 154 95c13 29 20 77 20 132z" />
    <glyph glyph-name="one.numerator" horiz-adv-x="214" 
d="M149 296h-60v390h-75v54h135v-444z" />
    <glyph glyph-name="two.numerator" horiz-adv-x="352" 
d="M26 586v5c0 94 59 156 148 156c83 0 147 -61 147 -139c0 -49 -20 -83 -82 -140l-129 -118h210v-54h-298v49l158 147c39 36 39 36 49 47c22 25 32 47 32 70c0 46 -40 84 -88 84c-57 0 -85 -35 -87 -107h-60z" />
    <glyph glyph-name="three.numerator" horiz-adv-x="348" 
d="M114 618h-60c5 82 49 129 121 129c70 0 120 -49 120 -117c0 -34 -10 -54 -41 -80c48 -32 70 -67 70 -115c0 -83 -65 -146 -149 -146c-42 0 -80 14 -106 40c-29 29 -42 61 -45 116h60c3 -65 36 -102 92 -102c51 0 88 37 88 89c0 40 -29 74 -70 84c-13 3 -28 4 -57 4v54h24
c45 0 74 23 74 59s-25 60 -61 60c-37 0 -58 -27 -60 -75z" />
    <glyph glyph-name="four.numerator" horiz-adv-x="385" 
d="M353 374h-41v-78h-59v78h-225v49l219 317h65v-312h41v-54zM253 428v222h-2l-149 -222h151z" />
    <glyph glyph-name="five.numerator" horiz-adv-x="364" 
d="M136 686l-19 -106c21 14 47 21 76 21c84 0 147 -65 147 -153c0 -91 -66 -159 -155 -159c-39 0 -76 14 -105 39c-30 28 -45 57 -53 107h60c11 -58 47 -92 99 -92c55 0 95 42 95 101c0 60 -41 104 -96 104c-35 0 -63 -14 -88 -43c-16 4 -20 5 -46 12l40 223h214v-54h-169z
" />
    <glyph glyph-name="six.numerator" horiz-adv-x="369" 
d="M151 588v-1c12 8 30 12 49 12c80 0 145 -68 145 -152c0 -89 -69 -158 -158 -158s-159 68 -159 153c0 39 12 73 37 110l129 188h70zM186 547c-58 0 -98 -42 -98 -102s41 -102 98 -102c56 0 99 43 99 100c0 60 -42 104 -99 104z" />
    <glyph glyph-name="seven.numerator" horiz-adv-x="298" 
d="M275 688l-177 -392h-63l179 390h-209v54h270v-52z" />
    <glyph glyph-name="eight.numerator" horiz-adv-x="344" 
d="M248 543c47 -26 72 -66 72 -115c0 -77 -65 -139 -148 -139c-82 0 -148 62 -148 140c0 49 25 88 72 114c-30 25 -45 54 -45 89c0 64 53 115 121 115s121 -51 121 -115c0 -35 -15 -64 -45 -89zM172 514c-51 0 -88 -36 -88 -87c0 -49 37 -84 88 -84c50 0 88 35 88 83
c0 52 -36 88 -88 88zM172 694c-38 0 -65 -27 -65 -63c0 -38 27 -65 65 -65s65 27 65 64s-27 64 -65 64z" />
    <glyph glyph-name="nine.numerator" horiz-adv-x="369" 
d="M218 448v1c-12 -8 -30 -12 -49 -12c-80 0 -145 68 -145 152c0 89 69 158 158 158s159 -68 159 -153c0 -39 -12 -73 -37 -110l-129 -188h-70zM183 693c-56 0 -99 -43 -99 -100c0 -60 42 -104 99 -104s98 42 98 102s-41 102 -98 102z" />
    <glyph glyph-name="zero.numerator" horiz-adv-x="368" 
d="M28 441v156c0 85 68 150 156 150s156 -65 156 -150v-156c0 -90 -63 -152 -156 -152s-156 62 -156 152zM280 436v165c0 55 -38 92 -96 92s-96 -37 -96 -92v-165c0 -56 38 -93 95 -93c58 0 97 38 97 93z" />
    <glyph glyph-name="one.denominator" horiz-adv-x="214" 
d="M149 0h-60v390h-75v54h135v-444z" />
    <glyph glyph-name="two.denominator" horiz-adv-x="352" 
d="M26 290v5c0 94 59 156 148 156c83 0 147 -61 147 -139c0 -49 -20 -83 -82 -140l-129 -118h210v-54h-298v49l158 147c39 36 39 36 49 47c22 25 32 47 32 70c0 46 -40 84 -88 84c-57 0 -85 -35 -87 -107h-60z" />
    <glyph glyph-name="three.denominator" horiz-adv-x="348" 
d="M114 322h-60c5 82 49 129 121 129c70 0 120 -49 120 -117c0 -34 -10 -54 -41 -80c48 -32 70 -67 70 -115c0 -83 -65 -146 -149 -146c-42 0 -80 14 -106 40c-29 29 -42 61 -45 116h60c3 -65 36 -102 92 -102c51 0 88 37 88 89c0 40 -29 74 -70 84c-13 3 -28 4 -57 4v54h24
c45 0 74 23 74 59s-25 60 -61 60c-37 0 -58 -27 -60 -75z" />
    <glyph glyph-name="four.denominator" horiz-adv-x="385" 
d="M353 78h-41v-78h-59v78h-225v49l219 317h65v-312h41v-54zM253 132v222h-2l-149 -222h151z" />
    <glyph glyph-name="five.denominator" horiz-adv-x="364" 
d="M136 390l-19 -106c21 14 47 21 76 21c84 0 147 -65 147 -153c0 -91 -66 -159 -155 -159c-39 0 -76 14 -105 39c-30 28 -45 57 -53 107h60c11 -58 47 -92 99 -92c55 0 95 42 95 101c0 60 -41 104 -96 104c-35 0 -63 -14 -88 -43c-16 4 -20 5 -46 12l40 223h214v-54h-169z
" />
    <glyph glyph-name="six.denominator" horiz-adv-x="369" 
d="M151 292v-1c12 8 30 12 49 12c80 0 145 -68 145 -152c0 -89 -69 -158 -158 -158s-159 68 -159 153c0 39 12 73 37 110l129 188h70zM186 251c-58 0 -98 -42 -98 -102s41 -102 98 -102c56 0 99 43 99 100c0 60 -42 104 -99 104z" />
    <glyph glyph-name="seven.denominator" horiz-adv-x="298" 
d="M275 392l-177 -392h-63l179 390h-209v54h270v-52z" />
    <glyph glyph-name="eight.denominator" horiz-adv-x="344" 
d="M248 247c47 -26 72 -66 72 -115c0 -77 -65 -139 -148 -139c-82 0 -148 62 -148 140c0 49 25 88 72 114c-30 25 -45 54 -45 89c0 64 53 115 121 115s121 -51 121 -115c0 -35 -15 -64 -45 -89zM172 218c-51 0 -88 -36 -88 -87c0 -49 37 -84 88 -84c50 0 88 35 88 83
c0 52 -36 88 -88 88zM172 398c-38 0 -65 -27 -65 -63c0 -38 27 -65 65 -65s65 27 65 64s-27 64 -65 64z" />
    <glyph glyph-name="nine.denominator" horiz-adv-x="369" 
d="M218 152v1c-12 -8 -30 -12 -49 -12c-80 0 -145 68 -145 152c0 89 69 158 158 158s159 -68 159 -153c0 -39 -12 -73 -37 -110l-129 -188h-70zM183 397c-56 0 -99 -43 -99 -100c0 -60 42 -104 99 -104s98 42 98 102s-41 102 -98 102z" />
    <glyph glyph-name="zero.denominator" horiz-adv-x="368" 
d="M28 145v156c0 85 68 150 156 150s156 -65 156 -150v-156c0 -90 -63 -152 -156 -152s-156 62 -156 152zM280 140v165c0 55 -38 92 -96 92s-96 -37 -96 -92v-165c0 -56 38 -93 95 -93c58 0 97 38 97 93z" />
    <glyph glyph-name="anoteleia" unicode="&#x387;" horiz-adv-x="277" 
d="M176 190h-74v126h74v-126z" />
    <glyph glyph-name="dotmath" unicode="&#x22c5;" horiz-adv-x="277" 
d="M176 190h-74v126h74v-126z" />
    <glyph glyph-name="uni00AD" unicode="&#xad;" horiz-adv-x="332" 
d="M302 248h-272v67h272v-67z" />
    <glyph glyph-name="uni2011" unicode="&#x2011;" horiz-adv-x="332" 
d="M302 248h-272v67h272v-67z" />
    <glyph glyph-name="afii00208" unicode="&#x2015;" horiz-adv-x="1000" 
d="M965 248h-930v67h930v-67z" />
    <glyph glyph-name="Dieresis" unicode="&#xf6cb;" 
d="M379 802h-74v126h74v-126zM231 802h-74v126h74v-126z" />
    <glyph glyph-name="Dotaccent" 
d="M315 801h-74v126h74v-126z" />
    <glyph glyph-name="Ring" horiz-adv-x="740" 
d="M370 903c-29 0 -52 -23 -52 -51c0 -29 23 -52 52 -52c28 0 51 23 51 52c0 28 -23 51 -51 51zM371 955c56 0 102 -47 102 -103c0 -58 -46 -104 -103 -104c-58 0 -104 46 -104 104c0 57 47 103 105 103z" />
    <glyph glyph-name="Acute" unicode="&#xf6c9;" 
d="M390 889l-198 -107l-33 58l199 109z" />
    <glyph glyph-name="Grave" unicode="&#xf6ce;" 
d="M379 840l-33 -58l-198 107l32 60z" />
    <glyph glyph-name="Circumflex" 
d="M445 802h-89l-86 73l-88 -73h-91l145 125h66z" />
    <glyph glyph-name="Caron" unicode="&#xf6ca;" 
d="M460 926l-143 -125h-67l-145 125h92l86 -73l88 73h89z" />
    <glyph glyph-name="Breve" horiz-adv-x="740" 
d="M480 906h65c-30 -71 -84 -103 -175 -103s-144 32 -174 103h65c25 -31 60 -46 109 -46s85 15 110 46z" />
    <glyph glyph-name="Tilde" horiz-adv-x="740" 
d="M507 892l36 -49c-37 -26 -69 -39 -99 -39c-23 0 -44 6 -81 23c-32 14 -46 18 -64 18c-22 0 -44 -10 -66 -30l-35 50c32 29 65 42 103 42c24 0 43 -5 80 -22c32 -15 46 -19 63 -19s29 5 63 26z" />
    <glyph glyph-name="Hungarumlaut" unicode="&#xf6cf;" horiz-adv-x="869" 
d="M664 912l-164 -135l-38 46l162 135zM489 912l-164 -135l-38 46l161 135z" />
    <glyph glyph-name="Cedilla" horiz-adv-x="813" 
d="M421 0l-28 -56c11 3 20 4 32 4c42 0 73 -36 73 -86c0 -49 -38 -84 -91 -84c-45 0 -74 27 -84 77l42 2c6 -26 23 -42 46 -42c28 0 46 21 46 52c0 30 -17 47 -48 47c-17 0 -27 -5 -40 -19l-36 21l46 87z" />
    <glyph glyph-name="Ogonek" horiz-adv-x="272" 
d="M269 -138v-44c-20 -7 -33 -9 -50 -9c-62 0 -105 37 -105 90c0 40 19 67 72 101h52c-57 -44 -75 -67 -75 -98c0 -29 25 -50 59 -50c14 0 30 3 47 10z" />
    <glyph glyph-name="Macron" unicode="&#xf6d0;" 
d="M437 821h-338v67h338v-67z" />
    <glyph glyph-name="commaaccent.cap" horiz-adv-x="426" 
d="M263 -53l-77 -169h-74l77 169h74z" />
    <glyph glyph-name="uniEA67" unicode="&#xea67;" horiz-adv-x="462" 
d="M418 740l-77 -169h-74l77 169h74z" />
    <glyph glyph-name="uniEA68" unicode="&#xea68;" horiz-adv-x="226" 
d="M224 802h-74v126h74v-126zM76 802h-74v126h74v-126z" />
    <glyph glyph-name="uni02C9" unicode="&#x2c9;" horiz-adv-x="485" 
d="M411 629h-338v67h338v-67z" />
    <glyph glyph-name="commaaccent" unicode="&#xf6c3;" horiz-adv-x="324" 
d="M232 -53l-77 -169h-74l77 169h74z" />
    <glyph glyph-name="uniEA3F" unicode="&#xea3f;" horiz-adv-x="340" 
d="M365 740l-77 -169h-74l77 169h74z" />
    <glyph glyph-name="uniEA6A" unicode="&#xea6a;" horiz-adv-x="200" 
d="M211 639h-74v126h74v-126zM63 639h-74v126h74v-126z" />
    <glyph glyph-name="hcircumflex" unicode="&#x125;" horiz-adv-x="610" 
d="M543 0h-70v301c0 64 -19 118 -52 150c-30 29 -75 47 -119 47c-103 0 -170 -76 -170 -192v-306h-70v740h70v-263h2c40 56 96 84 171 84c145 0 238 -101 238 -260v-301zM337 801h-89l-86 73l-88 -73h-91l145 125h66z" />
    <glyph glyph-name="ebreve" unicode="&#x115;" horiz-adv-x="650" 
d="M518 179h74c-24 -59 -46 -91 -87 -125c-51 -43 -116 -67 -182 -67c-157 0 -285 128 -285 286s128 288 284 288s287 -132 287 -290v-13c-1 -5 -1 -5 -1 -7v-3h-498c7 -61 25 -99 66 -138c41 -38 94 -60 147 -60s105 19 143 54c25 21 37 39 52 75zM110 311h427
c-14 64 -35 102 -76 137c-38 32 -87 50 -138 50s-100 -18 -138 -51c-41 -35 -62 -73 -75 -136zM435 714h65c-30 -71 -84 -103 -175 -103s-144 32 -174 103h65c25 -31 60 -46 109 -46s85 15 110 46z" />
    <glyph glyph-name="iogonek" unicode="&#x12f;" horiz-adv-x="200" 
d="M164 -138v-44c-20 -7 -33 -9 -50 -9c-62 0 -105 37 -105 90c0 40 19 67 72 101h-16v547h70v-547h-2c-57 -44 -75 -67 -75 -98c0 -29 25 -50 59 -50c14 0 30 3 47 10zM135 614h-70v126h70v-126z" />
    <glyph glyph-name="ldot" unicode="&#x140;" horiz-adv-x="274" 
d="M135 0h-70v740h70v-740zM274 319h-74v126h74v-126z" />
    <glyph glyph-name="obreve" unicode="&#x14f;" horiz-adv-x="655" 
d="M327 561c155 0 287 -131 287 -285c0 -159 -129 -289 -287 -289c-155 0 -285 129 -285 284c0 159 128 290 285 290zM328 498c-119 0 -216 -101 -216 -226c0 -123 97 -222 216 -222c121 0 216 99 216 224c0 124 -97 224 -216 224zM437 714h65c-30 -71 -84 -103 -175 -103
s-144 32 -174 103h65c25 -31 60 -46 109 -46s85 15 110 46z" />
    <glyph glyph-name="oslashacute" unicode="&#x1ff;" horiz-adv-x="653" 
d="M597 573l-72 -94c59 -62 88 -129 88 -205c0 -157 -130 -287 -287 -287c-53 0 -99 13 -145 42l-71 -93l-54 38l72 95c-59 61 -87 126 -87 202c0 159 129 290 285 290c52 0 96 -13 144 -41l72 94zM485 426l-264 -345c35 -21 68 -31 107 -31c121 0 215 100 215 227
c0 59 -18 106 -58 149zM169 123l262 345c-36 21 -67 30 -105 30c-119 0 -215 -101 -215 -227c0 -57 18 -104 58 -148zM462 706l-198 -107l-33 58l199 109z" />
    <glyph glyph-name="itilde" unicode="&#x129;" horiz-adv-x="200" 
d="M135 0h-70v547h70v-547zM237 709l36 -49c-37 -26 -69 -39 -99 -39c-23 0 -44 6 -81 23c-32 14 -46 18 -64 18c-22 0 -44 -10 -66 -30l-35 50c32 29 65 42 103 42c24 0 43 -5 80 -22c32 -15 46 -19 63 -19c16 0 31 6 55 21c4 3 4 3 8 5z" />
    <glyph glyph-name="utilde" unicode="&#x169;" horiz-adv-x="608" 
d="M541 0h-66v85h-2c-35 -65 -94 -98 -177 -98c-76 0 -145 30 -186 82c-33 41 -48 98 -48 176v302h70v-301c0 -131 55 -196 166 -196c48 0 84 13 116 44c41 39 57 85 57 164v289h70v-547zM441 709l36 -49c-37 -26 -69 -39 -99 -39c-23 0 -44 6 -81 23c-32 14 -46 18 -64 18
c-22 0 -44 -10 -66 -30l-35 50c32 29 65 42 103 42c24 0 43 -5 80 -22c32 -15 46 -19 63 -19c16 0 31 6 55 21c4 3 4 3 8 5z" />
    <glyph glyph-name="Ldot" unicode="&#x13f;" horiz-adv-x="492" 
d="M462 0h-380v740h74v-673h306v-67zM388 333h-74v126h74v-126z" />
    <glyph glyph-name="Obreve" unicode="&#x14e;" horiz-adv-x="869" 
d="M434 753c214 0 392 -172 392 -380c0 -213 -175 -386 -392 -386c-213 0 -391 173 -391 380c0 213 175 386 391 386zM434 686c-174 0 -317 -144 -317 -319c0 -171 144 -313 317 -313s318 142 318 313c0 176 -143 319 -318 319zM544 906h65c-30 -71 -84 -103 -175 -103
s-144 32 -174 103h65c25 -31 60 -46 109 -46s85 15 110 46z" />
    <glyph glyph-name="Scommaaccent" unicode="&#x218;" horiz-adv-x="498" 
d="M455 552h-74c-2 42 -13 69 -39 95c-25 25 -58 39 -93 39c-74 0 -133 -56 -133 -128c0 -39 18 -74 47 -91s59 -29 117 -45c129 -38 193 -109 193 -217c0 -123 -98 -218 -225 -218c-63 0 -122 22 -162 62c-42 41 -59 84 -64 158h74c5 -54 17 -85 46 -113
c27 -26 64 -40 106 -40c86 0 151 64 151 148c0 78 -44 120 -165 157c-68 21 -98 33 -125 53c-46 33 -67 78 -67 141c0 114 89 200 208 200c56 0 109 -21 147 -59s55 -78 58 -142zM309 -53l-77 -169h-74l77 169h74z" />
    <glyph glyph-name="Ubreve" unicode="&#x16c;" horiz-adv-x="655" 
d="M579 740v-461c0 -61 -10 -114 -28 -154c-40 -87 -123 -138 -224 -138s-184 51 -224 138c-18 40 -28 93 -28 154v461h74v-461c0 -52 8 -97 21 -127c30 -62 86 -98 157 -98c68 0 122 33 153 91c16 32 25 77 25 134v461h74zM437 906h65c-30 -71 -84 -103 -175 -103
s-144 32 -174 103h65c25 -31 60 -46 109 -46s85 15 110 46z" />
    <glyph glyph-name="Oslashacute" unicode="&#x1fe;" horiz-adv-x="868" 
d="M785 779l-92 -123c90 -84 133 -176 133 -285c0 -212 -176 -384 -393 -384c-72 0 -132 17 -200 56l-94 -126l-55 40l93 126c-91 84 -134 178 -134 287c0 211 177 383 393 383c72 0 132 -17 202 -57l92 123zM651 600l-377 -502c56 -30 105 -44 161 -44
c173 0 317 143 317 315c0 88 -31 160 -101 231zM219 139l377 502c-56 32 -103 45 -161 45c-174 0 -318 -143 -318 -317c0 -89 33 -164 102 -230zM569 889l-198 -107l-33 58l199 109z" />
    <glyph glyph-name="AEacute" unicode="&#x1fc;" horiz-adv-x="992" 
d="M907 0h-391v250h-273l-174 -250h-89l515 740h412v-67h-317v-266h306v-67h-306v-273h317v-67zM516 317v328h-2l-224 -328h226zM721 889l-198 -107l-33 58l199 109z" />
    <glyph glyph-name="Eng" unicode="&#x14a;" horiz-adv-x="740" 
d="M664 740v-714c0 -90 -15 -134 -60 -174c-36 -32 -67 -43 -125 -44v73c69 3 103 40 109 119l-437 651h-2v-651h-74v740h100l413 -617h2v617h74z" />
    <glyph glyph-name="Tbar" unicode="&#x166;" horiz-adv-x="426" 
d="M389 347h-139v-347h-74v347h-140v67h140v259h-170v67h413v-67h-169v-259h139v-67z" />
    <glyph glyph-name="eng" unicode="&#x14b;" horiz-adv-x="610" 
d="M135 477h2c40 56 96 84 171 84c145 0 238 -101 238 -260v-275c0 -90 -15 -134 -60 -174c-35 -32 -65 -42 -121 -44v69c83 7 111 47 111 161v263c0 64 -19 118 -52 150c-30 29 -75 47 -119 47c-103 0 -170 -76 -170 -192v-306h-70v547h70v-70z" />
    <glyph glyph-name="tbar" unicode="&#x167;" horiz-adv-x="339" 
d="M310 259h-111v-259h-70v259h-95v63h95v162h-115v63h115v193h70v-193h131v-63h-131v-162h111v-63z" />
    <glyph glyph-name="kgreenlandic" unicode="&#x138;" horiz-adv-x="506" 
d="M498 0h-90l-202 228l-66 -71v-157h-70v547h70v-296h2l270 296h90l-249 -268z" />
    <glyph glyph-name="napostrophe" unicode="&#x149;" horiz-adv-x="620" 
d="M556 0h-70v301c0 64 -19 118 -52 150c-30 29 -75 47 -119 47c-103 0 -170 -76 -170 -192v-306h-70v547h70v-70h2c40 56 96 84 171 84c145 0 238 -101 238 -260v-301zM86 740l-88 -193h-74l88 193h74z" />
    <glyph glyph-name="Utilde" unicode="&#x168;" horiz-adv-x="655" 
d="M579 740v-461c0 -61 -10 -114 -28 -154c-40 -87 -123 -138 -224 -138s-184 51 -224 138c-18 40 -28 93 -28 154v461h74v-461c0 -52 8 -97 21 -127c30 -62 86 -98 157 -98c68 0 122 33 153 91c16 32 25 77 25 134v461h74zM464 891l36 -49c-37 -26 -69 -39 -99 -39
c-23 0 -44 6 -81 23c-32 14 -46 18 -64 18c-22 0 -44 -10 -66 -30l-35 50c32 29 65 42 103 42c24 0 43 -5 80 -22c32 -15 46 -19 63 -19c16 0 31 6 55 21c4 3 4 3 8 5z" />
    <glyph glyph-name="aeacute" unicode="&#x1fd;" horiz-adv-x="1157" 
d="M615 446h2c22 37 41 55 76 76c41 25 91 39 139 39c153 0 282 -133 282 -291v-13c-1 -5 -1 -5 -1 -7v-3h-495c9 -64 29 -104 70 -141c40 -36 90 -56 143 -56c52 0 104 20 143 54c25 22 36 39 51 74h70c-21 -58 -42 -89 -83 -124c-51 -43 -117 -67 -181 -67
c-88 0 -164 39 -214 112h-2v-99h-70v99h-2c-55 -78 -121 -112 -216 -112c-122 0 -225 67 -270 176c-15 36 -23 74 -23 109s8 73 23 109c46 112 149 180 270 180c99 0 168 -37 216 -115h2v101h70v-101zM618 310h425c-13 64 -34 102 -75 138c-38 32 -86 50 -137 50
s-100 -18 -138 -51c-41 -35 -62 -74 -75 -137zM328 498c-124 0 -224 -102 -224 -227c0 -123 99 -221 223 -221s221 96 221 221c0 129 -95 227 -220 227zM724 706l-198 -107l-33 58l199 109z" />
    <glyph glyph-name="Itilde" unicode="&#x128;" horiz-adv-x="226" 
d="M150 0h-74v740h74v-740zM250 891l36 -49c-37 -26 -69 -39 -99 -39c-23 0 -44 6 -81 23c-32 14 -46 18 -64 18c-22 0 -44 -10 -66 -30l-35 50c32 29 65 42 103 42c24 0 43 -5 80 -22c32 -15 46 -19 63 -19c16 0 31 6 55 21c4 3 4 3 8 5z" />
    <glyph glyph-name="uni00A0" unicode="&#xa0;" horiz-adv-x="277" 
 />
    <glyph glyph-name="lozenge" unicode="&#x25ca;" horiz-adv-x="512" 
d="M452 350l-183 -350h-40c-30 58 -60 116 -91 175c-30 58 -60 116 -91 174c62 120 116 225 182 351h40zM390 350l-141 270l-140 -270c50 -99 70 -137 140 -270l70 135c36 69 45 86 71 135z" />
    <glyph glyph-name="Delta" unicode="&#x2206;" horiz-adv-x="555" 
d="M551 0h-531v38c74 220 147 441 221 662h93l217 -662v-38zM464 63l-123 378c-33 98 -40 121 -47 150c-3 11 -5 22 -8 32h-3c-5 -22 -9 -38 -13 -51c-5 -18 -88 -273 -165 -509h359z" />
    <glyph glyph-name="notequal" unicode="&#x2260;" horiz-adv-x="606" 
d="M516 506l-83 -118h122v-68h-165l-94 -134h259v-68h-301l-83 -118h-81l82 118h-121v68h163l93 134h-256v68h299l82 118h84z" />
    <glyph glyph-name="radical" unicode="&#x221a;" horiz-adv-x="456" 
d="M470 728l-172 -740h-64l-126 341l-51 -30c-5 9 -5 9 -13 23c-6 11 -9 16 -13 22c35 20 49 29 114 68l60 -163c20 -55 40 -109 60 -162l147 641h58z" />
    <glyph glyph-name="integral" unicode="&#x222b;" horiz-adv-x="460" 
d="M189 -67v655c0 100 55 161 144 161c25 0 50 -5 64 -12c-5 -17 -8 -28 -16 -57c-12 6 -26 9 -41 9c-50 0 -77 -35 -77 -97v-654c0 -100 -53 -160 -142 -160c-25 0 -50 4 -65 10l15 57c15 -5 26 -7 40 -7c52 0 78 32 78 95z" />
    <glyph glyph-name="approxequal" unicode="&#x2248;" horiz-adv-x="606" 
d="M498 409l36 -50c-47 -66 -77 -86 -125 -86c-30 0 -56 9 -108 36c-53 28 -78 36 -109 36c-34 0 -59 -22 -84 -76l-36 50c32 60 70 86 124 86c34 0 66 -10 133 -43c49 -23 66 -29 83 -29c28 0 47 17 86 76zM498 229l36 -50c-47 -66 -77 -86 -125 -86c-30 0 -56 9 -108 36
c-53 28 -78 36 -109 36c-34 0 -59 -22 -84 -76l-36 50c32 60 70 86 124 86c34 0 66 -10 133 -43c49 -23 66 -29 83 -29c28 0 47 17 86 76z" />
    <glyph glyph-name="uni2243" unicode="&#x2243;" horiz-adv-x="606" 
d="M51 201h504v-68h-504v68zM498 409l36 -50c-47 -66 -77 -86 -125 -86c-30 0 -56 9 -108 36c-53 28 -78 36 -109 36c-34 0 -59 -22 -84 -76l-36 50c32 60 70 86 124 86c34 0 66 -10 133 -43c49 -23 66 -29 83 -29c28 0 47 17 86 76z" />
    <glyph glyph-name="lessequal" unicode="&#x2264;" horiz-adv-x="606" 
d="M554 92l-508 230v62l508 230v-68l-425 -193l425 -193v-68zM555 -24h-504v68h504v-68z" />
    <glyph glyph-name="greaterequal" unicode="&#x2265;" horiz-adv-x="606" 
d="M560 322l-508 -230v68l425 193l-425 193v68l508 -230v-62zM555 -24h-504v68h504v-68z" />
    <glyph glyph-name="infinity" unicode="&#x221e;" horiz-adv-x="718" 
d="M355 343h2c46 69 99 102 162 102c87 0 150 -63 150 -151c0 -90 -63 -157 -148 -157c-66 0 -120 34 -164 103h-2c-48 -70 -100 -103 -161 -103c-88 0 -151 64 -151 153c0 91 62 155 150 155c66 0 118 -33 162 -102zM386 292c39 -68 79 -99 129 -99c55 0 90 39 90 100
c0 58 -35 96 -90 96c-49 0 -85 -27 -129 -97zM327 292c-40 65 -83 97 -131 97c-54 0 -89 -39 -89 -98c0 -57 38 -98 91 -98c47 0 88 31 129 99z" />
    <glyph glyph-name="product" unicode="&#x220f;" horiz-adv-x="664" 
d="M584 -230h-75v865h-354v-865h-75v930h504v-930z" />
    <glyph glyph-name="summation" unicode="&#x2211;" horiz-adv-x="586" 
d="M545 -230h-521v34l302 435c-93 140 -187 280 -280 421v40h475v-62h-382c88 -134 178 -268 265 -397c-95 -137 -189 -274 -284 -409h425v-62z" />
    <glyph glyph-name="partialdiff" unicode="&#x2202;" horiz-adv-x="534" 
d="M415 431h2c3 23 5 47 5 70c0 110 -43 167 -127 167c-29 0 -57 -8 -87 -24c-7 21 -8 23 -19 53c34 19 76 30 116 30c121 0 190 -86 190 -234c0 -75 -15 -170 -39 -247c-52 -162 -144 -256 -252 -256c-100 0 -164 73 -164 186c0 176 116 323 254 323c54 0 96 -24 121 -68z
M407 359c-19 55 -55 83 -107 83c-99 0 -186 -126 -186 -270c0 -76 34 -122 92 -122c51 0 96 36 135 105c29 54 46 106 66 204z" />
    <glyph glyph-name="uni203E" unicode="&#x203e;" horiz-adv-x="555" 
d="M0 952h555v-63h-555v63z" />
    <glyph glyph-name="second" unicode="&#x2033;" horiz-adv-x="484" 
d="M405 740l-88 -194h-74l88 194h74zM257 740l-87 -194h-74l88 194h73z" />
    <glyph glyph-name="uni2126" unicode="&#x2126;" horiz-adv-x="667" 
d="M611 0h-212v62c95 93 135 184 135 312c0 167 -78 273 -201 273c-126 0 -209 -109 -209 -274c0 -127 41 -221 136 -311v-62h-212v62h142c-98 90 -144 192 -144 321c0 193 119 329 288 329s278 -127 278 -322c0 -131 -46 -237 -143 -328h142v-62z" />
    <glyph glyph-name="estimated" unicode="&#x212e;" horiz-adv-x="635" 
d="M587 277h-428v-190c46 -44 91 -62 153 -62c88 0 147 37 203 126c3 -2 4 -2 5 -3c6 -4 18 -11 22 -14s4 -3 8 -5c-72 -103 -136 -141 -238 -141c-160 0 -272 119 -272 290c0 170 111 289 272 289c74 0 139 -25 187 -72c55 -53 80 -115 88 -218zM464 314v153
c-48 44 -95 64 -155 64s-105 -19 -150 -63v-154h305z" />
    <glyph glyph-name="Alpha" unicode="&#x391;" horiz-adv-x="740" 
d="M729 0h-81l-107 249h-344l-108 -249h-77l316 740h83zM512 316l-142 340l-145 -340h287z" />
    <glyph glyph-name="Beta" unicode="&#x392;" horiz-adv-x="574" 
d="M74 740h186c149 0 242 -76 242 -197c0 -62 -21 -101 -81 -149c81 -37 123 -99 123 -182c0 -73 -32 -136 -85 -171c-46 -30 -94 -41 -181 -41h-204v740zM148 421h93c69 0 97 5 127 21c37 20 60 60 60 105c0 30 -10 57 -31 80c-30 33 -72 46 -150 46h-99v-252zM148 67h104
c75 0 107 4 140 19c48 21 78 69 78 125c0 55 -34 104 -87 126c-33 14 -62 17 -144 17h-91v-287z" />
    <glyph glyph-name="Gamma" unicode="&#x393;" horiz-adv-x="462" 
d="M456 740v-67h-306v-673h-74v740h380z" />
    <glyph glyph-name="uni0394" unicode="&#x394;" horiz-adv-x="701" 
d="M8 0l307 740h73l305 -740h-685zM584 67l-234 581l-235 -581h469z" />
    <glyph glyph-name="Epsilon" unicode="&#x395;" 
d="M475 0h-405v740h405v-67h-331v-266h320v-67h-320v-273h331v-67z" />
    <glyph glyph-name="Zeta" unicode="&#x396;" horiz-adv-x="480" 
d="M470 0h-458v67l364 606h-353v67h436v-67l-363 -606h374v-67z" />
    <glyph glyph-name="Eta" unicode="&#x397;" horiz-adv-x="683" 
d="M607 0h-74v347h-383v-347h-74v740h74v-326h383v326h74v-740z" />
    <glyph glyph-name="Theta" unicode="&#x398;" horiz-adv-x="869" 
d="M434 753c214 0 392 -172 392 -380c0 -213 -175 -386 -392 -386c-213 0 -391 173 -391 380c0 213 175 386 391 386zM434 686c-174 0 -317 -144 -317 -319c0 -171 144 -313 317 -313s318 142 318 313c0 176 -143 319 -318 319zM626 403v-67h-383v67h383z" />
    <glyph glyph-name="Iota" unicode="&#x399;" horiz-adv-x="226" 
d="M150 0h-74v740h74v-740z" />
    <glyph glyph-name="Kappa" unicode="&#x39a;" horiz-adv-x="591" 
d="M591 0h-93l-247 321l-96 -118v-203h-74v740h74v-425h2l339 425h95l-293 -361z" />
    <glyph glyph-name="Lambda" unicode="&#x39b;" horiz-adv-x="701" 
d="M8 0l307 740h73l305 -740h-82l-261 648l-262 -648h-80z" />
    <glyph glyph-name="Mu" unicode="&#x39c;" horiz-adv-x="919" 
d="M843 0h-74v659h-2l-277 -659h-63l-275 659h-2v-659h-74v740h114l269 -630l270 630h114v-740z" />
    <glyph glyph-name="Nu" unicode="&#x39d;" horiz-adv-x="740" 
d="M664 0h-74l-439 651h-2v-651h-74v740h100l413 -614h2v614h74v-740z" />
    <glyph glyph-name="Xi" unicode="&#x39e;" horiz-adv-x="594" 
d="M61 0v67h472v-67h-472zM72 407h450v-67h-450v67zM61 740h472v-67h-472v67z" />
    <glyph glyph-name="Omicron" unicode="&#x39f;" horiz-adv-x="869" 
d="M434 753c214 0 392 -172 392 -380c0 -213 -175 -386 -392 -386c-213 0 -391 173 -391 380c0 213 175 386 391 386zM434 686c-174 0 -317 -144 -317 -319c0 -171 144 -313 317 -313s318 142 318 313c0 176 -143 319 -318 319z" />
    <glyph glyph-name="Pi" unicode="&#x3a0;" horiz-adv-x="683" 
d="M76 740h531v-740h-74v673h-383v-673h-74v740z" />
    <glyph glyph-name="Rho" unicode="&#x3a1;" horiz-adv-x="592" 
d="M75 740h206c91 0 145 -12 191 -43c58 -39 92 -105 92 -178s-34 -139 -92 -178c-46 -31 -100 -43 -191 -43h-132v-298h-74v740zM149 365h128c73 0 93 3 127 19c55 26 86 74 86 135s-31 109 -86 135c-33 16 -55 19 -127 19h-128v-308z" />
    <glyph glyph-name="Sigma" unicode="&#x3a3;" horiz-adv-x="511" 
d="M347 370l-240 -303h384v-67h-471v67l240 303l-229 303v67h449v-67h-363z" />
    <glyph glyph-name="Tau" unicode="&#x3a4;" horiz-adv-x="426" 
d="M419 673h-169v-673h-74v673h-170v67h413v-67z" />
    <glyph glyph-name="Upsilon" unicode="&#x3a5;" horiz-adv-x="592" 
d="M592 740l-260 -493v-247h-74v247l-257 493h82l211 -415l217 415h81z" />
    <glyph glyph-name="Phi" unicode="&#x3a6;" horiz-adv-x="837" 
d="M383 740h71v-61c203 -8 330 -127 330 -309s-128 -301 -330 -309v-61h-71v61c-202 8 -330 127 -330 309s127 301 330 309v61zM454 616v-492c165 10 259 99 259 246c0 146 -98 239 -259 246zM383 124v492c-161 -7 -259 -100 -259 -246c0 -147 94 -236 259 -246z" />
    <glyph glyph-name="Chi" unicode="&#x3a7;" horiz-adv-x="609" 
d="M602 0h-88l-208 316l-211 -316h-87l251 378l-237 362h87l197 -296l195 296h86l-238 -362z" />
    <glyph glyph-name="Psi" unicode="&#x3a8;" horiz-adv-x="727" 
d="M400 0h-74v230c-100 4 -180 45 -227 115c-34 49 -46 101 -46 190v205h74v-205c0 -67 8 -109 29 -147c33 -59 89 -90 170 -91v443h74v-443c82 1 138 32 171 91c21 38 29 79 29 147v205h74v-205c0 -100 -17 -158 -62 -212c-48 -56 -123 -90 -212 -93v-230z" />
    <glyph glyph-name="uni03A9" unicode="&#x3a9;" horiz-adv-x="890" 
d="M520 0v76c141 35 242 163 242 306c0 167 -143 304 -318 304s-317 -138 -317 -306c0 -141 101 -268 242 -304v-76h-316v67h173c-110 75 -173 190 -173 315c0 206 174 371 391 371c216 0 392 -165 392 -368c0 -127 -63 -243 -173 -318h173v-67h-316z" />
    <glyph glyph-name="Upsilon1" unicode="&#x3d2;" horiz-adv-x="592" 
d="M258 0v179c0 114 -28 242 -72 332c-47 96 -110 157 -189 184l50 46c131 -58 229 -206 248 -374c19 168 117 316 248 374l50 -46c-88 -30 -157 -104 -204 -218c-35 -86 -57 -199 -57 -298v-179h-74z" />
    <glyph glyph-name="alpha" unicode="&#x3b1;" horiz-adv-x="683" 
d="M621 0h-70v96h-2c-53 -73 -123 -109 -214 -109c-165 0 -293 126 -293 288c0 160 129 286 294 286c93 0 162 -36 213 -110h2v96h70v-547zM335 498c-128 0 -223 -97 -223 -226c0 -127 95 -222 223 -222c122 0 220 98 220 222c0 127 -97 226 -220 226z" />
    <glyph glyph-name="beta" unicode="&#x3b2;" horiz-adv-x="629" 
d="M64 -192v650c0 93 14 150 49 198c45 63 118 97 209 97c138 0 224 -76 224 -198c0 -81 -37 -134 -115 -165c96 -22 145 -85 145 -188c0 -128 -93 -215 -231 -215c-92 0 -156 34 -209 109h-2v-288h-70zM282 414h49c85 0 145 56 145 136c0 83 -63 140 -156 140
c-67 0 -122 -27 -152 -75c-25 -38 -34 -82 -34 -157v-138c0 -83 6 -119 28 -161c36 -68 104 -109 179 -109c96 0 165 66 165 158c0 57 -25 103 -69 125c-25 13 -53 18 -106 18h-49v63z" />
    <glyph glyph-name="gamma" unicode="&#x3b3;" horiz-adv-x="553" 
d="M242 0l-235 547h75l193 -457l196 457h75l-234 -547v-192h-70v192z" />
    <glyph glyph-name="delta" unicode="&#x3b4;" horiz-adv-x="583" 
d="M345 501l57 -38c49 -34 72 -54 95 -86c28 -40 44 -90 44 -140c0 -137 -113 -250 -250 -250c-136 0 -249 113 -249 248c0 126 89 229 215 250c-56 38 -86 84 -86 132c0 57 39 101 108 122c30 9 64 13 116 14v-65c-98 0 -149 -24 -149 -72c0 -32 34 -71 99 -115zM291 424
c-99 0 -180 -85 -180 -189c0 -102 81 -185 181 -185s180 83 180 187s-81 187 -181 187z" />
    <glyph glyph-name="epsilon" unicode="&#x3b5;" horiz-adv-x="460" 
d="M415 412h-70c-10 57 -45 86 -105 86c-62 0 -103 -37 -103 -93c0 -57 41 -94 103 -94h49v-63h-49c-74 0 -117 -36 -117 -96s48 -102 116 -102c77 0 121 39 124 111h70c-2 -54 -12 -84 -39 -115c-34 -39 -86 -59 -152 -59c-114 0 -189 66 -189 167c0 59 32 106 86 127
c-47 22 -72 65 -72 124c0 94 69 156 174 156c53 0 93 -14 126 -45c29 -26 41 -53 48 -104z" />
    <glyph glyph-name="zeta" unicode="&#x3b6;" horiz-adv-x="463" 
d="M450 740v-63c-110 -86 -176 -148 -231 -217c-71 -88 -107 -174 -107 -254c0 -54 19 -99 53 -125c27 -22 45 -28 121 -41c71 -12 94 -20 115 -40c20 -18 30 -42 30 -70c0 -34 -9 -67 -35 -122h-71c26 51 36 80 36 107c0 39 -18 51 -93 62c-85 13 -124 29 -161 64
c-42 41 -65 97 -65 162c0 109 58 228 170 344c44 46 102 96 150 130h-256v63h344z" />
    <glyph glyph-name="eta" unicode="&#x3b7;" horiz-adv-x="610" 
d="M546 -192h-70v493c0 64 -19 118 -52 150c-30 29 -75 47 -119 47c-103 0 -170 -76 -170 -192v-306h-70v547h70v-70h2c40 56 96 84 171 84c145 0 238 -101 238 -260v-493z" />
    <glyph glyph-name="theta" unicode="&#x3b8;" horiz-adv-x="655" 
d="M542 332h-429c13 -162 105 -282 216 -282c110 0 201 120 213 282zM113 395h430c-10 169 -102 295 -215 295c-112 0 -205 -128 -215 -295zM327 753c155 0 287 -175 287 -381c0 -212 -129 -385 -287 -385c-155 0 -285 172 -285 379c0 212 129 387 285 387z" />
    <glyph glyph-name="iota" unicode="&#x3b9;" horiz-adv-x="200" 
d="M135 0h-70v547h70v-547z" />
    <glyph glyph-name="kappa" unicode="&#x3ba;" horiz-adv-x="502" 
d="M140 547v-547h-70v547h70zM393 0l-220 277l214 270h87l-210 -264l224 -283h-95z" />
    <glyph glyph-name="lambda" unicode="&#x3bb;" 
d="M224 740l299 -740h-74l-174 436l-186 -436h-74l225 524l-89 216h73z" />
    <glyph glyph-name="uni03BC" unicode="&#x3bc;" horiz-adv-x="608" 
d="M545 0h-66v85h-2c-35 -66 -94 -98 -179 -98c-75 0 -123 20 -162 69v-248h-70v739h70v-301c0 -130 56 -196 166 -196c49 0 84 13 116 44c41 40 57 85 57 164v289h70v-547z" />
    <glyph glyph-name="nu" unicode="&#x3bd;" horiz-adv-x="554" 
d="M546 547l-231 -547h-77l-231 547h75l193 -460l196 460h75z" />
    <glyph glyph-name="xi" unicode="&#x3be;" horiz-adv-x="462" 
d="M449 677h-87h-3c-8 2 -44 -1 -67 -5c-64 -10 -106 -58 -106 -122c0 -77 55 -123 147 -123h26v-63h-72c-45 0 -79 -8 -107 -24c-42 -23 -69 -76 -69 -135c0 -50 20 -97 53 -123c28 -23 47 -29 121 -42c73 -12 94 -19 116 -39c19 -18 29 -42 29 -69c0 -34 -10 -68 -35 -122
h-71c28 56 36 78 36 106c0 38 -18 50 -93 61c-85 14 -124 29 -161 64c-42 41 -65 97 -65 160c0 118 74 194 195 201c-78 19 -120 70 -120 146c0 57 24 98 76 129h-87v63h344v-63z" />
    <glyph glyph-name="omicron" unicode="&#x3bf;" horiz-adv-x="655" 
d="M327 561c155 0 287 -131 287 -285c0 -159 -129 -289 -287 -289c-155 0 -285 129 -285 284c0 159 128 290 285 290zM328 498c-119 0 -216 -101 -216 -226c0 -123 97 -222 216 -222c121 0 216 99 216 224c0 124 -97 224 -216 224z" />
    <glyph glyph-name="pi" unicode="&#x3c0;" horiz-adv-x="641" 
d="M607 59l14 -52c-17 -9 -37 -14 -62 -14c-70 0 -111 47 -111 130v361h-236v-349c0 -55 -4 -96 -13 -135h-72c10 40 15 82 15 139v345c-40 1 -79 -6 -114 -20c-8 23 -13 37 -21 56c38 18 82 27 135 27h477v-63h-101v-353c0 -52 20 -79 59 -79c9 0 17 2 30 7z" />
    <glyph glyph-name="rho" unicode="&#x3c1;" horiz-adv-x="678" 
d="M60 -192v452c0 76 17 136 55 187c52 72 138 114 234 114c164 0 290 -124 290 -286s-128 -288 -292 -288c-90 0 -161 36 -215 109h-2v-288h-70zM346 498c-126 0 -218 -96 -218 -227c0 -124 96 -221 218 -221c127 0 223 95 223 221c0 131 -95 227 -223 227z" />
    <glyph glyph-name="sigma" unicode="&#x3c3;" horiz-adv-x="664" 
d="M624 484l-114 9c68 -59 104 -135 104 -219c0 -157 -130 -287 -287 -287c-155 0 -285 129 -285 284c0 158 128 290 282 290c5 0 14 0 25 -1l26 -1l249 -12v-63zM328 498c-119 0 -216 -101 -216 -226c0 -123 97 -222 216 -222c121 0 216 99 216 224c0 124 -97 224 -216 224
z" />
    <glyph glyph-name="tau" unicode="&#x3c4;" horiz-adv-x="377" 
d="M363 484h-140v-484h-70v484h-140v63h350v-63z" />
    <glyph glyph-name="upsilon" unicode="&#x3c5;" horiz-adv-x="603" 
d="M541 547v-302c0 -72 -13 -125 -40 -165c-40 -60 -112 -93 -199 -93c-94 0 -169 38 -207 104c-22 38 -33 89 -33 154v302h70v-301c0 -129 58 -196 170 -196c111 0 169 67 169 196v301h70z" />
    <glyph glyph-name="phi1" unicode="&#x3d5;" horiz-adv-x="669" 
d="M300 52v509c101 0 164 -18 224 -66c65 -52 104 -135 104 -220c0 -146 -114 -272 -258 -287v-180h-70v180c-144 14 -258 139 -258 283c0 92 43 178 116 232l36 -54c-55 -48 -82 -107 -82 -177c0 -111 83 -207 188 -220zM370 496v-444c108 13 188 109 188 224
c0 111 -76 201 -188 220z" />
    <glyph glyph-name="chi" unicode="&#x3c7;" horiz-adv-x="451" 
d="M448 -192h-80l-145 295l-145 -295h-75l186 371l-186 368h81l144 -299l143 299h77l-185 -368z" />
    <glyph glyph-name="psi" unicode="&#x3c8;" horiz-adv-x="736" 
d="M403 547v-496c134 10 201 75 201 195v301h70v-302c0 -78 -19 -135 -60 -176c-47 -48 -123 -77 -211 -81v-180h-70v179c-87 5 -164 34 -211 82c-41 41 -60 98 -60 176v302h70v-301c0 -120 70 -188 201 -195v496h70z" />
    <glyph glyph-name="omega" unicode="&#x3c9;" horiz-adv-x="711" 
d="M391 311v-100c0 -103 36 -161 99 -161c68 0 111 82 111 209c0 118 -34 228 -90 288h82c51 -69 78 -164 78 -274c0 -177 -69 -286 -181 -286c-66 0 -109 29 -134 92c-25 -63 -68 -92 -134 -92c-112 0 -181 109 -181 287c0 109 27 204 78 273h82c-56 -60 -90 -170 -90 -288
c0 -127 43 -209 111 -209c63 0 99 58 99 161v100h70z" />
    <glyph glyph-name="uni03C2" unicode="&#x3c2;" horiz-adv-x="634" 
d="M607 382h-77c-44 77 -110 116 -194 116c-126 0 -225 -98 -225 -223c0 -77 36 -145 96 -184c42 -27 76 -39 150 -51c68 -11 94 -20 115 -40c20 -18 30 -42 30 -70c0 -34 -10 -67 -35 -122h-71c26 51 36 80 36 107c0 39 -18 51 -93 62c-88 14 -147 37 -197 79
c-65 54 -101 132 -101 217c0 159 131 288 295 288c73 0 144 -26 197 -74c34 -30 51 -54 74 -105z" />
    <glyph glyph-name="uniEA3E" unicode="&#xea3e;" horiz-adv-x="647" 
d="M440 248h-327c13 -116 107 -198 225 -198c85 0 149 37 192 111h77c-66 -120 -149 -174 -270 -174c-166 0 -296 125 -296 286c0 159 131 288 295 288c73 0 144 -26 197 -74c34 -30 51 -54 74 -105h-77c-44 77 -110 116 -194 116c-111 0 -205 -78 -222 -187h326v-63z" />
    <glyph glyph-name="theta1" unicode="&#x3d1;" horiz-adv-x="682" 
d="M662 332h-50c-16 -196 -139 -345 -285 -345c-92 0 -181 63 -235 167c-23 44 -44 112 -45 147h70c20 -145 109 -251 212 -251c110 0 200 119 213 282c-125 0 -202 13 -269 45c-89 43 -142 118 -142 200c0 106 77 176 193 176c107 0 195 -62 246 -174
c26 -55 41 -121 43 -184h49v-63zM543 395c-10 173 -101 295 -221 295c-72 0 -121 -46 -121 -114c0 -87 82 -154 215 -174c41 -6 58 -7 127 -7z" />
    <glyph glyph-name="phi" unicode="&#x3c6;" horiz-adv-x="697" 
d="M383 -13v-179h-70v179c-151 9 -271 135 -271 284c0 154 119 281 271 290v179h70v-179c151 -9 272 -137 272 -287c0 -151 -124 -281 -272 -287zM383 498v-448c114 7 202 105 202 226c0 117 -88 213 -202 222zM313 51v446c-114 -8 -201 -106 -201 -225
c0 -117 87 -213 201 -221z" />
    <glyph glyph-name="iotadieresis" unicode="&#x3ca;" horiz-adv-x="200" 
d="M135 0h-70v547h70v-547zM211 639h-74v126h74v-126zM63 639h-74v126h74v-126z" />
    <glyph glyph-name="upsilondieresis" unicode="&#x3cb;" horiz-adv-x="603" 
d="M541 547v-302c0 -72 -13 -125 -40 -165c-40 -60 -112 -93 -199 -93c-94 0 -169 38 -207 104c-22 38 -33 89 -33 154v302h70v-301c0 -129 58 -196 170 -196c111 0 169 67 169 196v301h70zM412 619h-74v126h74v-126zM264 619h-74v126h74v-126z" />
    <glyph glyph-name="tonos" unicode="&#x384;" horiz-adv-x="188" 
d="M134 778l-12 -183h-57l-12 183h81z" />
    <glyph glyph-name="dieresistonos" unicode="&#x385;" horiz-adv-x="362" 
d="M329 652h-74v93h74v-93zM107 652h-74v93h74v-93zM221 778l-12 -183h-57l-12 183h81z" />
    <glyph glyph-name="Alphatonos" unicode="&#x386;" horiz-adv-x="748" 
d="M737 0h-81l-107 249h-344l-108 -249h-77l316 740h83zM520 316l-142 340l-145 -340h287zM164 778l-12 -183h-57l-12 183h81z" />
    <glyph glyph-name="Epsilontonos" unicode="&#x388;" horiz-adv-x="597" 
d="M536 0h-405v740h405v-67h-331v-266h320v-67h-320v-273h331v-67zM94 778l-12 -183h-57l-12 183h81z" />
    <glyph glyph-name="Etatonos" unicode="&#x389;" horiz-adv-x="744" 
d="M668 0h-74v347h-383v-347h-74v740h74v-326h383v326h74v-740zM94 778l-12 -183h-57l-12 183h81z" />
    <glyph glyph-name="Iotatonos" unicode="&#x38a;" horiz-adv-x="287" 
d="M211 0h-74v740h74v-740zM94 778l-12 -183h-57l-12 183h81z" />
    <glyph glyph-name="Omicrontonos" unicode="&#x38c;" horiz-adv-x="881" 
d="M446 753c214 0 392 -172 392 -380c0 -213 -175 -386 -392 -386c-213 0 -391 173 -391 380c0 213 175 386 391 386zM446 686c-174 0 -317 -144 -317 -319c0 -171 144 -313 317 -313s318 142 318 313c0 176 -143 319 -318 319zM101 778l-12 -183h-57l-12 183h81z" />
    <glyph glyph-name="Omegatonos" unicode="&#x38f;" horiz-adv-x="916" 
d="M547 0v76c140 35 241 163 241 306c0 167 -143 304 -318 304s-317 -137 -317 -306c0 -141 101 -268 242 -304v-76h-316v67h173c-110 75 -173 190 -173 315c0 206 174 371 391 371s392 -165 392 -368c0 -127 -63 -244 -172 -318h172v-67h-315zM101 778l-12 -183h-57
l-12 183h81z" />
    <glyph glyph-name="Upsilontonos" unicode="&#x38e;" horiz-adv-x="692" 
d="M692 740l-260 -493v-247h-74v247l-257 493h82l211 -415l217 415h81zM81 778l-12 -183h-57l-12 183h81z" />
    <glyph glyph-name="Iotadieresis" unicode="&#x3aa;" horiz-adv-x="226" 
d="M150 0h-74v740h74v-740zM224 802h-74v126h74v-126zM76 802h-74v126h74v-126z" />
    <glyph glyph-name="Upsilondieresis" unicode="&#x3ab;" horiz-adv-x="592" 
d="M592 740l-260 -493v-247h-74v247l-257 493h82l211 -415l217 415h81zM407 802h-74v126h74v-126zM259 802h-74v126h74v-126z" />
    <glyph glyph-name="alphatonos" unicode="&#x3ac;" horiz-adv-x="683" 
d="M621 0h-70v96h-2c-53 -73 -123 -109 -214 -109c-165 0 -293 126 -293 288c0 160 129 286 294 286c93 0 162 -36 213 -110h2v96h70v-547zM335 498c-128 0 -223 -97 -223 -226c0 -127 95 -222 223 -222c122 0 220 98 220 222c0 127 -97 226 -220 226zM382 778l-12 -183h-57
l-12 183h81z" />
    <glyph glyph-name="epsilontonos" unicode="&#x3ad;" horiz-adv-x="460" 
d="M415 412h-70c-10 57 -45 86 -105 86c-62 0 -103 -37 -103 -93c0 -57 41 -94 103 -94h49v-63h-49c-74 0 -117 -36 -117 -96s48 -102 116 -102c77 0 121 39 124 111h70c-2 -54 -12 -84 -39 -115c-34 -39 -86 -59 -152 -59c-114 0 -189 66 -189 167c0 59 32 106 86 127
c-47 22 -72 65 -72 124c0 94 69 156 174 156c53 0 93 -14 126 -45c29 -26 41 -53 48 -104zM284 778l-12 -183h-57l-12 183h81z" />
    <glyph glyph-name="etatonos" unicode="&#x3ae;" horiz-adv-x="610" 
d="M546 -192h-70v493c0 64 -19 118 -52 150c-30 29 -75 47 -119 47c-103 0 -170 -76 -170 -192v-306h-70v547h70v-70h2c40 56 96 84 171 84c145 0 238 -101 238 -260v-493zM346 778l-12 -183h-57l-12 183h81z" />
    <glyph glyph-name="iotatonos" unicode="&#x3af;" horiz-adv-x="200" 
d="M135 0h-70v547h70v-547zM140 778l-12 -183h-57l-12 183h81z" />
    <glyph glyph-name="omicrontonos" unicode="&#x3cc;" horiz-adv-x="655" 
d="M327 561c155 0 287 -131 287 -285c0 -159 -129 -289 -287 -289c-155 0 -285 129 -285 284c0 159 128 290 285 290zM328 498c-119 0 -216 -101 -216 -226c0 -123 97 -222 216 -222c121 0 216 99 216 224c0 124 -97 224 -216 224zM368 778l-12 -183h-57l-12 183h81z" />
    <glyph glyph-name="omegatonos" unicode="&#x3ce;" horiz-adv-x="711" 
d="M396 778l-12 -183h-57l-12 183h81zM391 311v-100c0 -103 36 -161 99 -161c68 0 111 82 111 209c0 118 -34 228 -90 288h82c51 -69 78 -164 78 -274c0 -177 -69 -286 -181 -286c-66 0 -109 29 -134 92c-25 -63 -68 -92 -134 -92c-112 0 -181 109 -181 287
c0 109 27 204 78 273h82c-56 -60 -90 -170 -90 -288c0 -127 43 -209 111 -209c63 0 99 58 99 161v100h70z" />
    <glyph glyph-name="upsilontonos" unicode="&#x3cd;" horiz-adv-x="603" 
d="M541 547v-302c0 -72 -13 -125 -40 -165c-40 -60 -112 -93 -199 -93c-94 0 -169 38 -207 104c-22 38 -33 89 -33 154v302h70v-301c0 -129 58 -196 170 -196c111 0 169 67 169 196v301h70zM342 778l-12 -183h-57l-12 183h81z" />
    <glyph glyph-name="iotadieresistonos" unicode="&#x390;" horiz-adv-x="269" 
d="M170 0h-70v547h70v-547zM283 652h-74v93h74v-93zM61 652h-74v93h74v-93zM175 778l-12 -183h-57l-12 183h81z" />
    <glyph glyph-name="upsilondieresistonos" unicode="&#x3b0;" horiz-adv-x="603" 
d="M541 547v-302c0 -72 -13 -125 -40 -165c-40 -60 -112 -93 -199 -93c-94 0 -169 38 -207 104c-22 38 -33 89 -33 154v302h70v-301c0 -129 58 -196 170 -196c111 0 169 67 169 196v301h70zM449 652h-74v93h74v-93zM228 652h-74v93h74v-93zM342 778l-12 -183h-57l-12 183h81
z" />
    <glyph glyph-name="afii10017" unicode="&#x410;" horiz-adv-x="740" 
d="M11 0l319 740h82l317 -740h-80l-107 248h-344l-107 -248h-80zM227 315h286l-142 339z" />
    <glyph glyph-name="afii10018" unicode="&#x411;" horiz-adv-x="580" 
d="M74 740h402v-67h-328v-239h170c97 0 168 -34 205 -99c19 -34 30 -76 30 -118c0 -129 -96 -217 -235 -217h-244v740zM148 367v-300h171c97 0 160 59 160 150s-63 150 -160 150h-171z" />
    <glyph glyph-name="afii10019" unicode="&#x412;" horiz-adv-x="574" 
d="M74 0v740h185c163 0 245 -64 245 -191c0 -67 -27 -112 -89 -152c45 -16 67 -31 90 -62c25 -34 39 -79 39 -125c0 -132 -99 -210 -267 -210h-203zM148 67h129c129 0 192 47 192 142c0 98 -64 147 -192 147h-129v-289zM148 423h111c114 0 171 42 171 126
c0 85 -54 124 -171 124h-111v-250z" />
    <glyph glyph-name="afii10020" unicode="&#x413;" horiz-adv-x="460" 
d="M74 0v740h379v-67h-305v-673h-74z" />
    <glyph glyph-name="afii10021" unicode="&#x414;" horiz-adv-x="780" 
d="M430 740l276 -673h67v-207h-74v140h-618v-140h-74v207h67l276 673h80zM154 67h472l-236 578z" />
    <glyph glyph-name="afii10022" unicode="&#x415;" 
d="M74 0v740h406v-67h-332v-267h321v-67h-321v-272h332v-67h-406z" />
    <glyph glyph-name="afii10024" unicode="&#x416;" horiz-adv-x="920" 
d="M423 740h74v-740h-74v740zM390 386l-293 -386h-92l295 393l-273 347h88zM530 386l275 354h88l-273 -347l295 -393h-92z" />
    <glyph glyph-name="afii10025" unicode="&#x417;" horiz-adv-x="540" 
d="M138 547h-74c1 67 17 109 54 147c38 39 92 59 159 59c129 0 213 -78 213 -199c0 -77 -36 -131 -112 -167c44 -14 68 -29 92 -59c26 -34 40 -78 40 -126c0 -129 -96 -215 -238 -215c-93 0 -166 36 -208 101c-27 43 -34 70 -34 138h74c0 -58 13 -93 44 -125
c30 -31 71 -47 124 -47c100 0 164 56 164 145c0 93 -65 150 -172 150h-44v67h44c95 0 152 51 152 138c0 80 -54 132 -138 132c-86 0 -139 -52 -140 -139z" />
    <glyph glyph-name="afii10026" unicode="&#x418;" horiz-adv-x="740" 
d="M74 740h74v-635l440 635h78v-740h-74v635l-440 -635h-78v740z" />
    <glyph glyph-name="afii10028" unicode="&#x41a;" horiz-adv-x="600" 
d="M74 740h74v-740h-74v740zM199 379l285 361h88l-285 -353l297 -387h-92z" />
    <glyph glyph-name="afii10029" unicode="&#x41b;" horiz-adv-x="700" 
d="M386 740l305 -740h-81l-259 647l-261 -647h-81l307 740h70z" />
    <glyph glyph-name="afii10030" unicode="&#x41c;" horiz-adv-x="919" 
d="M74 0v740h114l272 -630l272 630h114v-740h-74v657l-281 -657h-62l-281 657v-657h-74z" />
    <glyph glyph-name="afii10031" unicode="&#x41d;" horiz-adv-x="683" 
d="M74 0v740h74v-326h387v326h74v-740h-74v347h-387v-347h-74z" />
    <glyph glyph-name="afii10032" unicode="&#x41e;" horiz-adv-x="869" 
d="M432 753c227 0 394 -161 394 -379c0 -220 -169 -387 -392 -387s-392 164 -392 381c0 218 169 385 390 385zM435 686c-183 0 -319 -136 -319 -318c0 -180 135 -314 316 -314c185 0 320 135 320 320c0 180 -134 312 -317 312z" />
    <glyph glyph-name="afii10033" unicode="&#x41f;" horiz-adv-x="680" 
d="M74 0v740h532v-740h-74v673h-384v-673h-74z" />
    <glyph glyph-name="afii10034" unicode="&#x420;" horiz-adv-x="592" 
d="M74 0v740h234c161 0 255 -81 255 -221c0 -138 -96 -222 -255 -222h-160v-297h-74zM148 673v-309h161c112 0 180 58 180 154c0 97 -68 155 -180 155h-161z" />
    <glyph glyph-name="afii10035" unicode="&#x421;" horiz-adv-x="813" 
d="M767 551h-88c-60 90 -145 135 -252 135c-177 0 -311 -135 -311 -314s138 -318 314 -318c105 0 189 46 252 139h88c-39 -67 -69 -101 -119 -137c-64 -46 -138 -69 -220 -69c-222 0 -389 165 -389 384c0 218 166 382 386 382c93 0 179 -29 245 -82c41 -34 63 -61 94 -120z
" />
    <glyph glyph-name="afii10036" unicode="&#x422;" horiz-adv-x="426" 
d="M176 0v673h-169v67h412v-67h-169v-673h-74z" />
    <glyph glyph-name="afii10037" unicode="&#x423;" horiz-adv-x="620" 
d="M615 740l-335 -740h-77l87 193l-285 547h84l241 -467l208 467h77z" />
    <glyph glyph-name="afii10038" unicode="&#x424;" horiz-adv-x="820" 
d="M373 -37v104c-112 6 -179 32 -241 95c-58 59 -90 138 -90 225s31 166 90 225c62 62 129 89 241 95v93h74v-93c112 -6 179 -33 241 -95c58 -59 90 -138 90 -225s-32 -166 -90 -225c-62 -62 -129 -89 -241 -95v-104h-74zM373 134v506c-87 -4 -137 -23 -185 -71
c-46 -46 -72 -111 -72 -182s26 -136 72 -182c48 -48 98 -67 185 -71zM447 640v-506c87 4 137 23 185 71c46 46 72 111 72 182s-26 136 -72 182c-48 48 -98 67 -185 71z" />
    <glyph glyph-name="afii10039" unicode="&#x425;" horiz-adv-x="609" 
d="M8 0l251 378l-236 362h87l195 -297l194 297h87l-239 -362l254 -378h-87l-209 316l-210 -316h-87z" />
    <glyph glyph-name="afii10040" unicode="&#x426;" horiz-adv-x="720" 
d="M606 740v-673h103v-207h-74v140h-561v740h74v-673h384v673h74z" />
    <glyph glyph-name="afii10041" unicode="&#x427;" horiz-adv-x="620" 
d="M546 740v-740h-74v297h-175c-76 0 -129 12 -170 40c-56 38 -77 88 -77 183v220h74v-220c0 -111 49 -156 173 -156h175v376h74z" />
    <glyph glyph-name="afii10042" unicode="&#x428;" horiz-adv-x="960" 
d="M74 740h74v-673h295v673h74v-673h295v673h74v-740h-812v740z" />
    <glyph glyph-name="afii10043" unicode="&#x429;" horiz-adv-x="1000" 
d="M74 740h74v-673h295v673h74v-673h295v673h74v-673h103v-207h-74v140h-841v740z" />
    <glyph glyph-name="afii10046" unicode="&#x42c;" horiz-adv-x="580" 
d="M74 740h74v-306h170c146 0 235 -82 235 -216c0 -130 -94 -218 -235 -218h-244v740zM148 367v-300h171c97 0 160 59 160 150s-63 150 -160 150h-171z" />
    <glyph glyph-name="afii10045" unicode="&#x42b;" horiz-adv-x="780" 
d="M74 740h74v-306h170c146 0 235 -82 235 -216c0 -130 -94 -218 -235 -218h-244v740zM148 367v-300h171c97 0 160 59 160 150s-63 150 -160 150h-171zM632 0v740h74v-740h-74z" />
    <glyph glyph-name="afii10044" unicode="&#x42a;" horiz-adv-x="680" 
d="M7 740h241v-306h170c146 0 235 -82 235 -216c0 -130 -94 -218 -235 -218h-244v673h-167v67zM248 367v-300h171c97 0 160 59 160 150s-63 150 -160 150h-171z" />
    <glyph glyph-name="afii10047" unicode="&#x42d;" horiz-adv-x="813" 
d="M134 551h-88c35 66 64 100 114 135c63 44 141 67 227 67c108 0 201 -36 271 -106c71 -71 113 -173 113 -278c0 -217 -168 -382 -389 -382c-91 0 -173 29 -241 85c-41 34 -64 62 -98 121h88c62 -92 148 -139 252 -139c78 0 155 30 212 82c59 53 86 109 100 203h-432v67
h432c-16 94 -44 151 -103 203c-56 50 -128 77 -206 77c-66 0 -127 -18 -176 -52c-32 -23 -49 -42 -76 -83z" />
    <glyph glyph-name="afii10048" unicode="&#x42e;" horiz-adv-x="1080" 
d="M148 414h132c19 116 52 183 123 246c68 60 157 93 255 93c219 0 380 -161 380 -379c0 -221 -164 -387 -382 -387c-104 0 -201 38 -270 105c-40 38 -71 89 -88 140c-10 28 -15 60 -20 115h-130v-347h-74v740h74v-326zM658 686c-175 0 -307 -136 -307 -318
c0 -179 130 -314 304 -314c178 0 309 136 309 320c0 179 -130 312 -306 312z" />
    <glyph glyph-name="afii10049" unicode="&#x42f;" horiz-adv-x="600" 
d="M526 740v-740h-74v673h-133c-141 0 -220 -60 -220 -167c0 -111 77 -171 220 -171h59l-241 -335h-92l202 276c-76 7 -121 27 -163 71c-38 40 -59 93 -59 152c0 153 107 241 294 241h207z" />
    <glyph glyph-name="afii10050" unicode="&#x490;" horiz-adv-x="460" 
d="M74 0v740h305v120h74v-187h-305v-673h-74z" />
    <glyph glyph-name="afii10051" unicode="&#x402;" horiz-adv-x="700" 
d="M168 0v673h-160v67h474v-67h-240v-231h169c160 0 253 -81 253 -220c0 -143 -90 -222 -253 -222h-68v67h68c121 0 179 49 179 152c0 102 -61 156 -179 156h-169v-375h-74z" />
    <glyph glyph-name="afii10053" unicode="&#x404;" horiz-adv-x="813" 
d="M767 551h-88c-30 47 -53 69 -92 93c-46 27 -101 42 -160 42c-79 0 -151 -27 -207 -77c-58 -52 -87 -109 -102 -203h452v-67h-452c14 -95 41 -150 100 -204c57 -52 134 -81 212 -81c104 0 190 47 252 139h88c-81 -139 -191 -206 -340 -206c-108 0 -203 37 -273 106
c-73 71 -115 174 -115 278c0 103 42 205 113 276c70 70 163 106 271 106c96 0 181 -28 247 -82c41 -33 63 -61 94 -120z" />
    <glyph glyph-name="afii10054" unicode="&#x405;" horiz-adv-x="498" 
d="M22 207h74c8 -99 62 -153 153 -153c90 0 153 62 153 150c0 50 -21 90 -62 116c-21 13 -41 21 -97 37c-70 21 -106 35 -133 56c-43 32 -65 78 -65 138c0 118 87 202 209 202c59 0 108 -18 144 -54c38 -37 55 -80 60 -146h-74c-7 85 -55 133 -135 133
c-79 0 -130 -52 -130 -134c0 -71 31 -98 146 -131c66 -19 93 -30 123 -49c58 -38 88 -94 88 -166c0 -127 -94 -219 -224 -219c-66 0 -125 23 -168 65c-41 42 -58 84 -62 155z" />
    <glyph glyph-name="afii10055" unicode="&#x406;" horiz-adv-x="226" 
d="M76 0v740h74v-740h-74z" />
    <glyph glyph-name="uni04C0" unicode="&#x4c0;" horiz-adv-x="226" 
d="M76 0v740h74v-740h-74z" />
    <glyph glyph-name="afii10057" unicode="&#x408;" horiz-adv-x="482" 
d="M408 740v-518c0 -159 -63 -235 -192 -235c-59 0 -110 18 -145 52c-36 35 -53 73 -58 136h74c10 -78 55 -121 129 -121c85 0 118 47 118 168v518h74z" />
    <glyph glyph-name="afii10058" unicode="&#x409;" horiz-adv-x="1040" 
d="M534 0v644h-2l-440 -644h-88l510 740h94v-306h170c97 0 168 -34 205 -99c19 -34 30 -76 30 -118c0 -129 -96 -217 -235 -217h-244zM608 367v-300h171c97 0 160 59 160 150s-63 150 -160 150h-171z" />
    <glyph glyph-name="afii10059" unicode="&#x40a;" horiz-adv-x="1040" 
d="M534 740h74v-306h170c97 0 168 -34 205 -99c19 -34 30 -76 30 -118c0 -129 -96 -217 -235 -217h-244v367h-386v-367h-74v740h74v-306h386v306zM608 367v-300h171c97 0 160 59 160 150s-63 150 -160 150h-171z" />
    <glyph glyph-name="afii10060" unicode="&#x40b;" horiz-adv-x="720" 
d="M168 0v673h-160v67h474v-67h-240v-231h175c171 0 247 -68 247 -223v-219h-74v219c0 114 -47 156 -173 156h-175v-375h-74z" />
    <glyph glyph-name="afii10145" unicode="&#x40f;" horiz-adv-x="680" 
d="M606 740v-740h-229v-140h-74v140h-229v740h74v-673h384v673h74z" />
    <glyph glyph-name="uni04E8" unicode="&#x4e8;" horiz-adv-x="869" 
d="M434 753c214 0 392 -172 392 -380c0 -213 -175 -386 -392 -386c-213 0 -391 173 -391 380c0 213 175 386 391 386zM750 332h-631c21 -159 156 -278 315 -278c161 0 293 117 316 278zM119 400h631c-19 165 -153 286 -316 286c-162 0 -296 -121 -315 -286z" />
    <glyph glyph-name="uni0496" unicode="&#x496;" horiz-adv-x="949" 
d="M863 0h-39l-293 386l275 354h87l-272 -347l253 -338h61v-195h-72v140zM423 740h74v-740h-74v740zM390 386l-293 -386h-92l295 393l-273 347h88z" />
    <glyph glyph-name="uni04AE" unicode="&#x4ae;" horiz-adv-x="592" 
d="M592 740l-260 -493v-247h-74v247l-257 493h82l211 -415l217 415h81z" />
    <glyph glyph-name="uni04D8" unicode="&#x4d8;" horiz-adv-x="869" 
d="M44 400h706c-19 165 -153 286 -316 286c-114 0 -211 -56 -276 -159l-63 36c76 121 199 190 339 190c216 0 392 -172 392 -383c0 -210 -177 -383 -392 -383c-213 0 -391 173 -391 380c0 11 0 19 1 33zM750 332h-631c19 -157 156 -278 315 -278c161 0 293 117 316 278z" />
    <glyph glyph-name="uni04BA" unicode="&#x4ba;" horiz-adv-x="620" 
d="M74 0v740h74v-297h175c76 0 129 -12 170 -40c56 -38 77 -88 77 -183v-220h-74v220c0 111 -49 156 -173 156h-175v-376h-74z" />
    <glyph glyph-name="afii61352" unicode="&#x2116;" horiz-adv-x="1060" 
d="M78 0v740h100l414 -614v614h74v-740h-74l-440 650v-650h-74zM886 740c82 0 150 -68 150 -150s-68 -150 -150 -150s-150 67 -150 149c0 84 66 151 150 151zM886 684c-51 0 -94 -43 -94 -93c0 -52 42 -95 94 -95c51 0 94 43 94 94s-43 94 -94 94zM750 367h272v-67h-272v67z
" />
    <glyph glyph-name="uni0492" unicode="&#x492;" horiz-adv-x="485" 
d="M144 338v-338h-74v338h-61v67h61v335h374v-67h-300v-268h223v-67h-223z" />
    <glyph glyph-name="uni04B0" unicode="&#x4b0;" horiz-adv-x="592" 
d="M258 226v21l-257 493h82l211 -415l217 415h81l-260 -493v-21h122v-68h-122v-158h-74v158h-124v68h124z" />
    <glyph glyph-name="afii10023" unicode="&#x401;" 
d="M74 0v740h406v-67h-332v-267h321v-67h-321v-272h332v-67h-406zM158 906h74v-126h-74v126zM332 906h74v-126h-74v126z" />
    <glyph glyph-name="afii10027" unicode="&#x419;" horiz-adv-x="740" 
d="M74 740h74v-635l440 635h78v-740h-74v635l-440 -635h-78v740zM190 920h72c7 -51 44 -78 108 -78s100 26 108 78h72c-6 -45 -19 -71 -47 -96c-32 -29 -78 -44 -133 -44c-104 0 -167 49 -180 140z" />
    <glyph glyph-name="afii10052" unicode="&#x403;" horiz-adv-x="460" 
d="M74 0v740h379v-67h-305v-673h-74zM194 836l192 116l35 -58l-193 -114z" />
    <glyph glyph-name="afii10056" unicode="&#x407;" horiz-adv-x="240" 
d="M83 0v740h74v-740h-74zM23 906h74v-126h-74v126zM143 906h74v-126h-74v126z" />
    <glyph glyph-name="afii10061" unicode="&#x40c;" horiz-adv-x="600" 
d="M74 740h74v-740h-74v740zM199 379l285 361h88l-285 -353l297 -387h-92zM244 836l192 116l35 -58l-193 -114z" />
    <glyph glyph-name="afii10062" unicode="&#x40e;" horiz-adv-x="620" 
d="M615 740l-335 -740h-77l87 193l-285 547h84l241 -467l208 467h77zM144 920h72c7 -51 44 -78 108 -78s100 26 108 78h72c-6 -45 -19 -71 -47 -96c-32 -29 -78 -44 -133 -44c-104 0 -167 49 -180 140z" />
    <glyph glyph-name="uni049C" unicode="&#x49c;" horiz-adv-x="600" 
d="M244 320v-170h-57v463h57v-177l240 304h88l-285 -353l297 -387h-92zM74 740h74v-740h-74v740z" />
    <glyph glyph-name="uni049A" unicode="&#x49a;" horiz-adv-x="628" 
d="M534 0h-42l-293 379l285 361h88l-285 -353l269 -351h50v-176h-72v140zM74 740h74v-740h-74v740z" />
    <glyph glyph-name="uni04A2" unicode="&#x4a2;" horiz-adv-x="691" 
d="M586 0h-51v347h-387v-347h-74v740h74v-326h387v326h74v-703h49v-177h-72v140z" />
    <glyph glyph-name="uni04B2" unicode="&#x4b2;" horiz-adv-x="651" 
d="M560 0h-46l-209 316l-210 -316h-87l251 378l-236 362h87l195 -297l194 297h87l-239 -362l231 -343h54v-175h-72v140z" />
    <glyph glyph-name="uni04B8" unicode="&#x4b8;" horiz-adv-x="620" 
d="M326 364h146v376h74v-740h-74v297h-146v-196h-57v197c-60 2 -107 15 -142 39c-56 37 -77 88 -77 183v220h74v-220c0 -104 40 -146 145 -155v199h57v-200z" />
    <glyph glyph-name="afii10065" unicode="&#x430;" horiz-adv-x="683" 
d="M620 547v-547h-70v102h-2c-54 -78 -122 -115 -214 -115c-166 0 -292 124 -292 288s124 285 292 285c96 0 159 -32 214 -108h2v95h70zM335 493c-124 0 -219 -97 -219 -221c0 -122 97 -218 219 -218c120 0 215 96 215 217c0 124 -95 222 -215 222z" />
    <glyph glyph-name="afii10066" unicode="&#x431;" horiz-adv-x="660" 
d="M595 740v-67l-235 -16c-160 -9 -241 -92 -251 -257h2c30 58 55 85 103 111c38 19 82 30 129 30c162 0 275 -113 275 -276c0 -164 -116 -278 -283 -278c-187 0 -293 129 -293 359c0 138 34 239 102 301c50 46 118 70 216 77zM338 474c-122 0 -210 -88 -210 -210
c0 -121 89 -210 209 -210s207 89 207 211s-86 209 -206 209z" />
    <glyph glyph-name="afii10067" unicode="&#x432;" horiz-adv-x="480" 
d="M63 547h196c101 0 162 -54 162 -144c0 -53 -24 -92 -73 -115c60 -19 93 -66 93 -131c0 -94 -71 -157 -176 -157h-202v547zM137 480v-166h117c57 0 93 33 93 87c0 52 -32 79 -93 79h-117zM137 247v-180h120c68 0 110 34 110 91c0 56 -40 89 -110 89h-120z" />
    <glyph glyph-name="afii10068" unicode="&#x433;" horiz-adv-x="360" 
d="M63 547h285v-67h-211v-480h-74v547z" />
    <glyph glyph-name="afii10069" unicode="&#x434;" horiz-adv-x="640" 
d="M360 547l213 -480h57v-207h-74v140h-472v-140h-74v207h57l213 480h80zM147 67h346l-173 397z" />
    <glyph glyph-name="afii10070" unicode="&#x435;" horiz-adv-x="650" 
d="M608 247h-489c8 -64 27 -103 66 -139c38 -35 87 -54 141 -54c86 0 151 42 192 124h77c-26 -61 -48 -93 -87 -127c-50 -42 -113 -64 -181 -64c-162 0 -285 123 -285 284c0 164 123 289 285 289c121 0 210 -60 255 -169c18 -45 24 -79 26 -144zM119 314h409
c-15 64 -36 101 -76 134c-36 29 -79 45 -126 45c-49 0 -96 -17 -133 -49c-40 -33 -61 -69 -74 -130z" />
    <glyph glyph-name="afii10072" unicode="&#x436;" horiz-adv-x="760" 
d="M99 0h-93l224 285l-204 262h87l204 -270zM417 0h-74v547h74v-547zM661 0l-218 277l204 270h87l-204 -262l224 -285h-93z" />
    <glyph glyph-name="afii10073" unicode="&#x437;" horiz-adv-x="460" 
d="M132 413h-74c7 50 20 76 48 102c32 29 79 45 129 45c102 0 171 -58 171 -143c0 -62 -29 -107 -83 -131c64 -20 97 -66 97 -135c0 -98 -77 -164 -189 -164c-68 0 -121 21 -155 61c-25 30 -34 58 -36 109h74c3 -67 45 -103 120 -103c69 0 112 37 112 96
c0 62 -41 97 -113 97h-49v67h49c60 0 99 37 99 93c0 53 -37 86 -95 86c-59 0 -95 -28 -105 -80z" />
    <glyph glyph-name="afii10074" unicode="&#x438;" horiz-adv-x="600" 
d="M63 547h74v-442l326 442h74v-547h-74v442l-326 -442h-74v547z" />
    <glyph glyph-name="afii10076" unicode="&#x43a;" horiz-adv-x="500" 
d="M137 0h-74v547h74v-547zM400 0l-220 277l214 270h87l-210 -264l224 -283h-95z" />
    <glyph glyph-name="afii10077" unicode="&#x43b;" horiz-adv-x="560" 
d="M319 547l233 -547h-80l-192 453l-192 -453h-80l234 547h77z" />
    <glyph glyph-name="afii10078" unicode="&#x43c;" horiz-adv-x="720" 
d="M63 547h114l183 -447l183 447h114v-547h-74v465l-191 -465h-64l-191 465v-465h-74v547z" />
    <glyph glyph-name="afii10079" unicode="&#x43d;" horiz-adv-x="580" 
d="M63 547h74v-233h306v233h74v-547h-74v247h-306v-247h-74v547z" />
    <glyph glyph-name="afii10080" unicode="&#x43e;" horiz-adv-x="655" 
d="M326 560c164 0 288 -123 288 -287c0 -162 -124 -286 -286 -286s-286 124 -286 286s124 287 284 287zM330 493c-123 0 -214 -93 -214 -220c0 -126 90 -219 212 -219s212 93 212 219c0 125 -91 220 -210 220z" />
    <glyph glyph-name="afii10081" unicode="&#x43f;" horiz-adv-x="580" 
d="M63 547h454v-547h-74v480h-306v-480h-74v547z" />
    <glyph glyph-name="afii10082" unicode="&#x440;" horiz-adv-x="682" 
d="M63 -192v739h70v-94h2c58 75 123 107 215 107c166 0 290 -124 290 -290c0 -161 -125 -283 -292 -283c-94 0 -162 38 -209 115h-2v-294h-74zM350 493c-124 0 -217 -95 -217 -223c0 -124 91 -216 214 -216s219 95 219 218c0 124 -95 221 -216 221z" />
    <glyph glyph-name="afii10083" unicode="&#x441;" horiz-adv-x="647" 
d="M518 160h82c-57 -117 -144 -173 -266 -173c-166 0 -292 123 -292 285s128 288 292 288c77 0 145 -26 197 -75c31 -30 48 -54 70 -104h-83c-28 48 -49 70 -88 89c-29 15 -63 23 -97 23c-123 0 -217 -94 -217 -218c0 -123 97 -221 218 -221c79 0 140 35 184 106z" />
    <glyph glyph-name="afii10084" unicode="&#x442;" horiz-adv-x="380" 
d="M12 547h356v-67h-141v-480h-74v480h-141v67z" />
    <glyph glyph-name="afii10085" unicode="&#x443;" 
d="M450 547h79l-316 -739h-79l91 217l-215 522h88l172 -426z" />
    <glyph glyph-name="afii10086" unicode="&#x444;" horiz-adv-x="740" 
d="M333 740h74v-180c100 -10 159 -36 214 -94c49 -52 77 -122 77 -192c0 -69 -29 -140 -79 -193c-55 -58 -111 -83 -212 -94v-179h-74v179c-101 11 -157 36 -212 94c-50 53 -79 123 -79 193s28 140 77 192c55 58 114 84 214 94v180zM333 54v439c-73 -5 -116 -23 -157 -65
c-38 -40 -60 -96 -60 -156c0 -57 20 -109 58 -149c40 -43 83 -62 159 -69zM407 493v-439c76 7 118 26 159 69c38 39 58 92 58 149c0 60 -22 116 -60 156c-41 42 -84 60 -157 65z" />
    <glyph glyph-name="afii10087" unicode="&#x445;" horiz-adv-x="480" 
d="M8 0l187 278l-187 269h87l145 -211l145 211h87l-188 -269l188 -278h-87l-145 219l-145 -219h-87z" />
    <glyph glyph-name="afii10088" unicode="&#x446;" horiz-adv-x="620" 
d="M63 547h74v-480h308v480h74v-480h89v-207h-74v140h-471v547z" />
    <glyph glyph-name="afii10091" unicode="&#x449;" horiz-adv-x="860" 
d="M63 547h74v-480h236v480h74v-480h236v480h74v-480h91v-207h-74v140h-711v547z" />
    <glyph glyph-name="afii10092" unicode="&#x44a;" horiz-adv-x="580" 
d="M12 547h205v-209h142c79 0 137 -28 168 -81c14 -25 23 -58 23 -88c0 -101 -74 -169 -186 -169h-221v480h-131v67zM217 271v-204h146c69 0 113 40 113 102s-44 102 -113 102h-146z" />
    <glyph glyph-name="afii10093" unicode="&#x44b;" horiz-adv-x="680" 
d="M63 547h74v-209h147c111 0 186 -68 186 -169s-74 -169 -186 -169h-221v547zM137 271v-204h146c69 0 113 40 113 102s-44 102 -113 102h-146zM543 0v547h74v-547h-74z" />
    <glyph glyph-name="afii10094" unicode="&#x44c;" horiz-adv-x="500" 
d="M63 547h74v-209h147c111 0 186 -68 186 -169s-74 -169 -186 -169h-221v547zM137 271v-204h146c69 0 113 40 113 102s-44 102 -113 102h-146z" />
    <glyph glyph-name="afii10095" unicode="&#x44d;" horiz-adv-x="647" 
d="M47 160h82c40 -70 102 -106 184 -106c53 0 103 19 143 54c41 36 62 75 73 139h-311v67h310c-14 61 -33 95 -73 128c-39 33 -89 51 -141 51c-80 0 -140 -37 -185 -112h-83c50 116 146 179 269 179c165 0 290 -123 290 -287s-124 -286 -291 -286c-76 0 -143 23 -194 67
c-32 29 -50 54 -73 106z" />
    <glyph glyph-name="afii10096" unicode="&#x44e;" horiz-adv-x="860" 
d="M137 314h113c16 82 42 132 95 178c51 44 117 68 188 68c162 0 285 -124 285 -287c0 -162 -123 -286 -285 -286c-73 0 -142 26 -193 72c-54 49 -79 100 -92 188h-111v-247h-74v547h74v-233zM535 493c-123 0 -214 -93 -214 -220c0 -126 90 -219 212 -219
c120 0 211 94 211 219s-90 220 -209 220z" />
    <glyph glyph-name="afii10097" unicode="&#x44f;" horiz-adv-x="520" 
d="M457 547v-547h-74v480h-147c-80 0 -128 -44 -128 -117c0 -70 46 -110 128 -110h75l-182 -253h-85l149 195c-53 6 -85 21 -114 53c-29 30 -45 72 -45 118c0 106 83 181 202 181h221z" />
    <glyph glyph-name="afii10098" unicode="&#x491;" horiz-adv-x="360" 
d="M63 547h211v113h74v-180h-211v-480h-74v547z" />
    <glyph glyph-name="afii10099" unicode="&#x452;" horiz-adv-x="610" 
d="M63 0v612h-100v67h100v61h74v-61h286v-67h-286v-184c46 63 102 92 178 92c147 0 238 -104 238 -272v-206c0 -61 -11 -110 -33 -148c-21 -36 -55 -63 -93 -75c-17 -6 -43 -9 -79 -11v71c54 3 78 13 101 40c21 26 30 61 30 123v206c0 132 -62 205 -174 205
c-107 0 -168 -70 -168 -193v-260h-74z" />
    <glyph glyph-name="afii10101" unicode="&#x454;" horiz-adv-x="647" 
d="M518 160h82c-55 -116 -143 -173 -266 -173c-169 0 -292 120 -292 287c0 163 126 286 293 286c78 0 146 -26 197 -75c31 -29 47 -54 69 -104h-83c-25 48 -46 69 -85 89c-29 15 -64 23 -99 23c-54 0 -106 -19 -145 -52c-38 -32 -57 -66 -70 -127h322v-67h-323
c10 -63 30 -101 70 -138c40 -35 92 -55 147 -55c79 0 139 35 183 106z" />
    <glyph glyph-name="afii10102" unicode="&#x455;" horiz-adv-x="388" 
d="M22 161h74c0 -36 3 -49 19 -70c18 -24 47 -37 80 -37c57 0 96 39 96 95c0 51 -24 75 -104 103c-110 39 -145 76 -145 155c0 90 65 153 157 153c44 0 83 -15 111 -44c28 -28 39 -57 41 -105h-74c-2 51 -32 82 -80 82s-81 -33 -81 -81c0 -50 25 -73 107 -99
c106 -34 142 -73 142 -154c0 -103 -68 -172 -171 -172c-56 0 -101 19 -132 56c-28 32 -38 63 -40 118z" />
    <glyph glyph-name="afii10103" unicode="&#x456;" horiz-adv-x="200" 
d="M63 0v547h74v-547h-74zM63 614v126h74v-126h-74z" />
    <glyph glyph-name="afii10105" unicode="&#x458;" horiz-adv-x="203" 
d="M140 547v-505c0 -72 -2 -89 -14 -120c-26 -68 -89 -110 -171 -114v71c83 6 111 47 111 163v505h74zM66 614v126h74v-126h-74z" />
    <glyph glyph-name="afii10106" unicode="&#x459;" horiz-adv-x="840" 
d="M403 0v453h-2l-301 -453h-88l371 547h94v-209h147c111 0 186 -68 186 -169s-74 -169 -186 -169h-221zM477 271v-204h146c69 0 113 40 113 102s-44 102 -113 102h-146z" />
    <glyph glyph-name="afii10107" unicode="&#x45a;" horiz-adv-x="857" 
d="M420 547h74v-209h147c111 0 186 -68 186 -169s-74 -169 -186 -169h-221v271h-283v-271h-74v547h74v-209h283v209zM494 271v-204h146c69 0 113 40 113 102s-44 102 -113 102h-146z" />
    <glyph glyph-name="afii10108" unicode="&#x45b;" horiz-adv-x="610" 
d="M63 0v612h-100v67h100v61h74v-61h286v-67h-286v-184c46 63 102 92 178 92c147 0 238 -104 238 -272v-248h-74v248c0 132 -62 205 -174 205c-107 0 -168 -70 -168 -193v-260h-74z" />
    <glyph glyph-name="afii10193" unicode="&#x45f;" horiz-adv-x="580" 
d="M63 547h74v-480h306v480h74v-547h-190v-140h-74v140h-190v547z" />
    <glyph glyph-name="uni04E9" unicode="&#x4e9;" horiz-adv-x="655" 
d="M327 561c155 0 287 -131 287 -286c0 -158 -129 -288 -287 -288c-155 0 -285 129 -285 284c0 159 129 290 285 290zM541 239h-427c18 -111 107 -189 214 -189c108 0 195 78 213 189zM114 298h429c-14 116 -104 200 -215 200c-110 0 -200 -84 -214 -200z" />
    <glyph glyph-name="afii10089" unicode="&#x447;" horiz-adv-x="520" 
d="M457 547v-547h-74v206h-141c-76 0 -112 10 -144 40c-35 32 -46 67 -46 146v155h74v-155c0 -49 6 -71 23 -90c19 -22 41 -29 93 -29h141v274h74z" />
    <glyph glyph-name="afii10090" unicode="&#x448;" horiz-adv-x="820" 
d="M63 547h74v-480h236v480h74v-480h236v480h74v-547h-694v547z" />
    <glyph glyph-name="uni0497" unicode="&#x497;" horiz-adv-x="797" 
d="M705 0h-43l-218 277l204 270h87l-204 -262l190 -242h56v-183h-72v140zM99 0h-93l224 285l-204 262h87l204 -270zM417 0h-74v547h74v-547z" />
    <glyph glyph-name="uni04AF" unicode="&#x4af;" 
d="M450 547h79l-223 -522v-217h-81v217l-215 522h88l172 -426z" />
    <glyph glyph-name="afii10846" unicode="&#x4d9;" horiz-adv-x="650" 
d="M42 300h489c-8 64 -27 103 -66 139c-38 35 -87 54 -141 54c-86 0 -151 -42 -192 -124h-77c26 61 48 93 87 127c50 42 113 64 181 64c162 0 285 -123 285 -284c0 -164 -123 -289 -285 -289c-121 0 -210 60 -255 169c-18 45 -24 79 -26 144zM531 233h-409
c15 -64 36 -101 76 -134c36 -29 79 -45 126 -45c49 0 96 17 133 49c40 33 61 69 74 130z" />
    <glyph glyph-name="uni04BB" unicode="&#x4bb;" horiz-adv-x="610" 
d="M543 0h-70v301c0 64 -19 118 -52 150c-30 29 -75 47 -119 47c-103 0 -170 -76 -170 -192v-306h-70v740h70v-263h2c40 56 96 84 171 84c145 0 238 -101 238 -260v-301z" />
    <glyph glyph-name="uni0493" unicode="&#x493;" horiz-adv-x="360" 
d="M63 329v218h285v-67h-211v-151h166v-65h-166v-264h-74v264h-45v65h45z" />
    <glyph glyph-name="uni04B1" unicode="&#x4b1;" 
d="M225 -4v29l-215 522h88l172 -426l180 426h79l-223 -522v-29h109v-59h-109v-129h-81v129h-110v59h110z" />
    <glyph glyph-name="afii10071" unicode="&#x451;" horiz-adv-x="650" 
d="M608 247h-489c8 -64 27 -103 66 -139c38 -35 87 -54 141 -54c86 0 151 42 192 124h77c-26 -61 -48 -93 -87 -127c-50 -42 -113 -64 -181 -64c-162 0 -285 123 -285 284c0 164 123 289 285 289c121 0 210 -60 255 -169c18 -45 24 -79 26 -144zM119 314h409
c-15 64 -36 101 -76 134c-36 29 -79 45 -126 45c-49 0 -96 -17 -133 -49c-40 -33 -61 -69 -74 -130zM217 740h74v-126h-74v126zM364 740h74v-126h-74v126z" />
    <glyph glyph-name="afii10075" unicode="&#x439;" horiz-adv-x="600" 
d="M63 547h74v-442l326 442h74v-547h-74v442l-326 -442h-74v547zM148 740h63c10 -45 41 -69 89 -69s79 24 89 69h63c-18 -82 -71 -126 -152 -126s-134 44 -152 126z" />
    <glyph glyph-name="afii10100" unicode="&#x453;" horiz-adv-x="360" 
d="M63 547h285v-67h-211v-480h-74v547zM114 669l192 116l35 -58l-193 -114z" />
    <glyph glyph-name="afii10104" unicode="&#x457;" horiz-adv-x="260" 
d="M93 0v547h74v-547h-74zM26 740h74v-126h-74v126zM160 740h74v-126h-74v126z" />
    <glyph glyph-name="afii10109" unicode="&#x45c;" horiz-adv-x="500" 
d="M137 0h-74v547h74v-547zM400 0l-220 277l214 270h87l-210 -264l224 -283h-95zM194 669l192 116l35 -58l-193 -114z" />
    <glyph glyph-name="afii10110" unicode="&#x45e;" 
d="M450 547h79l-316 -739h-79l91 217l-215 522h88l172 -426zM134 740h63c10 -45 41 -69 89 -69s79 24 89 69h63c-18 -82 -71 -126 -152 -126s-134 44 -152 126z" />
    <glyph glyph-name="uni049D" unicode="&#x49d;" horiz-adv-x="500" 
d="M233 344l161 203h87l-210 -264l224 -283h-95l-167 210v-118h-57v372h57v-120zM137 0h-74v547h74v-547z" />
    <glyph glyph-name="uni049B" unicode="&#x49b;" horiz-adv-x="534" 
d="M443 0h-43l-220 277l214 270h87l-210 -264l194 -244h50v-179h-72v140zM137 0h-74v547h74v-547z" />
    <glyph glyph-name="uni04A3" unicode="&#x4a3;" horiz-adv-x="600" 
d="M491 0h-48v247h-306v-247h-74v547h74v-233h306v233h74v-502h46v-185h-72v140z" />
    <glyph glyph-name="uni04B3" unicode="&#x4b3;" horiz-adv-x="522" 
d="M422 0h-36l-145 219l-145 -219h-87l187 278l-187 269h87l145 -211l145 211h87l-188 -269l155 -230h54v-188h-72v140z" />
    <glyph glyph-name="uni04B9" unicode="&#x4b9;" horiz-adv-x="520" 
d="M285 273h98v274h74v-547h-74v206h-98v-107h-57v107c-54 1 -82 7 -109 24c-50 30 -67 72 -67 162v155h74v-155c0 -53 7 -76 28 -96c18 -16 35 -22 74 -23v120h57v-120z" />
    <glyph glyph-name="Wgrave" unicode="&#x1e80;" horiz-adv-x="960" 
d="M950 740l-212 -740h-94l-163 607h-2l-162 -607h-95l-211 740h76l181 -645h2l176 645h69l177 -644h2l181 644h75zM571 839l-33 -58l-198 107l32 60z" />
    <glyph glyph-name="Wacute" unicode="&#x1e82;" horiz-adv-x="960" 
d="M950 740l-212 -740h-94l-163 607h-2l-162 -607h-95l-211 740h76l181 -645h2l176 645h69l177 -644h2l181 644h75zM622 888l-198 -107l-33 58l199 109z" />
    <glyph glyph-name="Ygrave" unicode="&#x1ef2;" horiz-adv-x="592" 
d="M592 740l-260 -493v-247h-74v247l-257 493h82l211 -415l217 415h81zM377 839l-33 -58l-198 107l32 60z" />
    <glyph glyph-name="wgrave" unicode="&#x1e81;" horiz-adv-x="831" 
d="M820 547l-209 -547h-79l-116 364h-2l-114 -364h-79l-208 547h73l172 -458h2l125 392h61l126 -392h2l174 458h72zM506 657l-33 -58l-198 107l32 60z" />
    <glyph glyph-name="wacute" unicode="&#x1e83;" horiz-adv-x="831" 
d="M820 547l-209 -547h-79l-116 364h-2l-114 -364h-79l-208 547h73l172 -458h2l125 392h61l126 -392h2l174 458h72zM557 706l-198 -107l-33 58l199 109z" />
    <glyph glyph-name="wdieresis" unicode="&#x1e85;" horiz-adv-x="831" 
d="M820 547l-209 -547h-79l-116 364h-2l-114 -364h-79l-208 547h73l172 -458h2l125 392h61l126 -392h2l174 458h72zM526 619h-74v126h74v-126zM378 619h-74v126h74v-126z" />
    <glyph glyph-name="ygrave" unicode="&#x1ef3;" 
d="M523 547l-317 -739h-73l95 210l-213 529h74l174 -436l186 436h74zM349 657l-33 -58l-198 107l32 60z" />
    <glyph glyph-name="uniEA6B" unicode="&#xea6b;" horiz-adv-x="813" 
d="M688 194h83c-39 -65 -69 -99 -120 -136c-66 -46 -142 -71 -222 -71c-214 0 -386 171 -386 383c0 214 170 382 385 382c119 0 226 -51 303 -144c17 -20 27 -36 37 -58h-83c-64 89 -152 135 -256 135c-168 0 -312 -146 -312 -316c0 -169 145 -315 313 -315
c100 0 183 45 258 140zM461 -53l-77 -169h-74l77 169h74z" />
    <glyph glyph-name="uniEA6C" unicode="&#xea6c;" horiz-adv-x="647" 
d="M530 161h77c-66 -120 -149 -174 -270 -174c-166 0 -296 125 -296 286c0 159 131 288 295 288c73 0 144 -26 197 -74c34 -30 51 -54 74 -105h-77c-44 77 -110 116 -194 116c-126 0 -225 -98 -225 -223c0 -127 99 -225 227 -225c85 0 149 37 192 111zM375 -53l-77 -169h-74
l77 169h74z" />
    <glyph glyph-name="afii61248" unicode="&#x2105;" horiz-adv-x="775" 
d="M369 640h-66c-23 35 -60 55 -101 55c-67 0 -121 -55 -121 -123c0 -69 54 -123 121 -123c40 0 76 19 99 52h67c-30 -66 -94 -108 -166 -108c-100 0 -181 80 -181 179c0 98 81 179 181 179c73 0 138 -43 167 -111zM630 740l-424 -740h-68l424 740h68zM572 345
c99 0 181 -80 181 -178c0 -100 -81 -180 -181 -180s-181 80 -181 179s81 179 181 179zM572 289c-67 0 -121 -54 -121 -123s54 -123 121 -123s121 54 121 122c0 70 -53 124 -121 124z" />
    </font>
</defs>
</svg>
