<?xml version="1.0" encoding="utf-8"?>
<!-- Generator: Adobe Illustrator 17.0.0, SVG Export Plug-In . SVG Version: 6.00 Build 0)  -->
<!DOCTYPE svg PUBLIC "-//W3C//DTD SVG 1.1//EN" "http://www.w3.org/Graphics/SVG/1.1/DTD/svg11.dtd">
<svg version="1.1" id="Слой_1" xmlns="http://www.w3.org/2000/svg" xmlns:xlink="http://www.w3.org/1999/xlink" x="0px" y="0px"
	 width="75px" height="75px" viewBox="0 0 75 75" enable-background="new 0 0 75 75" xml:space="preserve">
<path fill="none" stroke="#1D1D1B" stroke-width="0.992" stroke-linecap="round" stroke-linejoin="round" stroke-miterlimit="10" d="
	M59.126,37.732"/>
<path fill="none" stroke="#1D1D1B" stroke-width="0.992" stroke-linecap="round" stroke-linejoin="round" stroke-miterlimit="10" d="
	M59.126,37.732"/>
<path fill="none" stroke="#1D1D1B" stroke-width="0.992" stroke-linecap="round" stroke-linejoin="round" stroke-miterlimit="10" d="
	M59.126,37.732"/>
<path fill="none" stroke="#1D1D1B" stroke-width="0.992" stroke-linecap="round" stroke-linejoin="round" stroke-miterlimit="10" d="
	M59.126,37.732"/>
<circle fill="none" stroke="#1D1D1B" stroke-width="0.992" stroke-linecap="round" stroke-linejoin="round" stroke-miterlimit="10" cx="37.984" cy="37.732" r="21.26"/>
<path fill="none" stroke="#1D1D1B" stroke-width="0.992" stroke-linecap="round" stroke-linejoin="round" stroke-miterlimit="10" d="
	M59.244,37.732c0,3.914-3.173,7.087-7.086,7.087c-3.915,0-7.088-3.173-7.088-7.087c0,3.914-3.173,7.087-7.086,7.087
	c-3.914,0-7.086-3.173-7.086-7.087c0,3.914-3.174,7.087-7.088,7.087c-3.913,0-7.086-3.173-7.086-7.087"/>
<path fill="none" stroke="#1D1D1B" stroke-width="0.992" stroke-linecap="round" stroke-linejoin="round" stroke-miterlimit="10" d="
	M48.848,56.06c-1.094,0.69-2.389,1.09-3.776,1.09c-3.915,0-7.088-3.173-7.088-7.087c0,3.914-3.173,7.087-7.086,7.087
	c-1.194,0-2.319-0.295-3.305-0.817"/>
</svg>
