<?xml version="1.0" encoding="utf-8"?>
<!-- Generator: Adobe Illustrator 17.0.0, SVG Export Plug-In . SVG Version: 6.00 Build 0)  -->
<!DOCTYPE svg PUBLIC "-//W3C//DTD SVG 1.1//EN" "http://www.w3.org/Graphics/SVG/1.1/DTD/svg11.dtd">
<svg version="1.1" id="Слой_1" xmlns="http://www.w3.org/2000/svg" xmlns:xlink="http://www.w3.org/1999/xlink" x="0px" y="0px"
	 width="75px" height="75px" viewBox="0 0 75 75" enable-background="new 0 0 75 75" xml:space="preserve">
<path fill="none" stroke="#1D1D1B" stroke-width="0.992" stroke-linecap="round" stroke-linejoin="round" stroke-miterlimit="10" d="
	M37.638,58.9c-11.742,0-21.26-9.52-21.26-21.259c0-11.743,9.518-21.262,21.26-21.262c11.742,0,21.26,9.519,21.26,21.262
	C58.898,49.38,49.38,58.9,37.638,58.9z"/>
<circle fill="none" stroke="#1D1D1B" stroke-width="0.992" stroke-linecap="round" stroke-linejoin="round" stroke-miterlimit="10" cx="37.638" cy="37.64" r="7.087"/>
<line fill="none" stroke="#1D1D1B" stroke-width="0.992" stroke-linecap="round" stroke-linejoin="round" stroke-miterlimit="10" x1="37.638" y1="30.553" x2="37.638" y2="2.206"/>
<line fill="none" stroke="#1D1D1B" stroke-width="0.992" stroke-linecap="round" stroke-linejoin="round" stroke-miterlimit="10" x1="37.638" y1="73.074" x2="37.638" y2="44.726"/>
<line fill="none" stroke="#1D1D1B" stroke-width="0.992" stroke-linecap="round" stroke-linejoin="round" stroke-miterlimit="10" x1="44.726" y1="37.64" x2="73.072" y2="37.64"/>
<line fill="none" stroke="#1D1D1B" stroke-width="0.992" stroke-linecap="round" stroke-linejoin="round" stroke-miterlimit="10" x1="2.204" y1="37.64" x2="30.552" y2="37.64"/>
<line fill="none" stroke="#1D1D1B" stroke-width="0.992" stroke-linecap="round" stroke-linejoin="round" stroke-miterlimit="10" x1="42.649" y1="32.629" x2="62.693" y2="12.585"/>
<line fill="none" stroke="#1D1D1B" stroke-width="0.992" stroke-linecap="round" stroke-linejoin="round" stroke-miterlimit="10" x1="12.582" y1="62.695" x2="32.627" y2="42.651"/>
<line fill="none" stroke="#1D1D1B" stroke-width="0.992" stroke-linecap="round" stroke-linejoin="round" stroke-miterlimit="10" x1="42.649" y1="42.652" x2="62.693" y2="62.695"/>
<line fill="none" stroke="#1D1D1B" stroke-width="0.992" stroke-linecap="round" stroke-linejoin="round" stroke-miterlimit="10" x1="12.582" y1="12.585" x2="32.627" y2="32.63"/>
</svg>
