<?xml version="1.0" encoding="utf-8"?>
<!-- Generator: Adobe Illustrator 17.0.0, SVG Export Plug-In . SVG Version: 6.00 Build 0)  -->
<!DOCTYPE svg PUBLIC "-//W3C//DTD SVG 1.1//EN" "http://www.w3.org/Graphics/SVG/1.1/DTD/svg11.dtd">
<svg version="1.1" id="Слой_1" xmlns="http://www.w3.org/2000/svg" xmlns:xlink="http://www.w3.org/1999/xlink" x="0px" y="0px"
	 width="75px" height="75px" viewBox="0 0 75 75" enable-background="new 0 0 75 75" xml:space="preserve">
<circle fill="none" stroke="#1D1D1B" stroke-width="0.992" stroke-linecap="round" stroke-linejoin="round" stroke-miterlimit="10" cx="37.755" cy="37.639" r="21.26"/>
<path fill="#1D1D1B" d="M35.477,8.274V2.206h0.855l1.946,3.07c0.449,0.711,0.801,1.35,1.088,1.971l0.019-0.008
	c-0.072-0.811-0.092-1.549-0.092-2.494V2.206h0.739v6.068h-0.791l-1.928-3.08c-0.422-0.674-0.828-1.367-1.133-2.025l-0.027,0.009
	c0.045,0.766,0.062,1.494,0.062,2.502v2.594H35.477z"/>
<path fill="#1D1D1B" d="M36.118,72.031c0.352,0.215,0.863,0.396,1.404,0.396c0.801,0,1.27-0.423,1.27-1.036
	c0-0.567-0.324-0.891-1.145-1.206c-0.99-0.351-1.601-0.865-1.601-1.72c0-0.946,0.783-1.647,1.963-1.647
	c0.621,0,1.07,0.144,1.341,0.297l-0.216,0.639c-0.2-0.108-0.604-0.287-1.153-0.287c-0.828,0-1.144,0.494-1.144,0.908
	c0,0.568,0.369,0.846,1.207,1.171c1.027,0.395,1.549,0.891,1.549,1.782c0,0.936-0.694,1.746-2.125,1.746
	c-0.584,0-1.225-0.17-1.549-0.387L36.118,72.031z"/>
<polygon fill="#1D1D1B" points="72.919,37.829 70.56,37.829 70.56,40.017 73.189,40.017 73.189,40.674 69.776,40.674 69.776,34.606 
	73.054,34.606 73.054,35.264 70.56,35.264 70.56,37.181 72.919,37.181 "/>
<path fill="#1D1D1B" d="M3.862,40.674l-1.541-6.067h0.828l0.721,3.069c0.179,0.757,0.342,1.513,0.451,2.098h0.018
	c0.099-0.604,0.287-1.324,0.494-2.107l0.81-3.06h0.821l0.738,3.079c0.17,0.719,0.332,1.439,0.422,2.079h0.019
	c0.125-0.667,0.297-1.341,0.485-2.098l0.802-3.06h0.801l-1.719,6.067h-0.82l-0.766-3.16c-0.189-0.774-0.314-1.368-0.396-1.981H6.012
	c-0.107,0.604-0.242,1.198-0.466,1.981l-0.866,3.16H3.862z"/>
</svg>
