<?xml version="1.0" encoding="utf-8"?>
<!-- Generator: Adobe Illustrator 17.0.0, SVG Export Plug-In . SVG Version: 6.00 Build 0)  -->
<!DOCTYPE svg PUBLIC "-//W3C//DTD SVG 1.1//EN" "http://www.w3.org/Graphics/SVG/1.1/DTD/svg11.dtd">
<svg version="1.1" id="Слой_1" xmlns="http://www.w3.org/2000/svg" xmlns:xlink="http://www.w3.org/1999/xlink" x="0px" y="0px"
	 width="75px" height="75px" viewBox="0 0 75 75" enable-background="new 0 0 75 75" xml:space="preserve">
<circle fill="none" stroke="#1D1D1B" stroke-width="0.992" stroke-linecap="round" stroke-linejoin="round" stroke-miterlimit="10" cx="37.365" cy="38.547" r="21.26"/>
<path fill="none" stroke="#1D1D1B" stroke-width="0.992" stroke-linecap="round" stroke-linejoin="round" stroke-miterlimit="10" d="
	M16.112,38.547c-0.141-5.375,1.84-10.796,5.943-14.897c6.344-6.346,16.632-6.347,22.977,0c5.076,5.076,5.076,13.305,0,18.381
	c-4.061,4.061-10.645,4.063-14.705,0c-3.25-3.249-3.25-8.516-0.002-11.764c2.599-2.6,6.814-2.6,9.413,0
	c2.079,2.078,2.08,5.449,0,7.529c-1.663,1.664-4.359,1.664-6.022,0c-1.332-1.329-1.333-3.488-0.002-4.817
	c1.064-1.066,2.791-1.068,3.856-0.001c0.852,0.849,0.854,2.232,0,3.084"/>
</svg>
